<svg xmlns="http://www.w3.org/2000/svg" xmlns:xlink="http://www.w3.org/1999/xlink" width="1366" zoomAndPan="magnify" viewBox="0 0 1024.5 576" height="768" preserveAspectRatio="xMidYMid meet" version="1.2"><defs><clipPath id="27d385c029"><path d="M 0 0.140625 L 1024 0.140625 L 1024 575.859375 L 0 575.859375 Z M 0 0.140625 "/></clipPath><clipPath id="ac256c4807"><path d="M 29.40625 17.164062 L 444.441406 17.164062 L 444.441406 162.027344 L 29.40625 162.027344 Z M 29.40625 17.164062 "/></clipPath><clipPath id="ffe0a6467f"><path d="M 385.511719 17.164062 L 50.980469 17.164062 C 39.066406 17.164062 29.40625 26.824219 29.40625 38.742188 L 29.40625 140.542969 C 29.40625 152.457031 39.066406 162.117188 50.980469 162.117188 L 423.128906 162.117188 C 435.042969 162.117188 444.703125 152.457031 444.703125 140.542969 L 444.703125 80.789062 C 444.703125 75.484375 442.746094 70.363281 439.207031 66.40625 L 401.589844 24.355469 C 397.496094 19.78125 391.648438 17.164062 385.511719 17.164062 Z M 385.511719 17.164062 "/></clipPath><linearGradient x1="0.00344813" gradientTransform="matrix(0.565867,0,0,0.565867,29.403386,17.164849)" y1="128.001007" x2="733.456596" gradientUnits="userSpaceOnUse" y2="128.001007" id="d81900ff0a"><stop style="stop-color:#0cc0df;stop-opacity:1;" offset="0"/><stop style="stop-color:#0dc0df;stop-opacity:1;" offset="0.00390625"/><stop style="stop-color:#0ec0de;stop-opacity:1;" offset="0.0078125"/><stop style="stop-color:#0fc0de;stop-opacity:1;" offset="0.0117188"/><stop style="stop-color:#10c0dd;stop-opacity:1;" offset="0.015625"/><stop style="stop-color:#11c1dd;stop-opacity:1;" offset="0.0195312"/><stop style="stop-color:#12c1dc;stop-opacity:1;" offset="0.0234375"/><stop style="stop-color:#13c1db;stop-opacity:1;" offset="0.0273438"/><stop style="stop-color:#14c1db;stop-opacity:1;" offset="0.03125"/><stop style="stop-color:#15c1da;stop-opacity:1;" offset="0.0351562"/><stop style="stop-color:#15c1da;stop-opacity:1;" offset="0.0390625"/><stop style="stop-color:#16c1d9;stop-opacity:1;" offset="0.0429688"/><stop style="stop-color:#17c1d9;stop-opacity:1;" offset="0.046875"/><stop style="stop-color:#18c2d8;stop-opacity:1;" offset="0.0507813"/><stop style="stop-color:#19c2d8;stop-opacity:1;" offset="0.0546875"/><stop style="stop-color:#1ac2d7;stop-opacity:1;" offset="0.0585938"/><stop style="stop-color:#1bc2d7;stop-opacity:1;" offset="0.0625"/><stop style="stop-color:#1cc2d6;stop-opacity:1;" offset="0.0664063"/><stop style="stop-color:#1dc2d6;stop-opacity:1;" offset="0.0703125"/><stop style="stop-color:#1ec2d5;stop-opacity:1;" offset="0.0742188"/><stop style="stop-color:#1fc2d5;stop-opacity:1;" offset="0.078125"/><stop style="stop-color:#20c2d4;stop-opacity:1;" offset="0.0820313"/><stop style="stop-color:#21c3d4;stop-opacity:1;" offset="0.0859375"/><stop style="stop-color:#22c3d3;stop-opacity:1;" offset="0.0898438"/><stop style="stop-color:#23c3d3;stop-opacity:1;" offset="0.09375"/><stop style="stop-color:#24c3d2;stop-opacity:1;" offset="0.0976562"/><stop style="stop-color:#25c3d1;stop-opacity:1;" offset="0.101563"/><stop style="stop-color:#26c3d1;stop-opacity:1;" offset="0.105469"/><stop style="stop-color:#27c3d0;stop-opacity:1;" offset="0.109375"/><stop style="stop-color:#28c3d0;stop-opacity:1;" offset="0.113281"/><stop style="stop-color:#28c4cf;stop-opacity:1;" offset="0.117188"/><stop style="stop-color:#29c4cf;stop-opacity:1;" offset="0.121094"/><stop style="stop-color:#2ac4ce;stop-opacity:1;" offset="0.125"/><stop style="stop-color:#2bc4ce;stop-opacity:1;" offset="0.128906"/><stop style="stop-color:#2cc4cd;stop-opacity:1;" offset="0.132812"/><stop style="stop-color:#2dc4cd;stop-opacity:1;" offset="0.136719"/><stop style="stop-color:#2ec4cc;stop-opacity:1;" offset="0.140625"/><stop style="stop-color:#2fc4cc;stop-opacity:1;" offset="0.144531"/><stop style="stop-color:#30c4cb;stop-opacity:1;" offset="0.148438"/><stop style="stop-color:#31c5cb;stop-opacity:1;" offset="0.152344"/><stop style="stop-color:#32c5ca;stop-opacity:1;" offset="0.15625"/><stop style="stop-color:#33c5ca;stop-opacity:1;" offset="0.160156"/><stop style="stop-color:#34c5c9;stop-opacity:1;" offset="0.164063"/><stop style="stop-color:#35c5c9;stop-opacity:1;" offset="0.167969"/><stop style="stop-color:#36c5c8;stop-opacity:1;" offset="0.171875"/><stop style="stop-color:#37c5c8;stop-opacity:1;" offset="0.175781"/><stop style="stop-color:#38c5c7;stop-opacity:1;" offset="0.179688"/><stop style="stop-color:#39c6c6;stop-opacity:1;" offset="0.183594"/><stop style="stop-color:#3ac6c6;stop-opacity:1;" offset="0.1875"/><stop style="stop-color:#3ac6c5;stop-opacity:1;" offset="0.191406"/><stop style="stop-color:#3bc6c5;stop-opacity:1;" offset="0.195313"/><stop style="stop-color:#3cc6c4;stop-opacity:1;" offset="0.199219"/><stop style="stop-color:#3dc6c4;stop-opacity:1;" offset="0.203125"/><stop style="stop-color:#3ec6c3;stop-opacity:1;" offset="0.207031"/><stop style="stop-color:#3fc6c3;stop-opacity:1;" offset="0.210938"/><stop style="stop-color:#40c6c2;stop-opacity:1;" offset="0.214844"/><stop style="stop-color:#41c7c2;stop-opacity:1;" offset="0.21875"/><stop style="stop-color:#42c7c1;stop-opacity:1;" offset="0.222656"/><stop style="stop-color:#43c7c1;stop-opacity:1;" offset="0.226563"/><stop style="stop-color:#44c7c0;stop-opacity:1;" offset="0.230469"/><stop style="stop-color:#45c7c0;stop-opacity:1;" offset="0.234375"/><stop style="stop-color:#46c7bf;stop-opacity:1;" offset="0.238281"/><stop style="stop-color:#47c7bf;stop-opacity:1;" offset="0.242188"/><stop style="stop-color:#48c7be;stop-opacity:1;" offset="0.246094"/><stop style="stop-color:#49c8be;stop-opacity:1;" offset="0.25"/><stop style="stop-color:#4ac8bd;stop-opacity:1;" offset="0.253906"/><stop style="stop-color:#4bc8bd;stop-opacity:1;" offset="0.257812"/><stop style="stop-color:#4cc8bc;stop-opacity:1;" offset="0.261719"/><stop style="stop-color:#4dc8bb;stop-opacity:1;" offset="0.265625"/><stop style="stop-color:#4dc8bb;stop-opacity:1;" offset="0.269531"/><stop style="stop-color:#4ec8ba;stop-opacity:1;" offset="0.273438"/><stop style="stop-color:#4fc8ba;stop-opacity:1;" offset="0.277344"/><stop style="stop-color:#50c8b9;stop-opacity:1;" offset="0.28125"/><stop style="stop-color:#51c9b9;stop-opacity:1;" offset="0.285156"/><stop style="stop-color:#52c9b8;stop-opacity:1;" offset="0.289062"/><stop style="stop-color:#53c9b8;stop-opacity:1;" offset="0.292969"/><stop style="stop-color:#54c9b7;stop-opacity:1;" offset="0.296875"/><stop style="stop-color:#55c9b7;stop-opacity:1;" offset="0.300781"/><stop style="stop-color:#56c9b6;stop-opacity:1;" offset="0.304687"/><stop style="stop-color:#57c9b6;stop-opacity:1;" offset="0.308594"/><stop style="stop-color:#58c9b5;stop-opacity:1;" offset="0.3125"/><stop style="stop-color:#59cab5;stop-opacity:1;" offset="0.316406"/><stop style="stop-color:#5acab4;stop-opacity:1;" offset="0.320312"/><stop style="stop-color:#5bcab4;stop-opacity:1;" offset="0.324219"/><stop style="stop-color:#5ccab3;stop-opacity:1;" offset="0.328125"/><stop style="stop-color:#5dcab3;stop-opacity:1;" offset="0.332031"/><stop style="stop-color:#5ecab2;stop-opacity:1;" offset="0.335938"/><stop style="stop-color:#5fcab2;stop-opacity:1;" offset="0.339844"/><stop style="stop-color:#60cab1;stop-opacity:1;" offset="0.34375"/><stop style="stop-color:#60cab0;stop-opacity:1;" offset="0.347656"/><stop style="stop-color:#61cbb0;stop-opacity:1;" offset="0.351562"/><stop style="stop-color:#62cbaf;stop-opacity:1;" offset="0.355469"/><stop style="stop-color:#63cbaf;stop-opacity:1;" offset="0.359375"/><stop style="stop-color:#64cbae;stop-opacity:1;" offset="0.363281"/><stop style="stop-color:#65cbae;stop-opacity:1;" offset="0.367188"/><stop style="stop-color:#66cbad;stop-opacity:1;" offset="0.371094"/><stop style="stop-color:#67cbad;stop-opacity:1;" offset="0.375"/><stop style="stop-color:#68cbac;stop-opacity:1;" offset="0.378906"/><stop style="stop-color:#69ccac;stop-opacity:1;" offset="0.382812"/><stop style="stop-color:#6accab;stop-opacity:1;" offset="0.386719"/><stop style="stop-color:#6bccab;stop-opacity:1;" offset="0.390625"/><stop style="stop-color:#6cccaa;stop-opacity:1;" offset="0.394531"/><stop style="stop-color:#6dccaa;stop-opacity:1;" offset="0.398437"/><stop style="stop-color:#6ecca9;stop-opacity:1;" offset="0.402344"/><stop style="stop-color:#6fcca9;stop-opacity:1;" offset="0.40625"/><stop style="stop-color:#70cca8;stop-opacity:1;" offset="0.410156"/><stop style="stop-color:#71cca8;stop-opacity:1;" offset="0.414062"/><stop style="stop-color:#72cda7;stop-opacity:1;" offset="0.417969"/><stop style="stop-color:#73cda7;stop-opacity:1;" offset="0.421875"/><stop style="stop-color:#73cda6;stop-opacity:1;" offset="0.425781"/><stop style="stop-color:#74cda5;stop-opacity:1;" offset="0.429688"/><stop style="stop-color:#75cda5;stop-opacity:1;" offset="0.433594"/><stop style="stop-color:#76cda4;stop-opacity:1;" offset="0.4375"/><stop style="stop-color:#77cda4;stop-opacity:1;" offset="0.441406"/><stop style="stop-color:#78cda3;stop-opacity:1;" offset="0.445313"/><stop style="stop-color:#79cea3;stop-opacity:1;" offset="0.449219"/><stop style="stop-color:#7acea2;stop-opacity:1;" offset="0.453125"/><stop style="stop-color:#7bcea2;stop-opacity:1;" offset="0.457031"/><stop style="stop-color:#7ccea1;stop-opacity:1;" offset="0.460938"/><stop style="stop-color:#7dcea1;stop-opacity:1;" offset="0.464844"/><stop style="stop-color:#7ecea0;stop-opacity:1;" offset="0.46875"/><stop style="stop-color:#7fcea0;stop-opacity:1;" offset="0.472656"/><stop style="stop-color:#80ce9f;stop-opacity:1;" offset="0.476562"/><stop style="stop-color:#81ce9f;stop-opacity:1;" offset="0.480469"/><stop style="stop-color:#82cf9e;stop-opacity:1;" offset="0.484375"/><stop style="stop-color:#83cf9e;stop-opacity:1;" offset="0.488281"/><stop style="stop-color:#84cf9d;stop-opacity:1;" offset="0.492188"/><stop style="stop-color:#85cf9d;stop-opacity:1;" offset="0.496094"/><stop style="stop-color:#85cf9c;stop-opacity:1;" offset="0.5"/><stop style="stop-color:#86cf9c;stop-opacity:1;" offset="0.503906"/><stop style="stop-color:#87cf9b;stop-opacity:1;" offset="0.507813"/><stop style="stop-color:#88cf9a;stop-opacity:1;" offset="0.511719"/><stop style="stop-color:#89d09a;stop-opacity:1;" offset="0.515625"/><stop style="stop-color:#8ad099;stop-opacity:1;" offset="0.519531"/><stop style="stop-color:#8bd099;stop-opacity:1;" offset="0.523438"/><stop style="stop-color:#8cd098;stop-opacity:1;" offset="0.527344"/><stop style="stop-color:#8dd098;stop-opacity:1;" offset="0.53125"/><stop style="stop-color:#8ed097;stop-opacity:1;" offset="0.535156"/><stop style="stop-color:#8fd097;stop-opacity:1;" offset="0.539063"/><stop style="stop-color:#90d096;stop-opacity:1;" offset="0.542969"/><stop style="stop-color:#91d096;stop-opacity:1;" offset="0.546875"/><stop style="stop-color:#92d195;stop-opacity:1;" offset="0.550781"/><stop style="stop-color:#93d195;stop-opacity:1;" offset="0.554688"/><stop style="stop-color:#94d194;stop-opacity:1;" offset="0.558594"/><stop style="stop-color:#95d194;stop-opacity:1;" offset="0.5625"/><stop style="stop-color:#96d193;stop-opacity:1;" offset="0.566406"/><stop style="stop-color:#97d193;stop-opacity:1;" offset="0.570312"/><stop style="stop-color:#98d192;stop-opacity:1;" offset="0.574219"/><stop style="stop-color:#98d192;stop-opacity:1;" offset="0.578125"/><stop style="stop-color:#99d291;stop-opacity:1;" offset="0.582031"/><stop style="stop-color:#9ad291;stop-opacity:1;" offset="0.585938"/><stop style="stop-color:#9bd290;stop-opacity:1;" offset="0.589844"/><stop style="stop-color:#9cd28f;stop-opacity:1;" offset="0.59375"/><stop style="stop-color:#9dd28f;stop-opacity:1;" offset="0.597656"/><stop style="stop-color:#9ed28e;stop-opacity:1;" offset="0.601562"/><stop style="stop-color:#9fd28e;stop-opacity:1;" offset="0.605469"/><stop style="stop-color:#a0d28d;stop-opacity:1;" offset="0.609375"/><stop style="stop-color:#a1d28d;stop-opacity:1;" offset="0.613281"/><stop style="stop-color:#a2d38c;stop-opacity:1;" offset="0.617188"/><stop style="stop-color:#a3d38c;stop-opacity:1;" offset="0.621094"/><stop style="stop-color:#a4d38b;stop-opacity:1;" offset="0.625"/><stop style="stop-color:#a5d38b;stop-opacity:1;" offset="0.628906"/><stop style="stop-color:#a6d38a;stop-opacity:1;" offset="0.632812"/><stop style="stop-color:#a7d38a;stop-opacity:1;" offset="0.636719"/><stop style="stop-color:#a8d389;stop-opacity:1;" offset="0.640625"/><stop style="stop-color:#a9d389;stop-opacity:1;" offset="0.644531"/><stop style="stop-color:#aad488;stop-opacity:1;" offset="0.648438"/><stop style="stop-color:#abd488;stop-opacity:1;" offset="0.652344"/><stop style="stop-color:#abd487;stop-opacity:1;" offset="0.65625"/><stop style="stop-color:#acd487;stop-opacity:1;" offset="0.660156"/><stop style="stop-color:#add486;stop-opacity:1;" offset="0.664063"/><stop style="stop-color:#aed486;stop-opacity:1;" offset="0.667969"/><stop style="stop-color:#afd485;stop-opacity:1;" offset="0.671875"/><stop style="stop-color:#b0d484;stop-opacity:1;" offset="0.675781"/><stop style="stop-color:#b1d484;stop-opacity:1;" offset="0.679688"/><stop style="stop-color:#b2d583;stop-opacity:1;" offset="0.683594"/><stop style="stop-color:#b3d583;stop-opacity:1;" offset="0.6875"/><stop style="stop-color:#b4d582;stop-opacity:1;" offset="0.691406"/><stop style="stop-color:#b5d582;stop-opacity:1;" offset="0.695312"/><stop style="stop-color:#b6d581;stop-opacity:1;" offset="0.699219"/><stop style="stop-color:#b7d581;stop-opacity:1;" offset="0.703125"/><stop style="stop-color:#b8d580;stop-opacity:1;" offset="0.707031"/><stop style="stop-color:#b9d580;stop-opacity:1;" offset="0.710937"/><stop style="stop-color:#bad67f;stop-opacity:1;" offset="0.714844"/><stop style="stop-color:#bbd67f;stop-opacity:1;" offset="0.71875"/><stop style="stop-color:#bcd67e;stop-opacity:1;" offset="0.722656"/><stop style="stop-color:#bdd67e;stop-opacity:1;" offset="0.726562"/><stop style="stop-color:#bdd67d;stop-opacity:1;" offset="0.730469"/><stop style="stop-color:#bed67d;stop-opacity:1;" offset="0.734375"/><stop style="stop-color:#bfd67c;stop-opacity:1;" offset="0.738281"/><stop style="stop-color:#c0d67c;stop-opacity:1;" offset="0.742188"/><stop style="stop-color:#c1d67b;stop-opacity:1;" offset="0.746094"/><stop style="stop-color:#c2d77b;stop-opacity:1;" offset="0.75"/><stop style="stop-color:#c3d77a;stop-opacity:1;" offset="0.753906"/><stop style="stop-color:#c4d779;stop-opacity:1;" offset="0.757812"/><stop style="stop-color:#c5d779;stop-opacity:1;" offset="0.761719"/><stop style="stop-color:#c6d778;stop-opacity:1;" offset="0.765625"/><stop style="stop-color:#c7d778;stop-opacity:1;" offset="0.769531"/><stop style="stop-color:#c8d777;stop-opacity:1;" offset="0.773438"/><stop style="stop-color:#c9d777;stop-opacity:1;" offset="0.777344"/><stop style="stop-color:#cad876;stop-opacity:1;" offset="0.78125"/><stop style="stop-color:#cbd876;stop-opacity:1;" offset="0.785156"/><stop style="stop-color:#ccd875;stop-opacity:1;" offset="0.789062"/><stop style="stop-color:#cdd875;stop-opacity:1;" offset="0.792969"/><stop style="stop-color:#ced874;stop-opacity:1;" offset="0.796875"/><stop style="stop-color:#cfd874;stop-opacity:1;" offset="0.800781"/><stop style="stop-color:#d0d873;stop-opacity:1;" offset="0.804688"/><stop style="stop-color:#d0d873;stop-opacity:1;" offset="0.808594"/><stop style="stop-color:#d1d872;stop-opacity:1;" offset="0.8125"/><stop style="stop-color:#d2d972;stop-opacity:1;" offset="0.816406"/><stop style="stop-color:#d3d971;stop-opacity:1;" offset="0.820312"/><stop style="stop-color:#d4d971;stop-opacity:1;" offset="0.824219"/><stop style="stop-color:#d5d970;stop-opacity:1;" offset="0.828125"/><stop style="stop-color:#d6d970;stop-opacity:1;" offset="0.832031"/><stop style="stop-color:#d7d96f;stop-opacity:1;" offset="0.835937"/><stop style="stop-color:#d8d96e;stop-opacity:1;" offset="0.839844"/><stop style="stop-color:#d9d96e;stop-opacity:1;" offset="0.84375"/><stop style="stop-color:#dada6d;stop-opacity:1;" offset="0.847656"/><stop style="stop-color:#dbda6d;stop-opacity:1;" offset="0.851562"/><stop style="stop-color:#dcda6c;stop-opacity:1;" offset="0.855469"/><stop style="stop-color:#ddda6c;stop-opacity:1;" offset="0.859375"/><stop style="stop-color:#deda6b;stop-opacity:1;" offset="0.863281"/><stop style="stop-color:#dfda6b;stop-opacity:1;" offset="0.867187"/><stop style="stop-color:#e0da6a;stop-opacity:1;" offset="0.871094"/><stop style="stop-color:#e1da6a;stop-opacity:1;" offset="0.875"/><stop style="stop-color:#e2da69;stop-opacity:1;" offset="0.878906"/><stop style="stop-color:#e3db69;stop-opacity:1;" offset="0.882812"/><stop style="stop-color:#e3db68;stop-opacity:1;" offset="0.886719"/><stop style="stop-color:#e4db68;stop-opacity:1;" offset="0.890625"/><stop style="stop-color:#e5db67;stop-opacity:1;" offset="0.894531"/><stop style="stop-color:#e6db67;stop-opacity:1;" offset="0.898438"/><stop style="stop-color:#e7db66;stop-opacity:1;" offset="0.902344"/><stop style="stop-color:#e8db66;stop-opacity:1;" offset="0.90625"/><stop style="stop-color:#e9db65;stop-opacity:1;" offset="0.910156"/><stop style="stop-color:#eadc65;stop-opacity:1;" offset="0.914062"/><stop style="stop-color:#ebdc64;stop-opacity:1;" offset="0.917969"/><stop style="stop-color:#ecdc63;stop-opacity:1;" offset="0.921875"/><stop style="stop-color:#eddc63;stop-opacity:1;" offset="0.925781"/><stop style="stop-color:#eedc62;stop-opacity:1;" offset="0.929688"/><stop style="stop-color:#efdc62;stop-opacity:1;" offset="0.933594"/><stop style="stop-color:#f0dc61;stop-opacity:1;" offset="0.9375"/><stop style="stop-color:#f1dc61;stop-opacity:1;" offset="0.941406"/><stop style="stop-color:#f2dc60;stop-opacity:1;" offset="0.945312"/><stop style="stop-color:#f3dd60;stop-opacity:1;" offset="0.949219"/><stop style="stop-color:#f4dd5f;stop-opacity:1;" offset="0.953125"/><stop style="stop-color:#f5dd5f;stop-opacity:1;" offset="0.957031"/><stop style="stop-color:#f6dd5e;stop-opacity:1;" offset="0.960938"/><stop style="stop-color:#f6dd5e;stop-opacity:1;" offset="0.964844"/><stop style="stop-color:#f7dd5d;stop-opacity:1;" offset="0.96875"/><stop style="stop-color:#f8dd5d;stop-opacity:1;" offset="0.972656"/><stop style="stop-color:#f9dd5c;stop-opacity:1;" offset="0.976563"/><stop style="stop-color:#fade5c;stop-opacity:1;" offset="0.980469"/><stop style="stop-color:#fbde5b;stop-opacity:1;" offset="0.984375"/><stop style="stop-color:#fcde5b;stop-opacity:1;" offset="0.988281"/><stop style="stop-color:#fdde5a;stop-opacity:1;" offset="0.992188"/><stop style="stop-color:#fede5a;stop-opacity:1;" offset="0.996094"/><stop style="stop-color:#ffde59;stop-opacity:1;" offset="1"/></linearGradient></defs><g id="051203ee5f"><g clip-rule="nonzero" clip-path="url(#27d385c029)"><path style=" stroke:none;fill-rule:nonzero;fill:#ffffff;fill-opacity:1;" d="M 0 0.140625 L 1024 0.140625 L 1024 575.859375 L 0 575.859375 Z M 0 0.140625 "/><path style=" stroke:none;fill-rule:nonzero;fill:#fdfaf0;fill-opacity:1;" d="M 0 0.140625 L 1024 0.140625 L 1024 575.859375 L 0 575.859375 Z M 0 0.140625 "/></g><g clip-rule="nonzero" clip-path="url(#ac256c4807)"><g clip-rule="nonzero" clip-path="url(#ffe0a6467f)"><path style=" stroke:none;fill-rule:nonzero;fill:url(#d81900ff0a);" d="M 29.40625 17.164062 L 29.40625 162.027344 L 444.441406 162.027344 L 444.441406 17.164062 Z M 29.40625 17.164062 "/></g></g><path style=" stroke:none;fill-rule:nonzero;fill:#000000;fill-opacity:1;" d="M 43.023438 108.234375 L 428.933594 108.234375 L 428.933594 112.734375 L 43.023438 112.734375 Z M 43.023438 108.234375 "/><g style="fill:#000000;fill-opacity:1;"><g transform="translate(43.023807, 105.236203)"><path style="stroke:none" d="M 22.875 -33.5625 C 23.675781 -33.5625 24.503906 -33.632812 25.359375 -33.78125 C 26.222656 -33.925781 26.6875 -34 26.75 -34 C 27.445312 -34 28.03125 -33.40625 28.5 -32.21875 C 28.976562 -31.03125 29.21875 -29.53125 29.21875 -27.71875 C 29.21875 -26.9375 29.070312 -26.347656 28.78125 -25.953125 C 28.488281 -25.554688 28.054688 -25.359375 27.484375 -25.359375 C 26.890625 -25.359375 26.296875 -25.785156 25.703125 -26.640625 C 25.109375 -27.492188 24.707031 -28 24.5 -28.15625 C 23.914062 -28.625 23.125 -28.957031 22.125 -29.15625 C 21.132812 -29.363281 19.757812 -29.46875 18 -29.46875 C 15.976562 -29.46875 14.671875 -29.394531 14.078125 -29.25 C 13.484375 -29.113281 13.132812 -28.863281 13.03125 -28.5 C 12.894531 -28.113281 12.789062 -27.28125 12.71875 -26 C 12.644531 -24.71875 12.609375 -23.125 12.609375 -21.21875 C 12.609375 -20.164062 13.484375 -19.640625 15.234375 -19.640625 C 17.097656 -19.640625 18.285156 -19.769531 18.796875 -20.03125 C 19.316406 -20.300781 19.679688 -20.835938 19.890625 -21.640625 C 19.953125 -21.898438 20.003906 -22.257812 20.046875 -22.71875 C 20.210938 -24.082031 20.773438 -24.765625 21.734375 -24.765625 C 22.578125 -24.765625 23.171875 -24.253906 23.515625 -23.234375 C 23.859375 -22.222656 24.03125 -20.4375 24.03125 -17.875 C 24.03125 -14.988281 23.851562 -13.046875 23.5 -12.046875 C 23.144531 -11.046875 22.507812 -10.546875 21.59375 -10.546875 C 20.726562 -10.546875 20.226562 -11.171875 20.09375 -12.421875 C 20.03125 -12.960938 19.960938 -13.378906 19.890625 -13.671875 C 19.679688 -14.472656 19.316406 -15 18.796875 -15.25 C 18.285156 -15.507812 17.113281 -15.640625 15.28125 -15.640625 L 15.015625 -15.640625 C 13.847656 -15.640625 13.15625 -15.5625 12.9375 -15.40625 C 12.71875 -15.25 12.609375 -14.78125 12.609375 -14 L 12.609375 -13.03125 C 12.609375 -10.9375 12.648438 -9.300781 12.734375 -8.125 C 12.816406 -6.945312 12.945312 -6.140625 13.125 -5.703125 C 13.332031 -5.179688 13.789062 -4.800781 14.5 -4.5625 C 15.21875 -4.332031 16.328125 -4.21875 17.828125 -4.21875 C 20.148438 -4.21875 21.898438 -4.375 23.078125 -4.6875 C 24.265625 -5.007812 25.148438 -5.535156 25.734375 -6.265625 C 26.109375 -6.742188 26.554688 -7.597656 27.078125 -8.828125 C 27.609375 -10.054688 28.234375 -10.671875 28.953125 -10.671875 C 29.503906 -10.671875 29.925781 -10.441406 30.21875 -9.984375 C 30.507812 -9.535156 30.65625 -8.875 30.65625 -8 C 30.65625 -5.71875 30.347656 -3.71875 29.734375 -2 C 29.117188 -0.289062 28.460938 0.5625 27.765625 0.5625 C 27.679688 0.5625 27.484375 0.515625 27.171875 0.421875 C 26.140625 0.140625 25.109375 0 24.078125 0 L 7.734375 0 C 4.671875 0 2.769531 -0.148438 2.03125 -0.453125 C 1.289062 -0.765625 0.921875 -1.332031 0.921875 -2.15625 C 0.921875 -2.945312 1.363281 -3.570312 2.25 -4.03125 C 3.132812 -4.488281 3.628906 -4.785156 3.734375 -4.921875 C 3.941406 -5.234375 4.109375 -6.53125 4.234375 -8.8125 C 4.359375 -11.101562 4.421875 -14.179688 4.421875 -18.046875 C 4.421875 -21.109375 4.359375 -23.554688 4.234375 -25.390625 C 4.117188 -27.234375 3.953125 -28.316406 3.734375 -28.640625 C 3.628906 -28.785156 3.132812 -29.082031 2.25 -29.53125 C 1.363281 -29.976562 0.921875 -30.601562 0.921875 -31.40625 C 0.921875 -32.226562 1.289062 -32.789062 2.03125 -33.09375 C 2.769531 -33.40625 4.757812 -33.5625 8 -33.5625 Z M 22.875 -33.5625 "/></g></g><g style="fill:#000000;fill-opacity:1;"><g transform="translate(73.861798, 105.236203)"><path style="stroke:none" d="M 11.515625 -22.140625 L 11.515625 -20.71875 C 11.515625 -20.507812 11.535156 -20.347656 11.578125 -20.234375 C 11.617188 -20.128906 11.6875 -20.078125 11.78125 -20.078125 C 12.019531 -20.078125 12.300781 -20.289062 12.625 -20.71875 C 12.820312 -20.976562 12.972656 -21.164062 13.078125 -21.28125 C 13.867188 -22.164062 14.738281 -22.804688 15.6875 -23.203125 C 16.644531 -23.597656 17.800781 -23.796875 19.15625 -23.796875 C 22.164062 -23.796875 24.335938 -22.957031 25.671875 -21.28125 C 27.003906 -19.601562 27.671875 -16.851562 27.671875 -13.03125 L 27.671875 -9.125 C 27.671875 -7.382812 27.695312 -6.1875 27.75 -5.53125 C 27.8125 -4.882812 27.921875 -4.460938 28.078125 -4.265625 C 28.160156 -4.160156 28.582031 -3.898438 29.34375 -3.484375 C 30.101562 -3.078125 30.484375 -2.546875 30.484375 -1.890625 C 30.484375 -1.097656 30.003906 -0.539062 29.046875 -0.21875 C 28.097656 0.101562 26.363281 0.265625 23.84375 0.265625 C 21.3125 0.265625 19.566406 0.101562 18.609375 -0.21875 C 17.648438 -0.539062 17.171875 -1.097656 17.171875 -1.890625 C 17.171875 -2.585938 17.648438 -3.164062 18.609375 -3.625 C 18.984375 -3.800781 19.238281 -3.941406 19.375 -4.046875 C 19.601562 -4.242188 19.757812 -4.660156 19.84375 -5.296875 C 19.9375 -5.929688 19.984375 -7.1875 19.984375 -9.0625 C 19.984375 -12.9375 19.703125 -15.425781 19.140625 -16.53125 C 18.585938 -17.632812 17.578125 -18.1875 16.109375 -18.1875 C 14.503906 -18.1875 13.335938 -17.507812 12.609375 -16.15625 C 11.878906 -14.8125 11.515625 -12.648438 11.515625 -9.671875 C 11.515625 -7.910156 11.546875 -6.628906 11.609375 -5.828125 C 11.671875 -5.023438 11.785156 -4.515625 11.953125 -4.296875 C 12.046875 -4.171875 12.460938 -3.898438 13.203125 -3.484375 C 13.941406 -3.078125 14.3125 -2.546875 14.3125 -1.890625 C 14.3125 -1.097656 13.835938 -0.539062 12.890625 -0.21875 C 11.941406 0.101562 10.207031 0.265625 7.6875 0.265625 C 5.164062 0.265625 3.421875 0.101562 2.453125 -0.21875 C 1.492188 -0.539062 1.015625 -1.097656 1.015625 -1.890625 C 1.015625 -2.585938 1.492188 -3.164062 2.453125 -3.625 C 2.828125 -3.800781 3.082031 -3.941406 3.21875 -4.046875 C 3.457031 -4.242188 3.625 -4.703125 3.71875 -5.421875 C 3.8125 -6.140625 3.859375 -7.832031 3.859375 -10.5 C 3.859375 -13.375 3.796875 -15.257812 3.671875 -16.15625 C 3.554688 -17.0625 3.351562 -17.625 3.0625 -17.84375 C 3 -17.882812 2.546875 -18.035156 1.703125 -18.296875 C 0.867188 -18.566406 0.453125 -19.066406 0.453125 -19.796875 C 0.453125 -20.160156 0.601562 -20.503906 0.90625 -20.828125 C 1.21875 -21.148438 1.679688 -21.453125 2.296875 -21.734375 C 3.671875 -22.378906 5.039062 -22.882812 6.40625 -23.25 C 7.78125 -23.613281 8.957031 -23.796875 9.9375 -23.796875 C 10.53125 -23.796875 10.941406 -23.679688 11.171875 -23.453125 C 11.398438 -23.222656 11.515625 -22.785156 11.515625 -22.140625 Z M 11.515625 -22.140625 "/></g></g><g style="fill:#000000;fill-opacity:1;"><g transform="translate(104.340163, 105.236203)"><path style="stroke:none" d="M 4.046875 -9.3125 C 4.046875 -11.957031 3.953125 -13.960938 3.765625 -15.328125 C 3.578125 -16.703125 3.296875 -17.539062 2.921875 -17.84375 C 2.859375 -17.882812 2.40625 -18.035156 1.5625 -18.296875 C 0.726562 -18.566406 0.3125 -19.066406 0.3125 -19.796875 C 0.3125 -20.160156 0.460938 -20.503906 0.765625 -20.828125 C 1.078125 -21.148438 1.539062 -21.453125 2.15625 -21.734375 C 3.53125 -22.359375 4.914062 -22.859375 6.3125 -23.234375 C 7.71875 -23.609375 8.894531 -23.796875 9.84375 -23.796875 C 10.320312 -23.796875 10.6875 -23.703125 10.9375 -23.515625 C 11.195312 -23.328125 11.375 -23.023438 11.46875 -22.609375 C 11.570312 -22.171875 11.640625 -21.640625 11.671875 -21.015625 C 11.710938 -20.390625 11.832031 -20.078125 12.03125 -20.078125 C 12.269531 -20.078125 12.597656 -20.34375 13.015625 -20.875 C 13.128906 -21.039062 13.226562 -21.171875 13.3125 -21.265625 C 14.03125 -22.160156 14.722656 -22.804688 15.390625 -23.203125 C 16.054688 -23.597656 16.769531 -23.796875 17.53125 -23.796875 C 18.664062 -23.796875 19.578125 -23.390625 20.265625 -22.578125 C 20.960938 -21.773438 21.3125 -20.707031 21.3125 -19.375 C 21.3125 -18.175781 20.976562 -17.175781 20.3125 -16.375 C 19.644531 -15.582031 18.816406 -15.1875 17.828125 -15.1875 C 17.003906 -15.1875 16.164062 -15.550781 15.3125 -16.28125 C 14.457031 -17.019531 13.847656 -17.390625 13.484375 -17.390625 C 12.828125 -17.390625 12.367188 -16.898438 12.109375 -15.921875 C 11.859375 -14.941406 11.734375 -12.859375 11.734375 -9.671875 C 11.734375 -7.535156 11.769531 -6.15625 11.84375 -5.53125 C 11.914062 -4.914062 12.050781 -4.492188 12.25 -4.265625 C 12.351562 -4.148438 12.835938 -3.90625 13.703125 -3.53125 C 14.578125 -3.15625 15.015625 -2.609375 15.015625 -1.890625 C 15.015625 -1.097656 14.507812 -0.539062 13.5 -0.21875 C 12.488281 0.101562 10.625 0.265625 7.90625 0.265625 C 5.34375 0.265625 3.585938 0.101562 2.640625 -0.21875 C 1.703125 -0.539062 1.234375 -1.097656 1.234375 -1.890625 C 1.234375 -2.585938 1.710938 -3.164062 2.671875 -3.625 C 3.046875 -3.800781 3.300781 -3.941406 3.4375 -4.046875 C 3.664062 -4.210938 3.820312 -4.585938 3.90625 -5.171875 C 4 -5.765625 4.046875 -7.144531 4.046875 -9.3125 Z M 4.046875 -9.3125 "/></g></g><g style="fill:#000000;fill-opacity:1;"><g transform="translate(124.906315, 105.236203)"><path style="stroke:none" d="M 1.1875 -11.375 C 1.1875 -13.25 1.523438 -14.972656 2.203125 -16.546875 C 2.878906 -18.117188 3.859375 -19.492188 5.140625 -20.671875 C 6.390625 -21.796875 7.785156 -22.648438 9.328125 -23.234375 C 10.867188 -23.816406 12.503906 -24.109375 14.234375 -24.109375 C 17.734375 -24.109375 20.613281 -22.992188 22.875 -20.765625 C 25.144531 -18.546875 26.28125 -15.707031 26.28125 -12.25 C 26.28125 -10.414062 25.972656 -8.726562 25.359375 -7.1875 C 24.742188 -5.644531 23.84375 -4.273438 22.65625 -3.078125 C 21.414062 -1.847656 20.023438 -0.914062 18.484375 -0.28125 C 16.953125 0.34375 15.285156 0.65625 13.484375 0.65625 C 9.859375 0.65625 6.898438 -0.457031 4.609375 -2.6875 C 2.328125 -4.925781 1.1875 -7.820312 1.1875 -11.375 Z M 14.625 -3.59375 C 15.71875 -3.59375 16.566406 -4.054688 17.171875 -4.984375 C 17.785156 -5.921875 18.09375 -7.21875 18.09375 -8.875 C 18.09375 -11.9375 17.546875 -14.546875 16.453125 -16.703125 C 15.367188 -18.859375 14.117188 -19.9375 12.703125 -19.9375 C 11.648438 -19.9375 10.832031 -19.441406 10.25 -18.453125 C 9.675781 -17.472656 9.390625 -16.09375 9.390625 -14.3125 C 9.390625 -11.363281 9.921875 -8.835938 10.984375 -6.734375 C 12.054688 -4.640625 13.269531 -3.59375 14.625 -3.59375 Z M 14.625 -3.59375 "/></g></g><g style="fill:#000000;fill-opacity:1;"><g transform="translate(152.395283, 105.236203)"><path style="stroke:none" d="M 11.515625 -14.921875 C 11.515625 -11.148438 11.550781 -8.503906 11.625 -6.984375 C 11.707031 -5.472656 11.851562 -4.566406 12.0625 -4.265625 C 12.144531 -4.160156 12.5625 -3.898438 13.3125 -3.484375 C 14.070312 -3.078125 14.453125 -2.546875 14.453125 -1.890625 C 14.453125 -1.097656 13.972656 -0.539062 13.015625 -0.21875 C 12.054688 0.101562 10.3125 0.265625 7.78125 0.265625 C 5.257812 0.265625 3.519531 0.101562 2.5625 -0.21875 C 1.613281 -0.539062 1.140625 -1.097656 1.140625 -1.890625 C 1.140625 -2.546875 1.515625 -3.082031 2.265625 -3.5 C 3.015625 -3.925781 3.425781 -4.191406 3.5 -4.296875 C 3.664062 -4.535156 3.78125 -5.175781 3.84375 -6.21875 C 3.914062 -7.269531 3.953125 -9.765625 3.953125 -13.703125 L 3.953125 -18.921875 C 3.953125 -22.359375 3.910156 -24.65625 3.828125 -25.8125 C 3.742188 -26.976562 3.597656 -27.691406 3.390625 -27.953125 C 3.285156 -28.109375 2.785156 -28.320312 1.890625 -28.59375 C 1.003906 -28.875 0.5625 -29.375 0.5625 -30.09375 C 0.5625 -30.457031 0.710938 -30.789062 1.015625 -31.09375 C 1.328125 -31.40625 1.804688 -31.703125 2.453125 -31.984375 C 3.867188 -32.660156 5.257812 -33.1875 6.625 -33.5625 C 7.988281 -33.9375 9.144531 -34.125 10.09375 -34.125 C 10.738281 -34.125 11.164062 -33.976562 11.375 -33.6875 C 11.582031 -33.394531 11.6875 -32.753906 11.6875 -31.765625 C 11.6875 -31.628906 11.679688 -31.1875 11.671875 -30.4375 C 11.566406 -25.425781 11.515625 -20.253906 11.515625 -14.921875 Z M 11.515625 -14.921875 "/></g></g><g style="fill:#000000;fill-opacity:1;"><g transform="translate(167.499605, 105.236203)"><path style="stroke:none" d="M 11.515625 -14.921875 C 11.515625 -11.148438 11.550781 -8.503906 11.625 -6.984375 C 11.707031 -5.472656 11.851562 -4.566406 12.0625 -4.265625 C 12.144531 -4.160156 12.5625 -3.898438 13.3125 -3.484375 C 14.070312 -3.078125 14.453125 -2.546875 14.453125 -1.890625 C 14.453125 -1.097656 13.972656 -0.539062 13.015625 -0.21875 C 12.054688 0.101562 10.3125 0.265625 7.78125 0.265625 C 5.257812 0.265625 3.519531 0.101562 2.5625 -0.21875 C 1.613281 -0.539062 1.140625 -1.097656 1.140625 -1.890625 C 1.140625 -2.546875 1.515625 -3.082031 2.265625 -3.5 C 3.015625 -3.925781 3.425781 -4.191406 3.5 -4.296875 C 3.664062 -4.535156 3.78125 -5.175781 3.84375 -6.21875 C 3.914062 -7.269531 3.953125 -9.765625 3.953125 -13.703125 L 3.953125 -18.921875 C 3.953125 -22.359375 3.910156 -24.65625 3.828125 -25.8125 C 3.742188 -26.976562 3.597656 -27.691406 3.390625 -27.953125 C 3.285156 -28.109375 2.785156 -28.320312 1.890625 -28.59375 C 1.003906 -28.875 0.5625 -29.375 0.5625 -30.09375 C 0.5625 -30.457031 0.710938 -30.789062 1.015625 -31.09375 C 1.328125 -31.40625 1.804688 -31.703125 2.453125 -31.984375 C 3.867188 -32.660156 5.257812 -33.1875 6.625 -33.5625 C 7.988281 -33.9375 9.144531 -34.125 10.09375 -34.125 C 10.738281 -34.125 11.164062 -33.976562 11.375 -33.6875 C 11.582031 -33.394531 11.6875 -32.753906 11.6875 -31.765625 C 11.6875 -31.628906 11.679688 -31.1875 11.671875 -30.4375 C 11.566406 -25.425781 11.515625 -20.253906 11.515625 -14.921875 Z M 11.515625 -14.921875 "/></g></g><g style="fill:#000000;fill-opacity:1;"><g transform="translate(182.603927, 105.236203)"><path style="stroke:none" d="M 22 -11.328125 L 10.71875 -11.328125 C 10.195312 -11.328125 9.867188 -11.273438 9.734375 -11.171875 C 9.597656 -11.066406 9.53125 -10.875 9.53125 -10.59375 C 9.53125 -9 10.117188 -7.617188 11.296875 -6.453125 C 12.472656 -5.285156 13.90625 -4.703125 15.59375 -4.703125 C 16.851562 -4.703125 18.179688 -5.03125 19.578125 -5.6875 C 20.972656 -6.34375 21.78125 -6.671875 22 -6.671875 C 22.4375 -6.671875 22.804688 -6.539062 23.109375 -6.28125 C 23.421875 -6.019531 23.578125 -5.707031 23.578125 -5.34375 C 23.578125 -4.75 23.421875 -4.195312 23.109375 -3.6875 C 22.804688 -3.1875 22.28125 -2.644531 21.53125 -2.0625 C 20.425781 -1.175781 19.171875 -0.5 17.765625 -0.03125 C 16.367188 0.425781 14.894531 0.65625 13.34375 0.65625 C 9.738281 0.65625 6.8125 -0.46875 4.5625 -2.71875 C 2.3125 -4.976562 1.1875 -7.910156 1.1875 -11.515625 C 1.1875 -15.148438 2.347656 -18.144531 4.671875 -20.5 C 6.992188 -22.851562 9.945312 -24.03125 13.53125 -24.03125 C 16.644531 -24.03125 19.203125 -23.148438 21.203125 -21.390625 C 23.203125 -19.640625 24.203125 -17.414062 24.203125 -14.71875 C 24.203125 -13.300781 24.050781 -12.378906 23.75 -11.953125 C 23.457031 -11.535156 22.875 -11.328125 22 -11.328125 Z M 10.265625 -14.671875 L 16.203125 -14.671875 C 16.515625 -14.671875 16.738281 -14.726562 16.875 -14.84375 C 17.007812 -14.96875 17.078125 -15.191406 17.078125 -15.515625 C 17.078125 -16.890625 16.707031 -18.015625 15.96875 -18.890625 C 15.238281 -19.765625 14.304688 -20.203125 13.171875 -20.203125 C 12.140625 -20.203125 11.25 -19.726562 10.5 -18.78125 C 9.757812 -17.84375 9.390625 -16.691406 9.390625 -15.328125 C 9.390625 -15.085938 9.453125 -14.921875 9.578125 -14.828125 C 9.710938 -14.742188 9.941406 -14.691406 10.265625 -14.671875 Z M 10.265625 -14.671875 "/></g></g><g style="fill:#000000;fill-opacity:1;"><g transform="translate(207.642938, 105.236203)"><path style="stroke:none" d="M 18.234375 -14.234375 C 18.234375 -16.117188 17.953125 -17.421875 17.390625 -18.140625 C 16.835938 -18.867188 15.890625 -19.234375 14.546875 -19.234375 C 13.054688 -19.234375 11.863281 -18.59375 10.96875 -17.3125 C 10.070312 -16.03125 9.625 -14.328125 9.625 -12.203125 C 9.625 -9.921875 10.078125 -8.113281 10.984375 -6.78125 C 11.890625 -5.445312 13.09375 -4.78125 14.59375 -4.78125 C 15.769531 -4.78125 16.671875 -5.144531 17.296875 -5.875 C 17.921875 -6.613281 18.234375 -7.695312 18.234375 -9.125 Z M 18.234375 -1.0625 L 18.234375 -1.65625 C 18.234375 -1.894531 18.210938 -2.0625 18.171875 -2.15625 C 18.128906 -2.25 18.054688 -2.296875 17.953125 -2.296875 C 17.765625 -2.296875 17.488281 -2.125 17.125 -1.78125 C 17.007812 -1.675781 16.921875 -1.59375 16.859375 -1.53125 C 16.109375 -0.851562 15.25 -0.335938 14.28125 0.015625 C 13.3125 0.378906 12.28125 0.5625 11.1875 0.5625 C 8.40625 0.5625 6.050781 -0.566406 4.125 -2.828125 C 2.195312 -5.085938 1.234375 -7.890625 1.234375 -11.234375 C 1.234375 -13.003906 1.535156 -14.644531 2.140625 -16.15625 C 2.753906 -17.675781 3.648438 -19.023438 4.828125 -20.203125 C 5.984375 -21.347656 7.25 -22.210938 8.625 -22.796875 C 10.007812 -23.378906 11.460938 -23.671875 12.984375 -23.671875 C 14.722656 -23.671875 16.257812 -23.226562 17.59375 -22.34375 C 17.789062 -22.207031 17.910156 -22.140625 17.953125 -22.140625 C 18.046875 -22.140625 18.113281 -22.265625 18.15625 -22.515625 C 18.207031 -22.773438 18.234375 -23.25 18.234375 -23.9375 C 18.234375 -25.5 18.160156 -26.570312 18.015625 -27.15625 C 17.867188 -27.75 17.625 -28.113281 17.28125 -28.25 C 17.082031 -28.320312 16.828125 -28.40625 16.515625 -28.5 C 15.453125 -28.8125 14.921875 -29.34375 14.921875 -30.09375 C 14.921875 -30.53125 15.109375 -30.910156 15.484375 -31.234375 C 15.859375 -31.566406 16.585938 -31.957031 17.671875 -32.40625 C 18.984375 -32.96875 20.226562 -33.394531 21.40625 -33.6875 C 22.582031 -33.976562 23.613281 -34.125 24.5 -34.125 C 25.15625 -34.125 25.597656 -33.972656 25.828125 -33.671875 C 26.066406 -33.367188 26.1875 -32.742188 26.1875 -31.796875 C 26.1875 -31.335938 26.132812 -29.265625 26.03125 -25.578125 C 25.925781 -21.890625 25.875 -18.441406 25.875 -15.234375 C 25.875 -11.054688 25.929688 -8.421875 26.046875 -7.328125 C 26.171875 -6.242188 26.378906 -5.582031 26.671875 -5.34375 C 26.734375 -5.300781 27.179688 -5.148438 28.015625 -4.890625 C 28.859375 -4.628906 29.28125 -4.140625 29.28125 -3.421875 C 29.28125 -3.046875 29.128906 -2.703125 28.828125 -2.390625 C 28.535156 -2.085938 28.070312 -1.800781 27.4375 -1.53125 C 26.0625 -0.875 24.6875 -0.363281 23.3125 0 C 21.945312 0.375 20.773438 0.5625 19.796875 0.5625 C 19.179688 0.5625 18.765625 0.445312 18.546875 0.21875 C 18.335938 0 18.234375 -0.425781 18.234375 -1.0625 Z M 18.234375 -1.0625 "/></g></g><g style="fill:#000000;fill-opacity:1;"><g transform="translate(236.817656, 105.236203)"><path style="stroke:none" d=""/></g></g><g style="fill:#000000;fill-opacity:1;"><g transform="translate(250.438517, 105.236203)"><path style="stroke:none" d="M 26.796875 -32.453125 C 27.085938 -32.660156 27.382812 -32.820312 27.6875 -32.9375 C 27.988281 -33.050781 28.289062 -33.109375 28.59375 -33.109375 C 29.488281 -33.109375 30.3125 -32.390625 31.0625 -30.953125 C 31.8125 -29.515625 32.1875 -27.878906 32.1875 -26.046875 C 32.1875 -25.265625 31.992188 -24.65625 31.609375 -24.21875 C 31.234375 -23.789062 30.695312 -23.578125 30 -23.578125 C 29.382812 -23.578125 28.613281 -24.0625 27.6875 -25.03125 C 27.519531 -25.21875 27.410156 -25.335938 27.359375 -25.390625 C 25.765625 -27.046875 24.300781 -28.191406 22.96875 -28.828125 C 21.632812 -29.460938 20.128906 -29.78125 18.453125 -29.78125 C 15.773438 -29.78125 13.71875 -28.898438 12.28125 -27.140625 C 10.851562 -25.390625 10.140625 -22.875 10.140625 -19.59375 C 10.140625 -14.863281 11.15625 -11.191406 13.1875 -8.578125 C 15.21875 -5.960938 18.082031 -4.65625 21.78125 -4.65625 C 22.96875 -4.65625 24.039062 -4.820312 25 -5.15625 C 25.96875 -5.488281 26.8125 -5.992188 27.53125 -6.671875 C 27.800781 -6.929688 28.144531 -7.316406 28.5625 -7.828125 C 29.28125 -8.691406 29.90625 -9.125 30.4375 -9.125 C 31.019531 -9.125 31.484375 -8.859375 31.828125 -8.328125 C 32.179688 -7.804688 32.359375 -7.097656 32.359375 -6.203125 C 32.359375 -4.898438 32.101562 -3.773438 31.59375 -2.828125 C 31.09375 -1.890625 30.503906 -1.421875 29.828125 -1.421875 C 29.546875 -1.429688 29.269531 -1.460938 29 -1.515625 C 28.726562 -1.566406 28.445312 -1.644531 28.15625 -1.75 C 26.644531 -0.863281 25.113281 -0.207031 23.5625 0.21875 C 22.007812 0.65625 20.429688 0.875 18.828125 0.875 C 16.867188 0.875 14.976562 0.609375 13.15625 0.078125 C 11.332031 -0.453125 9.742188 -1.195312 8.390625 -2.15625 C 6.117188 -3.757812 4.363281 -5.867188 3.125 -8.484375 C 1.894531 -11.097656 1.28125 -13.992188 1.28125 -17.171875 C 1.28125 -19.148438 1.5625 -21.019531 2.125 -22.78125 C 2.695312 -24.550781 3.539062 -26.164062 4.65625 -27.625 C 6.195312 -29.675781 8.222656 -31.273438 10.734375 -32.421875 C 13.253906 -33.578125 16 -34.15625 18.96875 -34.15625 C 20.289062 -34.15625 21.597656 -34.015625 22.890625 -33.734375 C 24.191406 -33.453125 25.492188 -33.023438 26.796875 -32.453125 Z M 26.796875 -32.453125 "/></g></g><g style="fill:#000000;fill-opacity:1;"><g transform="translate(283.54664, 105.236203)"><path style="stroke:none" d="M 1.1875 -11.375 C 1.1875 -13.25 1.523438 -14.972656 2.203125 -16.546875 C 2.878906 -18.117188 3.859375 -19.492188 5.140625 -20.671875 C 6.390625 -21.796875 7.785156 -22.648438 9.328125 -23.234375 C 10.867188 -23.816406 12.503906 -24.109375 14.234375 -24.109375 C 17.734375 -24.109375 20.613281 -22.992188 22.875 -20.765625 C 25.144531 -18.546875 26.28125 -15.707031 26.28125 -12.25 C 26.28125 -10.414062 25.972656 -8.726562 25.359375 -7.1875 C 24.742188 -5.644531 23.84375 -4.273438 22.65625 -3.078125 C 21.414062 -1.847656 20.023438 -0.914062 18.484375 -0.28125 C 16.953125 0.34375 15.285156 0.65625 13.484375 0.65625 C 9.859375 0.65625 6.898438 -0.457031 4.609375 -2.6875 C 2.328125 -4.925781 1.1875 -7.820312 1.1875 -11.375 Z M 14.625 -3.59375 C 15.71875 -3.59375 16.566406 -4.054688 17.171875 -4.984375 C 17.785156 -5.921875 18.09375 -7.21875 18.09375 -8.875 C 18.09375 -11.9375 17.546875 -14.546875 16.453125 -16.703125 C 15.367188 -18.859375 14.117188 -19.9375 12.703125 -19.9375 C 11.648438 -19.9375 10.832031 -19.441406 10.25 -18.453125 C 9.675781 -17.472656 9.390625 -16.09375 9.390625 -14.3125 C 9.390625 -11.363281 9.921875 -8.835938 10.984375 -6.734375 C 12.054688 -4.640625 13.269531 -3.59375 14.625 -3.59375 Z M 14.625 -3.59375 "/></g></g><g style="fill:#000000;fill-opacity:1;"><g transform="translate(311.035619, 105.236203)"><path style="stroke:none" d="M 19.1875 -1.0625 L 19.1875 -2.203125 C 19.1875 -2.410156 19.164062 -2.570312 19.125 -2.6875 C 19.082031 -2.800781 19.015625 -2.859375 18.921875 -2.859375 C 18.753906 -2.859375 18.476562 -2.65625 18.09375 -2.25 C 17.71875 -1.851562 17.378906 -1.53125 17.078125 -1.28125 C 16.296875 -0.65625 15.394531 -0.175781 14.375 0.15625 C 13.363281 0.488281 12.257812 0.65625 11.0625 0.65625 C 9.351562 0.65625 7.875 0.273438 6.625 -0.484375 C 5.382812 -1.242188 4.492188 -2.296875 3.953125 -3.640625 C 3.628906 -4.460938 3.394531 -5.421875 3.25 -6.515625 C 3.101562 -7.609375 3.03125 -9.179688 3.03125 -11.234375 L 3.03125 -15.109375 C 3.03125 -16.179688 2.96875 -16.894531 2.84375 -17.25 C 2.726562 -17.601562 2.515625 -17.820312 2.203125 -17.90625 C 2.035156 -17.96875 1.765625 -18.0625 1.390625 -18.1875 C 0.335938 -18.507812 -0.1875 -19.046875 -0.1875 -19.796875 C -0.1875 -20.160156 -0.0351562 -20.503906 0.265625 -20.828125 C 0.578125 -21.148438 1.039062 -21.453125 1.65625 -21.734375 C 3.050781 -22.378906 4.429688 -22.882812 5.796875 -23.25 C 7.160156 -23.613281 8.332031 -23.796875 9.3125 -23.796875 C 9.976562 -23.796875 10.414062 -23.644531 10.625 -23.34375 C 10.84375 -23.050781 10.953125 -22.390625 10.953125 -21.359375 C 10.953125 -20.660156 10.90625 -19.289062 10.8125 -17.25 C 10.71875 -15.21875 10.671875 -13.535156 10.671875 -12.203125 C 10.671875 -9.597656 10.972656 -7.75 11.578125 -6.65625 C 12.191406 -5.5625 13.195312 -5.015625 14.59375 -5.015625 C 16.238281 -5.015625 17.414062 -5.707031 18.125 -7.09375 C 18.832031 -8.488281 19.1875 -10.910156 19.1875 -14.359375 C 19.1875 -15.691406 19.140625 -16.5625 19.046875 -16.96875 C 18.953125 -17.382812 18.785156 -17.695312 18.546875 -17.90625 C 18.410156 -18 18.140625 -18.09375 17.734375 -18.1875 C 16.566406 -18.46875 15.984375 -19.003906 15.984375 -19.796875 C 15.984375 -20.160156 16.132812 -20.503906 16.4375 -20.828125 C 16.75 -21.148438 17.210938 -21.453125 17.828125 -21.734375 C 19.210938 -22.378906 20.585938 -22.882812 21.953125 -23.25 C 23.316406 -23.613281 24.488281 -23.796875 25.46875 -23.796875 C 26.125 -23.796875 26.5625 -23.640625 26.78125 -23.328125 C 27 -23.023438 27.109375 -22.378906 27.109375 -21.390625 C 27.109375 -21.179688 27.066406 -19.945312 26.984375 -17.6875 C 26.910156 -15.425781 26.875 -13.273438 26.875 -11.234375 C 26.875 -9.117188 26.929688 -7.671875 27.046875 -6.890625 C 27.160156 -6.117188 27.359375 -5.617188 27.640625 -5.390625 C 27.703125 -5.347656 28.148438 -5.195312 28.984375 -4.9375 C 29.828125 -4.6875 30.25 -4.195312 30.25 -3.46875 C 30.25 -3.09375 30.09375 -2.742188 29.78125 -2.421875 C 29.476562 -2.097656 29.019531 -1.800781 28.40625 -1.53125 C 26.96875 -0.851562 25.5625 -0.320312 24.1875 0.0625 C 22.820312 0.457031 21.679688 0.65625 20.765625 0.65625 C 20.171875 0.65625 19.757812 0.535156 19.53125 0.296875 C 19.300781 0.0546875 19.1875 -0.394531 19.1875 -1.0625 Z M 19.1875 -1.0625 "/></g></g><g style="fill:#000000;fill-opacity:1;"><g transform="translate(341.513983, 105.236203)"><path style="stroke:none" d="M 4.046875 -9.3125 C 4.046875 -11.957031 3.953125 -13.960938 3.765625 -15.328125 C 3.578125 -16.703125 3.296875 -17.539062 2.921875 -17.84375 C 2.859375 -17.882812 2.40625 -18.035156 1.5625 -18.296875 C 0.726562 -18.566406 0.3125 -19.066406 0.3125 -19.796875 C 0.3125 -20.160156 0.460938 -20.503906 0.765625 -20.828125 C 1.078125 -21.148438 1.539062 -21.453125 2.15625 -21.734375 C 3.53125 -22.359375 4.914062 -22.859375 6.3125 -23.234375 C 7.71875 -23.609375 8.894531 -23.796875 9.84375 -23.796875 C 10.320312 -23.796875 10.6875 -23.703125 10.9375 -23.515625 C 11.195312 -23.328125 11.375 -23.023438 11.46875 -22.609375 C 11.570312 -22.171875 11.640625 -21.640625 11.671875 -21.015625 C 11.710938 -20.390625 11.832031 -20.078125 12.03125 -20.078125 C 12.269531 -20.078125 12.597656 -20.34375 13.015625 -20.875 C 13.128906 -21.039062 13.226562 -21.171875 13.3125 -21.265625 C 14.03125 -22.160156 14.722656 -22.804688 15.390625 -23.203125 C 16.054688 -23.597656 16.769531 -23.796875 17.53125 -23.796875 C 18.664062 -23.796875 19.578125 -23.390625 20.265625 -22.578125 C 20.960938 -21.773438 21.3125 -20.707031 21.3125 -19.375 C 21.3125 -18.175781 20.976562 -17.175781 20.3125 -16.375 C 19.644531 -15.582031 18.816406 -15.1875 17.828125 -15.1875 C 17.003906 -15.1875 16.164062 -15.550781 15.3125 -16.28125 C 14.457031 -17.019531 13.847656 -17.390625 13.484375 -17.390625 C 12.828125 -17.390625 12.367188 -16.898438 12.109375 -15.921875 C 11.859375 -14.941406 11.734375 -12.859375 11.734375 -9.671875 C 11.734375 -7.535156 11.769531 -6.15625 11.84375 -5.53125 C 11.914062 -4.914062 12.050781 -4.492188 12.25 -4.265625 C 12.351562 -4.148438 12.835938 -3.90625 13.703125 -3.53125 C 14.578125 -3.15625 15.015625 -2.609375 15.015625 -1.890625 C 15.015625 -1.097656 14.507812 -0.539062 13.5 -0.21875 C 12.488281 0.101562 10.625 0.265625 7.90625 0.265625 C 5.34375 0.265625 3.585938 0.101562 2.640625 -0.21875 C 1.703125 -0.539062 1.234375 -1.097656 1.234375 -1.890625 C 1.234375 -2.585938 1.710938 -3.164062 2.671875 -3.625 C 3.046875 -3.800781 3.300781 -3.941406 3.4375 -4.046875 C 3.664062 -4.210938 3.820312 -4.585938 3.90625 -5.171875 C 4 -5.765625 4.046875 -7.144531 4.046875 -9.3125 Z M 4.046875 -9.3125 "/></g></g><g style="fill:#000000;fill-opacity:1;"><g transform="translate(362.080148, 105.236203)"><path style="stroke:none" d="M 1.375 -16.703125 C 1.375 -18.859375 2.085938 -20.59375 3.515625 -21.90625 C 4.941406 -23.226562 6.828125 -23.890625 9.171875 -23.890625 C 9.742188 -23.890625 10.382812 -23.835938 11.09375 -23.734375 C 11.800781 -23.628906 12.234375 -23.578125 12.390625 -23.578125 C 12.648438 -23.578125 13.066406 -23.703125 13.640625 -23.953125 C 14.222656 -24.210938 14.664062 -24.34375 14.96875 -24.34375 C 15.269531 -24.34375 15.597656 -24.226562 15.953125 -24 C 16.316406 -23.78125 16.648438 -23.484375 16.953125 -23.109375 C 17.578125 -22.234375 18.082031 -21.28125 18.46875 -20.25 C 18.863281 -19.226562 19.0625 -18.320312 19.0625 -17.53125 C 19.0625 -16.914062 18.914062 -16.425781 18.625 -16.0625 C 18.34375 -15.695312 17.960938 -15.515625 17.484375 -15.515625 C 17.109375 -15.515625 16.765625 -15.617188 16.453125 -15.828125 C 16.140625 -16.035156 15.765625 -16.421875 15.328125 -16.984375 C 15.210938 -17.140625 15.039062 -17.375 14.8125 -17.6875 C 13.550781 -19.425781 12.273438 -20.296875 10.984375 -20.296875 C 10.429688 -20.296875 9.957031 -20.117188 9.5625 -19.765625 C 9.164062 -19.410156 8.96875 -18.988281 8.96875 -18.5 C 8.96875 -17.488281 10.25 -16.394531 12.8125 -15.21875 C 13.457031 -14.914062 13.957031 -14.675781 14.3125 -14.5 C 16.320312 -13.539062 17.769531 -12.488281 18.65625 -11.34375 C 19.539062 -10.195312 19.984375 -8.804688 19.984375 -7.171875 C 19.984375 -4.921875 19.128906 -3.050781 17.421875 -1.5625 C 15.710938 -0.0820312 13.523438 0.65625 10.859375 0.65625 C 10.148438 0.65625 9.359375 0.578125 8.484375 0.421875 C 7.609375 0.265625 7.082031 0.1875 6.90625 0.1875 C 6.664062 0.1875 6.304688 0.265625 5.828125 0.421875 C 5.347656 0.578125 4.988281 0.65625 4.75 0.65625 C 4.394531 0.65625 4.03125 0.535156 3.65625 0.296875 C 3.289062 0.0664062 2.976562 -0.25 2.71875 -0.65625 C 2.09375 -1.582031 1.597656 -2.554688 1.234375 -3.578125 C 0.878906 -4.597656 0.703125 -5.492188 0.703125 -6.265625 C 0.703125 -6.972656 0.867188 -7.554688 1.203125 -8.015625 C 1.535156 -8.472656 1.96875 -8.703125 2.5 -8.703125 C 3.257812 -8.703125 4.164062 -7.882812 5.21875 -6.25 C 5.53125 -5.769531 5.769531 -5.410156 5.9375 -5.171875 C 6.414062 -4.453125 7.078125 -3.878906 7.921875 -3.453125 C 8.765625 -3.023438 9.640625 -2.8125 10.546875 -2.8125 C 11.367188 -2.8125 12.023438 -3 12.515625 -3.375 C 13.015625 -3.757812 13.265625 -4.273438 13.265625 -4.921875 C 13.265625 -6.023438 11.679688 -7.367188 8.515625 -8.953125 L 8.265625 -9.078125 C 5.453125 -10.429688 3.597656 -11.640625 2.703125 -12.703125 C 1.816406 -13.765625 1.375 -15.097656 1.375 -16.703125 Z M 1.375 -16.703125 "/></g></g><g style="fill:#000000;fill-opacity:1;"><g transform="translate(382.983429, 105.236203)"><path style="stroke:none" d="M 22 -11.328125 L 10.71875 -11.328125 C 10.195312 -11.328125 9.867188 -11.273438 9.734375 -11.171875 C 9.597656 -11.066406 9.53125 -10.875 9.53125 -10.59375 C 9.53125 -9 10.117188 -7.617188 11.296875 -6.453125 C 12.472656 -5.285156 13.90625 -4.703125 15.59375 -4.703125 C 16.851562 -4.703125 18.179688 -5.03125 19.578125 -5.6875 C 20.972656 -6.34375 21.78125 -6.671875 22 -6.671875 C 22.4375 -6.671875 22.804688 -6.539062 23.109375 -6.28125 C 23.421875 -6.019531 23.578125 -5.707031 23.578125 -5.34375 C 23.578125 -4.75 23.421875 -4.195312 23.109375 -3.6875 C 22.804688 -3.1875 22.28125 -2.644531 21.53125 -2.0625 C 20.425781 -1.175781 19.171875 -0.5 17.765625 -0.03125 C 16.367188 0.425781 14.894531 0.65625 13.34375 0.65625 C 9.738281 0.65625 6.8125 -0.46875 4.5625 -2.71875 C 2.3125 -4.976562 1.1875 -7.910156 1.1875 -11.515625 C 1.1875 -15.148438 2.347656 -18.144531 4.671875 -20.5 C 6.992188 -22.851562 9.945312 -24.03125 13.53125 -24.03125 C 16.644531 -24.03125 19.203125 -23.148438 21.203125 -21.390625 C 23.203125 -19.640625 24.203125 -17.414062 24.203125 -14.71875 C 24.203125 -13.300781 24.050781 -12.378906 23.75 -11.953125 C 23.457031 -11.535156 22.875 -11.328125 22 -11.328125 Z M 10.265625 -14.671875 L 16.203125 -14.671875 C 16.515625 -14.671875 16.738281 -14.726562 16.875 -14.84375 C 17.007812 -14.96875 17.078125 -15.191406 17.078125 -15.515625 C 17.078125 -16.890625 16.707031 -18.015625 15.96875 -18.890625 C 15.238281 -19.765625 14.304688 -20.203125 13.171875 -20.203125 C 12.140625 -20.203125 11.25 -19.726562 10.5 -18.78125 C 9.757812 -17.84375 9.390625 -16.691406 9.390625 -15.328125 C 9.390625 -15.085938 9.453125 -14.921875 9.578125 -14.828125 C 9.710938 -14.742188 9.941406 -14.691406 10.265625 -14.671875 Z M 10.265625 -14.671875 "/></g></g><g style="fill:#000000;fill-opacity:1;"><g transform="translate(408.022461, 105.236203)"><path style="stroke:none" d="M 1.375 -16.703125 C 1.375 -18.859375 2.085938 -20.59375 3.515625 -21.90625 C 4.941406 -23.226562 6.828125 -23.890625 9.171875 -23.890625 C 9.742188 -23.890625 10.382812 -23.835938 11.09375 -23.734375 C 11.800781 -23.628906 12.234375 -23.578125 12.390625 -23.578125 C 12.648438 -23.578125 13.066406 -23.703125 13.640625 -23.953125 C 14.222656 -24.210938 14.664062 -24.34375 14.96875 -24.34375 C 15.269531 -24.34375 15.597656 -24.226562 15.953125 -24 C 16.316406 -23.78125 16.648438 -23.484375 16.953125 -23.109375 C 17.578125 -22.234375 18.082031 -21.28125 18.46875 -20.25 C 18.863281 -19.226562 19.0625 -18.320312 19.0625 -17.53125 C 19.0625 -16.914062 18.914062 -16.425781 18.625 -16.0625 C 18.34375 -15.695312 17.960938 -15.515625 17.484375 -15.515625 C 17.109375 -15.515625 16.765625 -15.617188 16.453125 -15.828125 C 16.140625 -16.035156 15.765625 -16.421875 15.328125 -16.984375 C 15.210938 -17.140625 15.039062 -17.375 14.8125 -17.6875 C 13.550781 -19.425781 12.273438 -20.296875 10.984375 -20.296875 C 10.429688 -20.296875 9.957031 -20.117188 9.5625 -19.765625 C 9.164062 -19.410156 8.96875 -18.988281 8.96875 -18.5 C 8.96875 -17.488281 10.25 -16.394531 12.8125 -15.21875 C 13.457031 -14.914062 13.957031 -14.675781 14.3125 -14.5 C 16.320312 -13.539062 17.769531 -12.488281 18.65625 -11.34375 C 19.539062 -10.195312 19.984375 -8.804688 19.984375 -7.171875 C 19.984375 -4.921875 19.128906 -3.050781 17.421875 -1.5625 C 15.710938 -0.0820312 13.523438 0.65625 10.859375 0.65625 C 10.148438 0.65625 9.359375 0.578125 8.484375 0.421875 C 7.609375 0.265625 7.082031 0.1875 6.90625 0.1875 C 6.664062 0.1875 6.304688 0.265625 5.828125 0.421875 C 5.347656 0.578125 4.988281 0.65625 4.75 0.65625 C 4.394531 0.65625 4.03125 0.535156 3.65625 0.296875 C 3.289062 0.0664062 2.976562 -0.25 2.71875 -0.65625 C 2.09375 -1.582031 1.597656 -2.554688 1.234375 -3.578125 C 0.878906 -4.597656 0.703125 -5.492188 0.703125 -6.265625 C 0.703125 -6.972656 0.867188 -7.554688 1.203125 -8.015625 C 1.535156 -8.472656 1.96875 -8.703125 2.5 -8.703125 C 3.257812 -8.703125 4.164062 -7.882812 5.21875 -6.25 C 5.53125 -5.769531 5.769531 -5.410156 5.9375 -5.171875 C 6.414062 -4.453125 7.078125 -3.878906 7.921875 -3.453125 C 8.765625 -3.023438 9.640625 -2.8125 10.546875 -2.8125 C 11.367188 -2.8125 12.023438 -3 12.515625 -3.375 C 13.015625 -3.757812 13.265625 -4.273438 13.265625 -4.921875 C 13.265625 -6.023438 11.679688 -7.367188 8.515625 -8.953125 L 8.265625 -9.078125 C 5.453125 -10.429688 3.597656 -11.640625 2.703125 -12.703125 C 1.816406 -13.765625 1.375 -15.097656 1.375 -16.703125 Z M 1.375 -16.703125 "/></g></g></g></svg>