<svg xmlns="http://www.w3.org/2000/svg" xmlns:xlink="http://www.w3.org/1999/xlink" width="1366" zoomAndPan="magnify" viewBox="0 0 1024.5 576" height="768" preserveAspectRatio="xMidYMid meet" version="1.2"><defs><clipPath id="8c2dfc31c7"><path d="M 0 0.140625 L 1024 0.140625 L 1024 575.859375 L 0 575.859375 Z M 0 0.140625 "/></clipPath><clipPath id="a3478928dd"><path d="M 29.40625 17.164062 L 444.441406 17.164062 L 444.441406 162.027344 L 29.40625 162.027344 Z M 29.40625 17.164062 "/></clipPath><clipPath id="8b6e084fc1"><path d="M 385.511719 17.164062 L 50.980469 17.164062 C 39.066406 17.164062 29.40625 26.824219 29.40625 38.742188 L 29.40625 140.542969 C 29.40625 152.457031 39.066406 162.117188 50.980469 162.117188 L 423.128906 162.117188 C 435.042969 162.117188 444.703125 152.457031 444.703125 140.542969 L 444.703125 80.789062 C 444.703125 75.484375 442.746094 70.363281 439.207031 66.40625 L 401.589844 24.355469 C 397.496094 19.78125 391.648438 17.164062 385.511719 17.164062 Z M 385.511719 17.164062 "/></clipPath><linearGradient x1="0.00344813" gradientTransform="matrix(0.565867,0,0,0.565867,29.403386,17.164849)" y1="128.001007" x2="733.456596" gradientUnits="userSpaceOnUse" y2="128.001007" id="7362626ec8"><stop style="stop-color:#0cc0df;stop-opacity:1;" offset="0"/><stop style="stop-color:#0dc0df;stop-opacity:1;" offset="0.00390625"/><stop style="stop-color:#0ec0de;stop-opacity:1;" offset="0.0078125"/><stop style="stop-color:#0fc0de;stop-opacity:1;" offset="0.0117188"/><stop style="stop-color:#10c0dd;stop-opacity:1;" offset="0.015625"/><stop style="stop-color:#11c1dd;stop-opacity:1;" offset="0.0195312"/><stop style="stop-color:#12c1dc;stop-opacity:1;" offset="0.0234375"/><stop style="stop-color:#13c1db;stop-opacity:1;" offset="0.0273438"/><stop style="stop-color:#14c1db;stop-opacity:1;" offset="0.03125"/><stop style="stop-color:#15c1da;stop-opacity:1;" offset="0.0351562"/><stop style="stop-color:#15c1da;stop-opacity:1;" offset="0.0390625"/><stop style="stop-color:#16c1d9;stop-opacity:1;" offset="0.0429688"/><stop style="stop-color:#17c1d9;stop-opacity:1;" offset="0.046875"/><stop style="stop-color:#18c2d8;stop-opacity:1;" offset="0.0507813"/><stop style="stop-color:#19c2d8;stop-opacity:1;" offset="0.0546875"/><stop style="stop-color:#1ac2d7;stop-opacity:1;" offset="0.0585938"/><stop style="stop-color:#1bc2d7;stop-opacity:1;" offset="0.0625"/><stop style="stop-color:#1cc2d6;stop-opacity:1;" offset="0.0664063"/><stop style="stop-color:#1dc2d6;stop-opacity:1;" offset="0.0703125"/><stop style="stop-color:#1ec2d5;stop-opacity:1;" offset="0.0742188"/><stop style="stop-color:#1fc2d5;stop-opacity:1;" offset="0.078125"/><stop style="stop-color:#20c2d4;stop-opacity:1;" offset="0.0820313"/><stop style="stop-color:#21c3d4;stop-opacity:1;" offset="0.0859375"/><stop style="stop-color:#22c3d3;stop-opacity:1;" offset="0.0898438"/><stop style="stop-color:#23c3d3;stop-opacity:1;" offset="0.09375"/><stop style="stop-color:#24c3d2;stop-opacity:1;" offset="0.0976562"/><stop style="stop-color:#25c3d1;stop-opacity:1;" offset="0.101563"/><stop style="stop-color:#26c3d1;stop-opacity:1;" offset="0.105469"/><stop style="stop-color:#27c3d0;stop-opacity:1;" offset="0.109375"/><stop style="stop-color:#28c3d0;stop-opacity:1;" offset="0.113281"/><stop style="stop-color:#28c4cf;stop-opacity:1;" offset="0.117188"/><stop style="stop-color:#29c4cf;stop-opacity:1;" offset="0.121094"/><stop style="stop-color:#2ac4ce;stop-opacity:1;" offset="0.125"/><stop style="stop-color:#2bc4ce;stop-opacity:1;" offset="0.128906"/><stop style="stop-color:#2cc4cd;stop-opacity:1;" offset="0.132812"/><stop style="stop-color:#2dc4cd;stop-opacity:1;" offset="0.136719"/><stop style="stop-color:#2ec4cc;stop-opacity:1;" offset="0.140625"/><stop style="stop-color:#2fc4cc;stop-opacity:1;" offset="0.144531"/><stop style="stop-color:#30c4cb;stop-opacity:1;" offset="0.148438"/><stop style="stop-color:#31c5cb;stop-opacity:1;" offset="0.152344"/><stop style="stop-color:#32c5ca;stop-opacity:1;" offset="0.15625"/><stop style="stop-color:#33c5ca;stop-opacity:1;" offset="0.160156"/><stop style="stop-color:#34c5c9;stop-opacity:1;" offset="0.164063"/><stop style="stop-color:#35c5c9;stop-opacity:1;" offset="0.167969"/><stop style="stop-color:#36c5c8;stop-opacity:1;" offset="0.171875"/><stop style="stop-color:#37c5c8;stop-opacity:1;" offset="0.175781"/><stop style="stop-color:#38c5c7;stop-opacity:1;" offset="0.179688"/><stop style="stop-color:#39c6c6;stop-opacity:1;" offset="0.183594"/><stop style="stop-color:#3ac6c6;stop-opacity:1;" offset="0.1875"/><stop style="stop-color:#3ac6c5;stop-opacity:1;" offset="0.191406"/><stop style="stop-color:#3bc6c5;stop-opacity:1;" offset="0.195313"/><stop style="stop-color:#3cc6c4;stop-opacity:1;" offset="0.199219"/><stop style="stop-color:#3dc6c4;stop-opacity:1;" offset="0.203125"/><stop style="stop-color:#3ec6c3;stop-opacity:1;" offset="0.207031"/><stop style="stop-color:#3fc6c3;stop-opacity:1;" offset="0.210938"/><stop style="stop-color:#40c6c2;stop-opacity:1;" offset="0.214844"/><stop style="stop-color:#41c7c2;stop-opacity:1;" offset="0.21875"/><stop style="stop-color:#42c7c1;stop-opacity:1;" offset="0.222656"/><stop style="stop-color:#43c7c1;stop-opacity:1;" offset="0.226563"/><stop style="stop-color:#44c7c0;stop-opacity:1;" offset="0.230469"/><stop style="stop-color:#45c7c0;stop-opacity:1;" offset="0.234375"/><stop style="stop-color:#46c7bf;stop-opacity:1;" offset="0.238281"/><stop style="stop-color:#47c7bf;stop-opacity:1;" offset="0.242188"/><stop style="stop-color:#48c7be;stop-opacity:1;" offset="0.246094"/><stop style="stop-color:#49c8be;stop-opacity:1;" offset="0.25"/><stop style="stop-color:#4ac8bd;stop-opacity:1;" offset="0.253906"/><stop style="stop-color:#4bc8bd;stop-opacity:1;" offset="0.257812"/><stop style="stop-color:#4cc8bc;stop-opacity:1;" offset="0.261719"/><stop style="stop-color:#4dc8bb;stop-opacity:1;" offset="0.265625"/><stop style="stop-color:#4dc8bb;stop-opacity:1;" offset="0.269531"/><stop style="stop-color:#4ec8ba;stop-opacity:1;" offset="0.273438"/><stop style="stop-color:#4fc8ba;stop-opacity:1;" offset="0.277344"/><stop style="stop-color:#50c8b9;stop-opacity:1;" offset="0.28125"/><stop style="stop-color:#51c9b9;stop-opacity:1;" offset="0.285156"/><stop style="stop-color:#52c9b8;stop-opacity:1;" offset="0.289062"/><stop style="stop-color:#53c9b8;stop-opacity:1;" offset="0.292969"/><stop style="stop-color:#54c9b7;stop-opacity:1;" offset="0.296875"/><stop style="stop-color:#55c9b7;stop-opacity:1;" offset="0.300781"/><stop style="stop-color:#56c9b6;stop-opacity:1;" offset="0.304687"/><stop style="stop-color:#57c9b6;stop-opacity:1;" offset="0.308594"/><stop style="stop-color:#58c9b5;stop-opacity:1;" offset="0.3125"/><stop style="stop-color:#59cab5;stop-opacity:1;" offset="0.316406"/><stop style="stop-color:#5acab4;stop-opacity:1;" offset="0.320312"/><stop style="stop-color:#5bcab4;stop-opacity:1;" offset="0.324219"/><stop style="stop-color:#5ccab3;stop-opacity:1;" offset="0.328125"/><stop style="stop-color:#5dcab3;stop-opacity:1;" offset="0.332031"/><stop style="stop-color:#5ecab2;stop-opacity:1;" offset="0.335938"/><stop style="stop-color:#5fcab2;stop-opacity:1;" offset="0.339844"/><stop style="stop-color:#60cab1;stop-opacity:1;" offset="0.34375"/><stop style="stop-color:#60cab0;stop-opacity:1;" offset="0.347656"/><stop style="stop-color:#61cbb0;stop-opacity:1;" offset="0.351562"/><stop style="stop-color:#62cbaf;stop-opacity:1;" offset="0.355469"/><stop style="stop-color:#63cbaf;stop-opacity:1;" offset="0.359375"/><stop style="stop-color:#64cbae;stop-opacity:1;" offset="0.363281"/><stop style="stop-color:#65cbae;stop-opacity:1;" offset="0.367188"/><stop style="stop-color:#66cbad;stop-opacity:1;" offset="0.371094"/><stop style="stop-color:#67cbad;stop-opacity:1;" offset="0.375"/><stop style="stop-color:#68cbac;stop-opacity:1;" offset="0.378906"/><stop style="stop-color:#69ccac;stop-opacity:1;" offset="0.382812"/><stop style="stop-color:#6accab;stop-opacity:1;" offset="0.386719"/><stop style="stop-color:#6bccab;stop-opacity:1;" offset="0.390625"/><stop style="stop-color:#6cccaa;stop-opacity:1;" offset="0.394531"/><stop style="stop-color:#6dccaa;stop-opacity:1;" offset="0.398437"/><stop style="stop-color:#6ecca9;stop-opacity:1;" offset="0.402344"/><stop style="stop-color:#6fcca9;stop-opacity:1;" offset="0.40625"/><stop style="stop-color:#70cca8;stop-opacity:1;" offset="0.410156"/><stop style="stop-color:#71cca8;stop-opacity:1;" offset="0.414062"/><stop style="stop-color:#72cda7;stop-opacity:1;" offset="0.417969"/><stop style="stop-color:#73cda7;stop-opacity:1;" offset="0.421875"/><stop style="stop-color:#73cda6;stop-opacity:1;" offset="0.425781"/><stop style="stop-color:#74cda5;stop-opacity:1;" offset="0.429688"/><stop style="stop-color:#75cda5;stop-opacity:1;" offset="0.433594"/><stop style="stop-color:#76cda4;stop-opacity:1;" offset="0.4375"/><stop style="stop-color:#77cda4;stop-opacity:1;" offset="0.441406"/><stop style="stop-color:#78cda3;stop-opacity:1;" offset="0.445313"/><stop style="stop-color:#79cea3;stop-opacity:1;" offset="0.449219"/><stop style="stop-color:#7acea2;stop-opacity:1;" offset="0.453125"/><stop style="stop-color:#7bcea2;stop-opacity:1;" offset="0.457031"/><stop style="stop-color:#7ccea1;stop-opacity:1;" offset="0.460938"/><stop style="stop-color:#7dcea1;stop-opacity:1;" offset="0.464844"/><stop style="stop-color:#7ecea0;stop-opacity:1;" offset="0.46875"/><stop style="stop-color:#7fcea0;stop-opacity:1;" offset="0.472656"/><stop style="stop-color:#80ce9f;stop-opacity:1;" offset="0.476562"/><stop style="stop-color:#81ce9f;stop-opacity:1;" offset="0.480469"/><stop style="stop-color:#82cf9e;stop-opacity:1;" offset="0.484375"/><stop style="stop-color:#83cf9e;stop-opacity:1;" offset="0.488281"/><stop style="stop-color:#84cf9d;stop-opacity:1;" offset="0.492188"/><stop style="stop-color:#85cf9d;stop-opacity:1;" offset="0.496094"/><stop style="stop-color:#85cf9c;stop-opacity:1;" offset="0.5"/><stop style="stop-color:#86cf9c;stop-opacity:1;" offset="0.503906"/><stop style="stop-color:#87cf9b;stop-opacity:1;" offset="0.507813"/><stop style="stop-color:#88cf9a;stop-opacity:1;" offset="0.511719"/><stop style="stop-color:#89d09a;stop-opacity:1;" offset="0.515625"/><stop style="stop-color:#8ad099;stop-opacity:1;" offset="0.519531"/><stop style="stop-color:#8bd099;stop-opacity:1;" offset="0.523438"/><stop style="stop-color:#8cd098;stop-opacity:1;" offset="0.527344"/><stop style="stop-color:#8dd098;stop-opacity:1;" offset="0.53125"/><stop style="stop-color:#8ed097;stop-opacity:1;" offset="0.535156"/><stop style="stop-color:#8fd097;stop-opacity:1;" offset="0.539063"/><stop style="stop-color:#90d096;stop-opacity:1;" offset="0.542969"/><stop style="stop-color:#91d096;stop-opacity:1;" offset="0.546875"/><stop style="stop-color:#92d195;stop-opacity:1;" offset="0.550781"/><stop style="stop-color:#93d195;stop-opacity:1;" offset="0.554688"/><stop style="stop-color:#94d194;stop-opacity:1;" offset="0.558594"/><stop style="stop-color:#95d194;stop-opacity:1;" offset="0.5625"/><stop style="stop-color:#96d193;stop-opacity:1;" offset="0.566406"/><stop style="stop-color:#97d193;stop-opacity:1;" offset="0.570312"/><stop style="stop-color:#98d192;stop-opacity:1;" offset="0.574219"/><stop style="stop-color:#98d192;stop-opacity:1;" offset="0.578125"/><stop style="stop-color:#99d291;stop-opacity:1;" offset="0.582031"/><stop style="stop-color:#9ad291;stop-opacity:1;" offset="0.585938"/><stop style="stop-color:#9bd290;stop-opacity:1;" offset="0.589844"/><stop style="stop-color:#9cd28f;stop-opacity:1;" offset="0.59375"/><stop style="stop-color:#9dd28f;stop-opacity:1;" offset="0.597656"/><stop style="stop-color:#9ed28e;stop-opacity:1;" offset="0.601562"/><stop style="stop-color:#9fd28e;stop-opacity:1;" offset="0.605469"/><stop style="stop-color:#a0d28d;stop-opacity:1;" offset="0.609375"/><stop style="stop-color:#a1d28d;stop-opacity:1;" offset="0.613281"/><stop style="stop-color:#a2d38c;stop-opacity:1;" offset="0.617188"/><stop style="stop-color:#a3d38c;stop-opacity:1;" offset="0.621094"/><stop style="stop-color:#a4d38b;stop-opacity:1;" offset="0.625"/><stop style="stop-color:#a5d38b;stop-opacity:1;" offset="0.628906"/><stop style="stop-color:#a6d38a;stop-opacity:1;" offset="0.632812"/><stop style="stop-color:#a7d38a;stop-opacity:1;" offset="0.636719"/><stop style="stop-color:#a8d389;stop-opacity:1;" offset="0.640625"/><stop style="stop-color:#a9d389;stop-opacity:1;" offset="0.644531"/><stop style="stop-color:#aad488;stop-opacity:1;" offset="0.648438"/><stop style="stop-color:#abd488;stop-opacity:1;" offset="0.652344"/><stop style="stop-color:#abd487;stop-opacity:1;" offset="0.65625"/><stop style="stop-color:#acd487;stop-opacity:1;" offset="0.660156"/><stop style="stop-color:#add486;stop-opacity:1;" offset="0.664063"/><stop style="stop-color:#aed486;stop-opacity:1;" offset="0.667969"/><stop style="stop-color:#afd485;stop-opacity:1;" offset="0.671875"/><stop style="stop-color:#b0d484;stop-opacity:1;" offset="0.675781"/><stop style="stop-color:#b1d484;stop-opacity:1;" offset="0.679688"/><stop style="stop-color:#b2d583;stop-opacity:1;" offset="0.683594"/><stop style="stop-color:#b3d583;stop-opacity:1;" offset="0.6875"/><stop style="stop-color:#b4d582;stop-opacity:1;" offset="0.691406"/><stop style="stop-color:#b5d582;stop-opacity:1;" offset="0.695312"/><stop style="stop-color:#b6d581;stop-opacity:1;" offset="0.699219"/><stop style="stop-color:#b7d581;stop-opacity:1;" offset="0.703125"/><stop style="stop-color:#b8d580;stop-opacity:1;" offset="0.707031"/><stop style="stop-color:#b9d580;stop-opacity:1;" offset="0.710937"/><stop style="stop-color:#bad67f;stop-opacity:1;" offset="0.714844"/><stop style="stop-color:#bbd67f;stop-opacity:1;" offset="0.71875"/><stop style="stop-color:#bcd67e;stop-opacity:1;" offset="0.722656"/><stop style="stop-color:#bdd67e;stop-opacity:1;" offset="0.726562"/><stop style="stop-color:#bdd67d;stop-opacity:1;" offset="0.730469"/><stop style="stop-color:#bed67d;stop-opacity:1;" offset="0.734375"/><stop style="stop-color:#bfd67c;stop-opacity:1;" offset="0.738281"/><stop style="stop-color:#c0d67c;stop-opacity:1;" offset="0.742188"/><stop style="stop-color:#c1d67b;stop-opacity:1;" offset="0.746094"/><stop style="stop-color:#c2d77b;stop-opacity:1;" offset="0.75"/><stop style="stop-color:#c3d77a;stop-opacity:1;" offset="0.753906"/><stop style="stop-color:#c4d779;stop-opacity:1;" offset="0.757812"/><stop style="stop-color:#c5d779;stop-opacity:1;" offset="0.761719"/><stop style="stop-color:#c6d778;stop-opacity:1;" offset="0.765625"/><stop style="stop-color:#c7d778;stop-opacity:1;" offset="0.769531"/><stop style="stop-color:#c8d777;stop-opacity:1;" offset="0.773438"/><stop style="stop-color:#c9d777;stop-opacity:1;" offset="0.777344"/><stop style="stop-color:#cad876;stop-opacity:1;" offset="0.78125"/><stop style="stop-color:#cbd876;stop-opacity:1;" offset="0.785156"/><stop style="stop-color:#ccd875;stop-opacity:1;" offset="0.789062"/><stop style="stop-color:#cdd875;stop-opacity:1;" offset="0.792969"/><stop style="stop-color:#ced874;stop-opacity:1;" offset="0.796875"/><stop style="stop-color:#cfd874;stop-opacity:1;" offset="0.800781"/><stop style="stop-color:#d0d873;stop-opacity:1;" offset="0.804688"/><stop style="stop-color:#d0d873;stop-opacity:1;" offset="0.808594"/><stop style="stop-color:#d1d872;stop-opacity:1;" offset="0.8125"/><stop style="stop-color:#d2d972;stop-opacity:1;" offset="0.816406"/><stop style="stop-color:#d3d971;stop-opacity:1;" offset="0.820312"/><stop style="stop-color:#d4d971;stop-opacity:1;" offset="0.824219"/><stop style="stop-color:#d5d970;stop-opacity:1;" offset="0.828125"/><stop style="stop-color:#d6d970;stop-opacity:1;" offset="0.832031"/><stop style="stop-color:#d7d96f;stop-opacity:1;" offset="0.835937"/><stop style="stop-color:#d8d96e;stop-opacity:1;" offset="0.839844"/><stop style="stop-color:#d9d96e;stop-opacity:1;" offset="0.84375"/><stop style="stop-color:#dada6d;stop-opacity:1;" offset="0.847656"/><stop style="stop-color:#dbda6d;stop-opacity:1;" offset="0.851562"/><stop style="stop-color:#dcda6c;stop-opacity:1;" offset="0.855469"/><stop style="stop-color:#ddda6c;stop-opacity:1;" offset="0.859375"/><stop style="stop-color:#deda6b;stop-opacity:1;" offset="0.863281"/><stop style="stop-color:#dfda6b;stop-opacity:1;" offset="0.867187"/><stop style="stop-color:#e0da6a;stop-opacity:1;" offset="0.871094"/><stop style="stop-color:#e1da6a;stop-opacity:1;" offset="0.875"/><stop style="stop-color:#e2da69;stop-opacity:1;" offset="0.878906"/><stop style="stop-color:#e3db69;stop-opacity:1;" offset="0.882812"/><stop style="stop-color:#e3db68;stop-opacity:1;" offset="0.886719"/><stop style="stop-color:#e4db68;stop-opacity:1;" offset="0.890625"/><stop style="stop-color:#e5db67;stop-opacity:1;" offset="0.894531"/><stop style="stop-color:#e6db67;stop-opacity:1;" offset="0.898438"/><stop style="stop-color:#e7db66;stop-opacity:1;" offset="0.902344"/><stop style="stop-color:#e8db66;stop-opacity:1;" offset="0.90625"/><stop style="stop-color:#e9db65;stop-opacity:1;" offset="0.910156"/><stop style="stop-color:#eadc65;stop-opacity:1;" offset="0.914062"/><stop style="stop-color:#ebdc64;stop-opacity:1;" offset="0.917969"/><stop style="stop-color:#ecdc63;stop-opacity:1;" offset="0.921875"/><stop style="stop-color:#eddc63;stop-opacity:1;" offset="0.925781"/><stop style="stop-color:#eedc62;stop-opacity:1;" offset="0.929688"/><stop style="stop-color:#efdc62;stop-opacity:1;" offset="0.933594"/><stop style="stop-color:#f0dc61;stop-opacity:1;" offset="0.9375"/><stop style="stop-color:#f1dc61;stop-opacity:1;" offset="0.941406"/><stop style="stop-color:#f2dc60;stop-opacity:1;" offset="0.945312"/><stop style="stop-color:#f3dd60;stop-opacity:1;" offset="0.949219"/><stop style="stop-color:#f4dd5f;stop-opacity:1;" offset="0.953125"/><stop style="stop-color:#f5dd5f;stop-opacity:1;" offset="0.957031"/><stop style="stop-color:#f6dd5e;stop-opacity:1;" offset="0.960938"/><stop style="stop-color:#f6dd5e;stop-opacity:1;" offset="0.964844"/><stop style="stop-color:#f7dd5d;stop-opacity:1;" offset="0.96875"/><stop style="stop-color:#f8dd5d;stop-opacity:1;" offset="0.972656"/><stop style="stop-color:#f9dd5c;stop-opacity:1;" offset="0.976563"/><stop style="stop-color:#fade5c;stop-opacity:1;" offset="0.980469"/><stop style="stop-color:#fbde5b;stop-opacity:1;" offset="0.984375"/><stop style="stop-color:#fcde5b;stop-opacity:1;" offset="0.988281"/><stop style="stop-color:#fdde5a;stop-opacity:1;" offset="0.992188"/><stop style="stop-color:#fede5a;stop-opacity:1;" offset="0.996094"/><stop style="stop-color:#ffde59;stop-opacity:1;" offset="1"/></linearGradient><clipPath id="62391df2a7"><path d="M 118.058594 108 L 394.496094 108 L 394.496094 113 L 118.058594 113 Z M 417.289062 108 L 425 108 L 425 113 L 417.289062 113 Z M 43 108 L 95.261719 108 L 95.261719 113 L 43 113 Z M 43 108 "/></clipPath></defs><g id="6cbe718097"><g clip-rule="nonzero" clip-path="url(#8c2dfc31c7)"><path style=" stroke:none;fill-rule:nonzero;fill:#ffffff;fill-opacity:1;" d="M 0 0.140625 L 1024 0.140625 L 1024 575.859375 L 0 575.859375 Z M 0 0.140625 "/><path style=" stroke:none;fill-rule:nonzero;fill:#fdfaf0;fill-opacity:1;" d="M 0 0.140625 L 1024 0.140625 L 1024 575.859375 L 0 575.859375 Z M 0 0.140625 "/></g><g clip-rule="nonzero" clip-path="url(#a3478928dd)"><g clip-rule="nonzero" clip-path="url(#8b6e084fc1)"><path style=" stroke:none;fill-rule:nonzero;fill:url(#7362626ec8);" d="M 29.40625 17.164062 L 29.40625 162.027344 L 444.441406 162.027344 L 444.441406 17.164062 Z M 29.40625 17.164062 "/></g></g><g clip-rule="nonzero" clip-path="url(#62391df2a7)"><path style=" stroke:none;fill-rule:nonzero;fill:#000000;fill-opacity:1;" d="M 43.023438 108.234375 L 424.527344 108.234375 L 424.527344 112.734375 L 43.023438 112.734375 Z M 43.023438 108.234375 "/></g><g style="fill:#000000;fill-opacity:1;"><g transform="translate(43.023807, 105.236203)"><path style="stroke:none" d="M 12.515625 -14.234375 C 12.515625 -13.796875 12.503906 -13.203125 12.484375 -12.453125 C 12.472656 -11.710938 12.46875 -11.179688 12.46875 -10.859375 C 12.46875 -9.046875 12.507812 -7.660156 12.59375 -6.703125 C 12.675781 -5.753906 12.800781 -5.164062 12.96875 -4.9375 C 13.070312 -4.789062 13.578125 -4.488281 14.484375 -4.03125 C 15.390625 -3.570312 15.84375 -2.945312 15.84375 -2.15625 C 15.84375 -1.269531 15.328125 -0.648438 14.296875 -0.296875 C 13.265625 0.046875 11.304688 0.21875 8.421875 0.21875 C 5.460938 0.21875 3.472656 0.046875 2.453125 -0.296875 C 1.429688 -0.640625 0.921875 -1.257812 0.921875 -2.15625 C 0.921875 -2.945312 1.367188 -3.570312 2.265625 -4.03125 C 3.171875 -4.488281 3.675781 -4.785156 3.78125 -4.921875 C 4 -5.234375 4.164062 -6.53125 4.28125 -8.8125 C 4.40625 -11.101562 4.46875 -14.179688 4.46875 -18.046875 C 4.46875 -21.109375 4.40625 -23.554688 4.28125 -25.390625 C 4.164062 -27.234375 4 -28.316406 3.78125 -28.640625 C 3.675781 -28.785156 3.171875 -29.082031 2.265625 -29.53125 C 1.367188 -29.976562 0.921875 -30.601562 0.921875 -31.40625 C 0.921875 -32.125 1.234375 -32.671875 1.859375 -33.046875 C 2.492188 -33.421875 3.425781 -33.609375 4.65625 -33.609375 C 5.445312 -33.609375 6.398438 -33.59375 7.515625 -33.5625 C 8.628906 -33.53125 9.347656 -33.515625 9.671875 -33.515625 C 10.816406 -33.515625 12.367188 -33.554688 14.328125 -33.640625 C 16.285156 -33.734375 17.660156 -33.78125 18.453125 -33.78125 C 22.273438 -33.78125 25.125 -33.007812 27 -31.46875 C 28.882812 -29.9375 29.828125 -27.613281 29.828125 -24.5 C 29.828125 -21.125 28.753906 -18.519531 26.609375 -16.6875 C 24.460938 -14.863281 21.40625 -13.953125 17.4375 -13.953125 C 16.6875 -13.953125 15.90625 -13.972656 15.09375 -14.015625 C 14.289062 -14.066406 13.429688 -14.140625 12.515625 -14.234375 Z M 12.515625 -20.71875 L 12.515625 -18.796875 C 12.742188 -18.765625 12.976562 -18.75 13.21875 -18.75 C 13.457031 -18.75 13.820312 -18.75 14.3125 -18.75 C 17.007812 -18.75 18.925781 -19.175781 20.0625 -20.03125 C 21.207031 -20.882812 21.78125 -22.304688 21.78125 -24.296875 C 21.78125 -26.035156 21.265625 -27.335938 20.234375 -28.203125 C 19.210938 -29.078125 17.679688 -29.515625 15.640625 -29.515625 C 14.742188 -29.515625 14.097656 -29.421875 13.703125 -29.234375 C 13.304688 -29.054688 13.015625 -28.75 12.828125 -28.3125 C 12.710938 -27.96875 12.628906 -27.351562 12.578125 -26.46875 C 12.535156 -25.59375 12.515625 -23.675781 12.515625 -20.71875 Z M 12.515625 -20.71875 "/></g></g><g style="fill:#000000;fill-opacity:1;"><g transform="translate(72.940255, 105.236203)"><path style="stroke:none" d="M 15.59375 -14.046875 L 15.59375 -16.203125 C 15.59375 -17.691406 15.410156 -18.710938 15.046875 -19.265625 C 14.679688 -19.828125 14.039062 -20.109375 13.125 -20.109375 C 12.15625 -20.109375 11.082031 -19.539062 9.90625 -18.40625 C 9.800781 -18.300781 9.722656 -18.226562 9.671875 -18.1875 C 9.609375 -18.132812 9.523438 -18.054688 9.421875 -17.953125 C 7.816406 -16.441406 6.390625 -15.6875 5.140625 -15.6875 C 4.347656 -15.6875 3.722656 -15.898438 3.265625 -16.328125 C 2.804688 -16.765625 2.578125 -17.367188 2.578125 -18.140625 C 2.578125 -19.742188 3.671875 -21.144531 5.859375 -22.34375 C 8.046875 -23.550781 10.742188 -24.15625 13.953125 -24.15625 C 17.179688 -24.15625 19.535156 -23.535156 21.015625 -22.296875 C 22.492188 -21.066406 23.234375 -19.113281 23.234375 -16.4375 C 23.234375 -15.625 23.203125 -14.59375 23.140625 -13.34375 C 23.085938 -12.101562 23.0625 -11.257812 23.0625 -10.8125 L 23.0625 -7.46875 C 23.0625 -6.800781 23.097656 -6.316406 23.171875 -6.015625 C 23.242188 -5.722656 23.378906 -5.515625 23.578125 -5.390625 C 23.742188 -5.273438 24.234375 -5.082031 25.046875 -4.8125 C 25.867188 -4.550781 26.28125 -4.144531 26.28125 -3.59375 C 26.28125 -3.039062 26.078125 -2.515625 25.671875 -2.015625 C 25.273438 -1.523438 24.664062 -1.039062 23.84375 -0.5625 C 23.164062 -0.175781 22.488281 0.117188 21.8125 0.328125 C 21.132812 0.546875 20.507812 0.65625 19.9375 0.65625 C 19.09375 0.65625 18.257812 0.222656 17.4375 -0.640625 C 16.613281 -1.503906 16.160156 -1.9375 16.078125 -1.9375 C 15.992188 -1.9375 15.78125 -1.804688 15.4375 -1.546875 C 13.476562 -0.078125 11.375 0.65625 9.125 0.65625 C 6.6875 0.65625 4.734375 0 3.265625 -1.3125 C 1.796875 -2.625 1.0625 -4.367188 1.0625 -6.546875 C 1.0625 -9.003906 1.992188 -10.910156 3.859375 -12.265625 C 5.734375 -13.628906 8.359375 -14.3125 11.734375 -14.3125 C 12.273438 -14.3125 12.863281 -14.289062 13.5 -14.25 C 14.144531 -14.207031 14.84375 -14.140625 15.59375 -14.046875 Z M 15.546875 -7.125 L 15.546875 -10.71875 C 15.265625 -10.789062 14.972656 -10.847656 14.671875 -10.890625 C 14.378906 -10.929688 14.046875 -10.953125 13.671875 -10.953125 C 12.273438 -10.953125 11.203125 -10.632812 10.453125 -10 C 9.710938 -9.375 9.34375 -8.46875 9.34375 -7.28125 C 9.34375 -6.257812 9.613281 -5.457031 10.15625 -4.875 C 10.707031 -4.289062 11.460938 -4 12.421875 -4 C 13.492188 -4 14.28125 -4.253906 14.78125 -4.765625 C 15.289062 -5.273438 15.546875 -6.0625 15.546875 -7.125 Z M 15.546875 -7.125 "/></g></g><g style="fill:#000000;fill-opacity:1;"><g transform="translate(98.810902, 105.236203)"><path style="stroke:none" d="M 11.421875 -19.1875 C 11.421875 -18.832031 11.921875 -17.539062 12.921875 -15.3125 L 13.3125 -14.453125 C 14.25 -12.304688 14.882812 -10.929688 15.21875 -10.328125 C 15.5625 -9.734375 15.816406 -9.4375 15.984375 -9.4375 C 16.054688 -9.4375 16.148438 -9.539062 16.265625 -9.75 C 16.390625 -9.957031 16.539062 -10.300781 16.71875 -10.78125 C 16.976562 -11.457031 17.332031 -12.390625 17.78125 -13.578125 C 18.875 -16.453125 19.421875 -18.125 19.421875 -18.59375 C 19.421875 -18.863281 19.375 -19.066406 19.28125 -19.203125 C 19.195312 -19.347656 18.953125 -19.519531 18.546875 -19.71875 C 18.003906 -19.96875 17.628906 -20.21875 17.421875 -20.46875 C 17.222656 -20.726562 17.125 -21.050781 17.125 -21.4375 C 17.125 -22.1875 17.539062 -22.726562 18.375 -23.0625 C 19.207031 -23.40625 20.582031 -23.578125 22.5 -23.578125 C 24.207031 -23.578125 25.460938 -23.398438 26.265625 -23.046875 C 27.078125 -22.691406 27.484375 -22.15625 27.484375 -21.4375 C 27.484375 -21.082031 27.367188 -20.78125 27.140625 -20.53125 C 26.910156 -20.28125 26.367188 -19.96875 25.515625 -19.59375 C 24.554688 -19.195312 23.796875 -18.453125 23.234375 -17.359375 C 23.148438 -17.160156 23.078125 -17.007812 23.015625 -16.90625 C 22.566406 -16 21.523438 -13.460938 19.890625 -9.296875 C 18.253906 -5.140625 16.796875 -1.53125 15.515625 1.53125 C 14.390625 4.207031 13.019531 6.222656 11.40625 7.578125 C 9.789062 8.941406 7.953125 9.625 5.890625 9.625 C 4.421875 9.625 3.25 9.234375 2.375 8.453125 C 1.5 7.671875 1.0625 6.632812 1.0625 5.34375 C 1.0625 4.382812 1.367188 3.578125 1.984375 2.921875 C 2.609375 2.265625 3.367188 1.9375 4.265625 1.9375 C 4.847656 1.9375 5.375 2.046875 5.84375 2.265625 C 6.320312 2.492188 6.703125 2.8125 6.984375 3.21875 C 7.078125 3.332031 7.191406 3.488281 7.328125 3.6875 C 7.742188 4.332031 8.171875 4.65625 8.609375 4.65625 C 9.390625 4.65625 10.015625 4.296875 10.484375 3.578125 C 10.953125 2.867188 11.1875 1.921875 11.1875 0.734375 C 11.1875 -0.710938 10.570312 -2.765625 9.34375 -5.421875 L 9.21875 -5.75 C 7.695312 -9.050781 6.503906 -11.625 5.640625 -13.46875 C 4.785156 -15.320312 4.191406 -16.570312 3.859375 -17.21875 C 3.804688 -17.332031 3.734375 -17.484375 3.640625 -17.671875 C 3.160156 -18.628906 2.578125 -19.226562 1.890625 -19.46875 C 1.847656 -19.476562 1.785156 -19.5 1.703125 -19.53125 C 0.503906 -19.96875 -0.09375 -20.5625 -0.09375 -21.3125 C -0.09375 -22.164062 0.414062 -22.765625 1.4375 -23.109375 C 2.46875 -23.453125 4.332031 -23.625 7.03125 -23.625 C 9.351562 -23.625 10.972656 -23.457031 11.890625 -23.125 C 12.804688 -22.800781 13.265625 -22.238281 13.265625 -21.4375 C 13.265625 -20.976562 12.957031 -20.550781 12.34375 -20.15625 C 11.726562 -19.769531 11.421875 -19.445312 11.421875 -19.1875 Z M 11.421875 -19.1875 "/></g></g><g style="fill:#000000;fill-opacity:1;"><g transform="translate(125.288419, 105.236203)"><path style="stroke:none" d="M 11.515625 -22.140625 L 11.515625 -20.71875 C 11.515625 -20.507812 11.535156 -20.347656 11.578125 -20.234375 C 11.617188 -20.128906 11.6875 -20.078125 11.78125 -20.078125 C 12.019531 -20.078125 12.363281 -20.351562 12.8125 -20.90625 C 13.144531 -21.289062 13.414062 -21.597656 13.625 -21.828125 C 14.28125 -22.484375 15.046875 -22.972656 15.921875 -23.296875 C 16.796875 -23.628906 17.78125 -23.796875 18.875 -23.796875 C 19.957031 -23.796875 20.941406 -23.628906 21.828125 -23.296875 C 22.710938 -22.972656 23.582031 -22.453125 24.4375 -21.734375 C 24.789062 -21.453125 25.144531 -21.066406 25.5 -20.578125 C 25.851562 -20.085938 26.097656 -19.84375 26.234375 -19.84375 C 26.441406 -19.84375 26.765625 -20.050781 27.203125 -20.46875 C 27.378906 -20.65625 27.519531 -20.800781 27.625 -20.90625 C 28.65625 -21.894531 29.695312 -22.625 30.75 -23.09375 C 31.800781 -23.5625 32.925781 -23.796875 34.125 -23.796875 C 35.351562 -23.796875 36.5 -23.566406 37.5625 -23.109375 C 38.625 -22.660156 39.484375 -22.03125 40.140625 -21.21875 C 40.828125 -20.375 41.320312 -19.320312 41.625 -18.0625 C 41.925781 -16.8125 42.078125 -15.050781 42.078125 -12.78125 L 42.078125 -9.265625 C 42.078125 -7.492188 42.101562 -6.269531 42.15625 -5.59375 C 42.21875 -4.914062 42.328125 -4.472656 42.484375 -4.265625 C 42.566406 -4.160156 42.988281 -3.898438 43.75 -3.484375 C 44.507812 -3.078125 44.890625 -2.546875 44.890625 -1.890625 C 44.890625 -1.097656 44.410156 -0.539062 43.453125 -0.21875 C 42.503906 0.101562 40.769531 0.265625 38.25 0.265625 C 35.71875 0.265625 33.972656 0.101562 33.015625 -0.21875 C 32.054688 -0.539062 31.578125 -1.097656 31.578125 -1.890625 C 31.578125 -2.585938 32.054688 -3.164062 33.015625 -3.625 C 33.390625 -3.800781 33.644531 -3.941406 33.78125 -4.046875 C 34.007812 -4.242188 34.164062 -4.660156 34.25 -5.296875 C 34.34375 -5.941406 34.390625 -7.234375 34.390625 -9.171875 C 34.390625 -12.921875 34.132812 -15.335938 33.625 -16.421875 C 33.113281 -17.503906 32.1875 -18.046875 30.84375 -18.046875 C 29.476562 -18.046875 28.460938 -17.40625 27.796875 -16.125 C 27.128906 -14.84375 26.796875 -12.890625 26.796875 -10.265625 C 26.796875 -8.296875 26.828125 -6.867188 26.890625 -5.984375 C 26.960938 -5.109375 27.078125 -4.535156 27.234375 -4.265625 C 27.328125 -4.160156 27.75 -3.898438 28.5 -3.484375 C 29.257812 -3.078125 29.640625 -2.546875 29.640625 -1.890625 C 29.640625 -1.097656 29.15625 -0.539062 28.1875 -0.21875 C 27.226562 0.101562 25.488281 0.265625 22.96875 0.265625 C 20.445312 0.265625 18.710938 0.101562 17.765625 -0.21875 C 16.816406 -0.539062 16.34375 -1.097656 16.34375 -1.890625 C 16.34375 -2.585938 16.8125 -3.164062 17.75 -3.625 C 18.113281 -3.800781 18.363281 -3.941406 18.5 -4.046875 C 18.738281 -4.253906 18.90625 -4.707031 19 -5.40625 C 19.101562 -6.113281 19.15625 -7.367188 19.15625 -9.171875 C 19.15625 -12.867188 18.894531 -15.269531 18.375 -16.375 C 17.851562 -17.488281 16.910156 -18.046875 15.546875 -18.046875 C 14.160156 -18.046875 13.140625 -17.378906 12.484375 -16.046875 C 11.835938 -14.722656 11.515625 -12.640625 11.515625 -9.796875 C 11.515625 -7.984375 11.546875 -6.664062 11.609375 -5.84375 C 11.671875 -5.03125 11.785156 -4.515625 11.953125 -4.296875 C 12.046875 -4.171875 12.460938 -3.898438 13.203125 -3.484375 C 13.941406 -3.078125 14.3125 -2.546875 14.3125 -1.890625 C 14.3125 -1.097656 13.835938 -0.539062 12.890625 -0.21875 C 11.941406 0.101562 10.207031 0.265625 7.6875 0.265625 C 5.164062 0.265625 3.421875 0.101562 2.453125 -0.21875 C 1.492188 -0.539062 1.015625 -1.097656 1.015625 -1.890625 C 1.015625 -2.585938 1.492188 -3.164062 2.453125 -3.625 C 2.828125 -3.800781 3.082031 -3.941406 3.21875 -4.046875 C 3.457031 -4.242188 3.625 -4.703125 3.71875 -5.421875 C 3.8125 -6.140625 3.859375 -7.832031 3.859375 -10.5 C 3.859375 -13.375 3.796875 -15.257812 3.671875 -16.15625 C 3.554688 -17.0625 3.351562 -17.625 3.0625 -17.84375 C 3 -17.882812 2.546875 -18.035156 1.703125 -18.296875 C 0.867188 -18.566406 0.453125 -19.066406 0.453125 -19.796875 C 0.453125 -20.160156 0.601562 -20.503906 0.90625 -20.828125 C 1.21875 -21.148438 1.679688 -21.453125 2.296875 -21.734375 C 3.671875 -22.378906 5.039062 -22.882812 6.40625 -23.25 C 7.78125 -23.613281 8.957031 -23.796875 9.9375 -23.796875 C 10.53125 -23.796875 10.941406 -23.679688 11.171875 -23.453125 C 11.398438 -23.222656 11.515625 -22.785156 11.515625 -22.140625 Z M 11.515625 -22.140625 "/></g></g><g style="fill:#000000;fill-opacity:1;"><g transform="translate(170.174328, 105.236203)"><path style="stroke:none" d="M 22 -11.328125 L 10.71875 -11.328125 C 10.195312 -11.328125 9.867188 -11.273438 9.734375 -11.171875 C 9.597656 -11.066406 9.53125 -10.875 9.53125 -10.59375 C 9.53125 -9 10.117188 -7.617188 11.296875 -6.453125 C 12.472656 -5.285156 13.90625 -4.703125 15.59375 -4.703125 C 16.851562 -4.703125 18.179688 -5.03125 19.578125 -5.6875 C 20.972656 -6.34375 21.78125 -6.671875 22 -6.671875 C 22.4375 -6.671875 22.804688 -6.539062 23.109375 -6.28125 C 23.421875 -6.019531 23.578125 -5.707031 23.578125 -5.34375 C 23.578125 -4.75 23.421875 -4.195312 23.109375 -3.6875 C 22.804688 -3.1875 22.28125 -2.644531 21.53125 -2.0625 C 20.425781 -1.175781 19.171875 -0.5 17.765625 -0.03125 C 16.367188 0.425781 14.894531 0.65625 13.34375 0.65625 C 9.738281 0.65625 6.8125 -0.46875 4.5625 -2.71875 C 2.3125 -4.976562 1.1875 -7.910156 1.1875 -11.515625 C 1.1875 -15.148438 2.347656 -18.144531 4.671875 -20.5 C 6.992188 -22.851562 9.945312 -24.03125 13.53125 -24.03125 C 16.644531 -24.03125 19.203125 -23.148438 21.203125 -21.390625 C 23.203125 -19.640625 24.203125 -17.414062 24.203125 -14.71875 C 24.203125 -13.300781 24.050781 -12.378906 23.75 -11.953125 C 23.457031 -11.535156 22.875 -11.328125 22 -11.328125 Z M 10.265625 -14.671875 L 16.203125 -14.671875 C 16.515625 -14.671875 16.738281 -14.726562 16.875 -14.84375 C 17.007812 -14.96875 17.078125 -15.191406 17.078125 -15.515625 C 17.078125 -16.890625 16.707031 -18.015625 15.96875 -18.890625 C 15.238281 -19.765625 14.304688 -20.203125 13.171875 -20.203125 C 12.140625 -20.203125 11.25 -19.726562 10.5 -18.78125 C 9.757812 -17.84375 9.390625 -16.691406 9.390625 -15.328125 C 9.390625 -15.085938 9.453125 -14.921875 9.578125 -14.828125 C 9.710938 -14.742188 9.941406 -14.691406 10.265625 -14.671875 Z M 10.265625 -14.671875 "/></g></g><g style="fill:#000000;fill-opacity:1;"><g transform="translate(195.213339, 105.236203)"><path style="stroke:none" d="M 11.515625 -22.140625 L 11.515625 -20.71875 C 11.515625 -20.507812 11.535156 -20.347656 11.578125 -20.234375 C 11.617188 -20.128906 11.6875 -20.078125 11.78125 -20.078125 C 12.019531 -20.078125 12.300781 -20.289062 12.625 -20.71875 C 12.820312 -20.976562 12.972656 -21.164062 13.078125 -21.28125 C 13.867188 -22.164062 14.738281 -22.804688 15.6875 -23.203125 C 16.644531 -23.597656 17.800781 -23.796875 19.15625 -23.796875 C 22.164062 -23.796875 24.335938 -22.957031 25.671875 -21.28125 C 27.003906 -19.601562 27.671875 -16.851562 27.671875 -13.03125 L 27.671875 -9.125 C 27.671875 -7.382812 27.695312 -6.1875 27.75 -5.53125 C 27.8125 -4.882812 27.921875 -4.460938 28.078125 -4.265625 C 28.160156 -4.160156 28.582031 -3.898438 29.34375 -3.484375 C 30.101562 -3.078125 30.484375 -2.546875 30.484375 -1.890625 C 30.484375 -1.097656 30.003906 -0.539062 29.046875 -0.21875 C 28.097656 0.101562 26.363281 0.265625 23.84375 0.265625 C 21.3125 0.265625 19.566406 0.101562 18.609375 -0.21875 C 17.648438 -0.539062 17.171875 -1.097656 17.171875 -1.890625 C 17.171875 -2.585938 17.648438 -3.164062 18.609375 -3.625 C 18.984375 -3.800781 19.238281 -3.941406 19.375 -4.046875 C 19.601562 -4.242188 19.757812 -4.660156 19.84375 -5.296875 C 19.9375 -5.929688 19.984375 -7.1875 19.984375 -9.0625 C 19.984375 -12.9375 19.703125 -15.425781 19.140625 -16.53125 C 18.585938 -17.632812 17.578125 -18.1875 16.109375 -18.1875 C 14.503906 -18.1875 13.335938 -17.507812 12.609375 -16.15625 C 11.878906 -14.8125 11.515625 -12.648438 11.515625 -9.671875 C 11.515625 -7.910156 11.546875 -6.628906 11.609375 -5.828125 C 11.671875 -5.023438 11.785156 -4.515625 11.953125 -4.296875 C 12.046875 -4.171875 12.460938 -3.898438 13.203125 -3.484375 C 13.941406 -3.078125 14.3125 -2.546875 14.3125 -1.890625 C 14.3125 -1.097656 13.835938 -0.539062 12.890625 -0.21875 C 11.941406 0.101562 10.207031 0.265625 7.6875 0.265625 C 5.164062 0.265625 3.421875 0.101562 2.453125 -0.21875 C 1.492188 -0.539062 1.015625 -1.097656 1.015625 -1.890625 C 1.015625 -2.585938 1.492188 -3.164062 2.453125 -3.625 C 2.828125 -3.800781 3.082031 -3.941406 3.21875 -4.046875 C 3.457031 -4.242188 3.625 -4.703125 3.71875 -5.421875 C 3.8125 -6.140625 3.859375 -7.832031 3.859375 -10.5 C 3.859375 -13.375 3.796875 -15.257812 3.671875 -16.15625 C 3.554688 -17.0625 3.351562 -17.625 3.0625 -17.84375 C 3 -17.882812 2.546875 -18.035156 1.703125 -18.296875 C 0.867188 -18.566406 0.453125 -19.066406 0.453125 -19.796875 C 0.453125 -20.160156 0.601562 -20.503906 0.90625 -20.828125 C 1.21875 -21.148438 1.679688 -21.453125 2.296875 -21.734375 C 3.671875 -22.378906 5.039062 -22.882812 6.40625 -23.25 C 7.78125 -23.613281 8.957031 -23.796875 9.9375 -23.796875 C 10.53125 -23.796875 10.941406 -23.679688 11.171875 -23.453125 C 11.398438 -23.222656 11.515625 -22.785156 11.515625 -22.140625 Z M 11.515625 -22.140625 "/></g></g><g style="fill:#000000;fill-opacity:1;"><g transform="translate(225.691703, 105.236203)"><path style="stroke:none" d="M 3.90625 -7.6875 L 4 -19.75 L 1.234375 -19.75 C 0.847656 -19.75 0.585938 -19.832031 0.453125 -20 C 0.328125 -20.164062 0.265625 -20.675781 0.265625 -21.53125 C 0.265625 -22.269531 0.8125 -23.035156 1.90625 -23.828125 C 2.132812 -23.992188 2.316406 -24.117188 2.453125 -24.203125 C 2.804688 -24.492188 3.320312 -24.890625 4 -25.390625 C 7.082031 -27.734375 9.128906 -28.90625 10.140625 -28.90625 C 10.722656 -28.90625 11.097656 -28.828125 11.265625 -28.671875 C 11.429688 -28.515625 11.515625 -28.035156 11.515625 -27.234375 L 11.515625 -23.421875 L 17.21875 -23.421875 C 17.695312 -23.421875 18.003906 -23.351562 18.140625 -23.21875 C 18.285156 -23.09375 18.359375 -22.820312 18.359375 -22.40625 C 18.359375 -21.207031 18.28125 -20.472656 18.125 -20.203125 C 17.976562 -19.929688 17.554688 -19.796875 16.859375 -19.796875 L 11.515625 -19.796875 L 11.515625 -8.921875 C 11.515625 -6.992188 11.6875 -5.679688 12.03125 -4.984375 C 12.382812 -4.296875 13.003906 -3.953125 13.890625 -3.953125 C 14.472656 -3.953125 15.195312 -4.144531 16.0625 -4.53125 C 16.9375 -4.914062 17.539062 -5.109375 17.875 -5.109375 C 18.226562 -5.109375 18.535156 -4.972656 18.796875 -4.703125 C 19.054688 -4.441406 19.1875 -4.117188 19.1875 -3.734375 C 19.1875 -2.648438 18.382812 -1.640625 16.78125 -0.703125 C 15.1875 0.234375 13.335938 0.703125 11.234375 0.703125 C 8.660156 0.703125 6.796875 0.0625 5.640625 -1.21875 C 4.484375 -2.5 3.90625 -4.59375 3.90625 -7.5 Z M 3.90625 -7.6875 "/></g></g><g style="fill:#000000;fill-opacity:1;"><g transform="translate(244.886767, 105.236203)"><path style="stroke:none" d=""/></g></g><g style="fill:#000000;fill-opacity:1;"><g transform="translate(258.507652, 105.236203)"><path style="stroke:none" d="M 19.015625 -20.109375 C 21.109375 -20.109375 22.375 -20.234375 22.8125 -20.484375 C 23.25 -20.734375 23.46875 -21.332031 23.46875 -22.28125 C 23.46875 -24.007812 23.429688 -25.453125 23.359375 -26.609375 C 23.296875 -27.773438 23.210938 -28.453125 23.109375 -28.640625 C 23.003906 -28.828125 22.53125 -29.140625 21.6875 -29.578125 C 20.851562 -30.015625 20.4375 -30.625 20.4375 -31.40625 C 20.4375 -32.28125 20.941406 -32.894531 21.953125 -33.25 C 22.960938 -33.601562 24.882812 -33.78125 27.71875 -33.78125 C 30.65625 -33.78125 32.625 -33.609375 33.625 -33.265625 C 34.625 -32.921875 35.125 -32.300781 35.125 -31.40625 C 35.125 -30.601562 34.675781 -29.976562 33.78125 -29.53125 C 32.894531 -29.09375 32.382812 -28.785156 32.25 -28.609375 C 32.039062 -28.304688 31.875 -27.234375 31.75 -25.390625 C 31.632812 -23.554688 31.578125 -21.109375 31.578125 -18.046875 C 31.578125 -14.179688 31.632812 -11.101562 31.75 -8.8125 C 31.875 -6.53125 32.039062 -5.238281 32.25 -4.9375 C 32.351562 -4.789062 32.859375 -4.488281 33.765625 -4.03125 C 34.671875 -3.570312 35.125 -2.945312 35.125 -2.15625 C 35.125 -1.257812 34.625 -0.640625 33.625 -0.296875 C 32.625 0.046875 30.65625 0.21875 27.71875 0.21875 C 24.882812 0.21875 22.960938 0.046875 21.953125 -0.296875 C 20.941406 -0.648438 20.4375 -1.269531 20.4375 -2.15625 C 20.4375 -2.945312 20.832031 -3.539062 21.625 -3.9375 C 22.414062 -4.34375 22.847656 -4.582031 22.921875 -4.65625 C 23.128906 -4.863281 23.269531 -5.394531 23.34375 -6.25 C 23.425781 -7.113281 23.46875 -8.851562 23.46875 -11.46875 C 23.46875 -12.4375 23.453125 -13.164062 23.421875 -13.65625 C 23.398438 -14.15625 23.351562 -14.476562 23.28125 -14.625 C 23.144531 -14.925781 22.789062 -15.132812 22.21875 -15.25 C 21.644531 -15.363281 20.238281 -15.421875 18 -15.421875 C 16.070312 -15.421875 14.78125 -15.378906 14.125 -15.296875 C 13.476562 -15.210938 13.0625 -15.066406 12.875 -14.859375 C 12.757812 -14.703125 12.675781 -14.429688 12.625 -14.046875 C 12.582031 -13.660156 12.5625 -12.800781 12.5625 -11.46875 C 12.5625 -9.539062 12.59375 -8.019531 12.65625 -6.90625 C 12.726562 -5.789062 12.816406 -5.132812 12.921875 -4.9375 C 13.046875 -4.71875 13.515625 -4.394531 14.328125 -3.96875 C 15.140625 -3.539062 15.546875 -2.9375 15.546875 -2.15625 C 15.546875 -1.257812 15.046875 -0.640625 14.046875 -0.296875 C 13.054688 0.046875 11.15625 0.21875 8.34375 0.21875 C 5.40625 0.21875 3.429688 0.046875 2.421875 -0.296875 C 1.421875 -0.640625 0.921875 -1.257812 0.921875 -2.15625 C 0.921875 -2.945312 1.363281 -3.570312 2.25 -4.03125 C 3.132812 -4.488281 3.628906 -4.785156 3.734375 -4.921875 C 3.941406 -5.234375 4.109375 -6.53125 4.234375 -8.8125 C 4.359375 -11.101562 4.421875 -14.179688 4.421875 -18.046875 C 4.421875 -21.109375 4.359375 -23.554688 4.234375 -25.390625 C 4.117188 -27.234375 3.953125 -28.316406 3.734375 -28.640625 C 3.628906 -28.785156 3.132812 -29.082031 2.25 -29.53125 C 1.363281 -29.976562 0.921875 -30.601562 0.921875 -31.40625 C 0.921875 -32.300781 1.421875 -32.921875 2.421875 -33.265625 C 3.429688 -33.609375 5.40625 -33.78125 8.34375 -33.78125 C 11.15625 -33.78125 13.054688 -33.609375 14.046875 -33.265625 C 15.046875 -32.921875 15.546875 -32.300781 15.546875 -31.40625 C 15.546875 -30.550781 15.023438 -29.890625 13.984375 -29.421875 C 13.546875 -29.222656 13.257812 -29.050781 13.125 -28.90625 C 12.914062 -28.695312 12.757812 -28.082031 12.65625 -27.0625 C 12.5625 -26.039062 12.515625 -24.445312 12.515625 -22.28125 C 12.515625 -21.332031 12.742188 -20.734375 13.203125 -20.484375 C 13.660156 -20.234375 14.921875 -20.109375 16.984375 -20.109375 Z M 19.015625 -20.109375 "/></g></g><g style="fill:#000000;fill-opacity:1;"><g transform="translate(294.515254, 105.236203)"><path style="stroke:none" d="M 2.546875 -30.140625 C 2.546875 -31.234375 3.050781 -32.171875 4.0625 -32.953125 C 5.082031 -33.734375 6.320312 -34.125 7.78125 -34.125 C 9.125 -34.125 10.238281 -33.773438 11.125 -33.078125 C 12.019531 -32.378906 12.46875 -31.515625 12.46875 -30.484375 C 12.46875 -29.410156 11.972656 -28.503906 10.984375 -27.765625 C 9.992188 -27.023438 8.773438 -26.65625 7.328125 -26.65625 C 5.921875 -26.65625 4.769531 -26.984375 3.875 -27.640625 C 2.988281 -28.304688 2.546875 -29.140625 2.546875 -30.140625 Z M 11.953125 -14.765625 L 11.953125 -9.015625 C 11.953125 -7.148438 12 -5.90625 12.09375 -5.28125 C 12.1875 -4.65625 12.34375 -4.242188 12.5625 -4.046875 C 12.707031 -3.941406 12.96875 -3.800781 13.34375 -3.625 C 14.289062 -3.164062 14.765625 -2.585938 14.765625 -1.890625 C 14.765625 -1.097656 14.285156 -0.539062 13.328125 -0.21875 C 12.367188 0.101562 10.625 0.265625 8.09375 0.265625 C 5.59375 0.265625 3.863281 0.101562 2.90625 -0.21875 C 1.957031 -0.539062 1.484375 -1.097656 1.484375 -1.890625 C 1.484375 -2.585938 1.945312 -3.164062 2.875 -3.625 C 3.238281 -3.800781 3.492188 -3.941406 3.640625 -4.046875 C 3.878906 -4.253906 4.039062 -4.71875 4.125 -5.4375 C 4.21875 -6.15625 4.265625 -7.59375 4.265625 -9.75 C 4.265625 -13.125 4.203125 -15.253906 4.078125 -16.140625 C 3.960938 -17.035156 3.75 -17.613281 3.4375 -17.875 C 3.375 -17.914062 2.929688 -18.0625 2.109375 -18.3125 C 1.285156 -18.570312 0.875 -19.066406 0.875 -19.796875 C 0.875 -20.160156 1.023438 -20.503906 1.328125 -20.828125 C 1.640625 -21.148438 2.101562 -21.453125 2.71875 -21.734375 C 4.113281 -22.378906 5.492188 -22.882812 6.859375 -23.25 C 8.222656 -23.613281 9.390625 -23.796875 10.359375 -23.796875 C 11.035156 -23.796875 11.484375 -23.660156 11.703125 -23.390625 C 11.921875 -23.128906 12.03125 -22.53125 12.03125 -21.59375 C 12.03125 -21.457031 12.019531 -21.128906 12 -20.609375 C 11.96875 -18.546875 11.953125 -16.597656 11.953125 -14.765625 Z M 11.953125 -14.765625 "/></g></g><g style="fill:#000000;fill-opacity:1;"><g transform="translate(309.889296, 105.236203)"><path style="stroke:none" d="M 1.375 -16.703125 C 1.375 -18.859375 2.085938 -20.59375 3.515625 -21.90625 C 4.941406 -23.226562 6.828125 -23.890625 9.171875 -23.890625 C 9.742188 -23.890625 10.382812 -23.835938 11.09375 -23.734375 C 11.800781 -23.628906 12.234375 -23.578125 12.390625 -23.578125 C 12.648438 -23.578125 13.066406 -23.703125 13.640625 -23.953125 C 14.222656 -24.210938 14.664062 -24.34375 14.96875 -24.34375 C 15.269531 -24.34375 15.597656 -24.226562 15.953125 -24 C 16.316406 -23.78125 16.648438 -23.484375 16.953125 -23.109375 C 17.578125 -22.234375 18.082031 -21.28125 18.46875 -20.25 C 18.863281 -19.226562 19.0625 -18.320312 19.0625 -17.53125 C 19.0625 -16.914062 18.914062 -16.425781 18.625 -16.0625 C 18.34375 -15.695312 17.960938 -15.515625 17.484375 -15.515625 C 17.109375 -15.515625 16.765625 -15.617188 16.453125 -15.828125 C 16.140625 -16.035156 15.765625 -16.421875 15.328125 -16.984375 C 15.210938 -17.140625 15.039062 -17.375 14.8125 -17.6875 C 13.550781 -19.425781 12.273438 -20.296875 10.984375 -20.296875 C 10.429688 -20.296875 9.957031 -20.117188 9.5625 -19.765625 C 9.164062 -19.410156 8.96875 -18.988281 8.96875 -18.5 C 8.96875 -17.488281 10.25 -16.394531 12.8125 -15.21875 C 13.457031 -14.914062 13.957031 -14.675781 14.3125 -14.5 C 16.320312 -13.539062 17.769531 -12.488281 18.65625 -11.34375 C 19.539062 -10.195312 19.984375 -8.804688 19.984375 -7.171875 C 19.984375 -4.921875 19.128906 -3.050781 17.421875 -1.5625 C 15.710938 -0.0820312 13.523438 0.65625 10.859375 0.65625 C 10.148438 0.65625 9.359375 0.578125 8.484375 0.421875 C 7.609375 0.265625 7.082031 0.1875 6.90625 0.1875 C 6.664062 0.1875 6.304688 0.265625 5.828125 0.421875 C 5.347656 0.578125 4.988281 0.65625 4.75 0.65625 C 4.394531 0.65625 4.03125 0.535156 3.65625 0.296875 C 3.289062 0.0664062 2.976562 -0.25 2.71875 -0.65625 C 2.09375 -1.582031 1.597656 -2.554688 1.234375 -3.578125 C 0.878906 -4.597656 0.703125 -5.492188 0.703125 -6.265625 C 0.703125 -6.972656 0.867188 -7.554688 1.203125 -8.015625 C 1.535156 -8.472656 1.96875 -8.703125 2.5 -8.703125 C 3.257812 -8.703125 4.164062 -7.882812 5.21875 -6.25 C 5.53125 -5.769531 5.769531 -5.410156 5.9375 -5.171875 C 6.414062 -4.453125 7.078125 -3.878906 7.921875 -3.453125 C 8.765625 -3.023438 9.640625 -2.8125 10.546875 -2.8125 C 11.367188 -2.8125 12.023438 -3 12.515625 -3.375 C 13.015625 -3.757812 13.265625 -4.273438 13.265625 -4.921875 C 13.265625 -6.023438 11.679688 -7.367188 8.515625 -8.953125 L 8.265625 -9.078125 C 5.453125 -10.429688 3.597656 -11.640625 2.703125 -12.703125 C 1.816406 -13.765625 1.375 -15.097656 1.375 -16.703125 Z M 1.375 -16.703125 "/></g></g><g style="fill:#000000;fill-opacity:1;"><g transform="translate(330.792623, 105.236203)"><path style="stroke:none" d="M 3.90625 -7.6875 L 4 -19.75 L 1.234375 -19.75 C 0.847656 -19.75 0.585938 -19.832031 0.453125 -20 C 0.328125 -20.164062 0.265625 -20.675781 0.265625 -21.53125 C 0.265625 -22.269531 0.8125 -23.035156 1.90625 -23.828125 C 2.132812 -23.992188 2.316406 -24.117188 2.453125 -24.203125 C 2.804688 -24.492188 3.320312 -24.890625 4 -25.390625 C 7.082031 -27.734375 9.128906 -28.90625 10.140625 -28.90625 C 10.722656 -28.90625 11.097656 -28.828125 11.265625 -28.671875 C 11.429688 -28.515625 11.515625 -28.035156 11.515625 -27.234375 L 11.515625 -23.421875 L 17.21875 -23.421875 C 17.695312 -23.421875 18.003906 -23.351562 18.140625 -23.21875 C 18.285156 -23.09375 18.359375 -22.820312 18.359375 -22.40625 C 18.359375 -21.207031 18.28125 -20.472656 18.125 -20.203125 C 17.976562 -19.929688 17.554688 -19.796875 16.859375 -19.796875 L 11.515625 -19.796875 L 11.515625 -8.921875 C 11.515625 -6.992188 11.6875 -5.679688 12.03125 -4.984375 C 12.382812 -4.296875 13.003906 -3.953125 13.890625 -3.953125 C 14.472656 -3.953125 15.195312 -4.144531 16.0625 -4.53125 C 16.9375 -4.914062 17.539062 -5.109375 17.875 -5.109375 C 18.226562 -5.109375 18.535156 -4.972656 18.796875 -4.703125 C 19.054688 -4.441406 19.1875 -4.117188 19.1875 -3.734375 C 19.1875 -2.648438 18.382812 -1.640625 16.78125 -0.703125 C 15.1875 0.234375 13.335938 0.703125 11.234375 0.703125 C 8.660156 0.703125 6.796875 0.0625 5.640625 -1.21875 C 4.484375 -2.5 3.90625 -4.59375 3.90625 -7.5 Z M 3.90625 -7.6875 "/></g></g><g style="fill:#000000;fill-opacity:1;"><g transform="translate(349.987676, 105.236203)"><path style="stroke:none" d="M 1.1875 -11.375 C 1.1875 -13.25 1.523438 -14.972656 2.203125 -16.546875 C 2.878906 -18.117188 3.859375 -19.492188 5.140625 -20.671875 C 6.390625 -21.796875 7.785156 -22.648438 9.328125 -23.234375 C 10.867188 -23.816406 12.503906 -24.109375 14.234375 -24.109375 C 17.734375 -24.109375 20.613281 -22.992188 22.875 -20.765625 C 25.144531 -18.546875 26.28125 -15.707031 26.28125 -12.25 C 26.28125 -10.414062 25.972656 -8.726562 25.359375 -7.1875 C 24.742188 -5.644531 23.84375 -4.273438 22.65625 -3.078125 C 21.414062 -1.847656 20.023438 -0.914062 18.484375 -0.28125 C 16.953125 0.34375 15.285156 0.65625 13.484375 0.65625 C 9.859375 0.65625 6.898438 -0.457031 4.609375 -2.6875 C 2.328125 -4.925781 1.1875 -7.820312 1.1875 -11.375 Z M 14.625 -3.59375 C 15.71875 -3.59375 16.566406 -4.054688 17.171875 -4.984375 C 17.785156 -5.921875 18.09375 -7.21875 18.09375 -8.875 C 18.09375 -11.9375 17.546875 -14.546875 16.453125 -16.703125 C 15.367188 -18.859375 14.117188 -19.9375 12.703125 -19.9375 C 11.648438 -19.9375 10.832031 -19.441406 10.25 -18.453125 C 9.675781 -17.472656 9.390625 -16.09375 9.390625 -14.3125 C 9.390625 -11.363281 9.921875 -8.835938 10.984375 -6.734375 C 12.054688 -4.640625 13.269531 -3.59375 14.625 -3.59375 Z M 14.625 -3.59375 "/></g></g><g style="fill:#000000;fill-opacity:1;"><g transform="translate(377.476655, 105.236203)"><path style="stroke:none" d="M 4.046875 -9.3125 C 4.046875 -11.957031 3.953125 -13.960938 3.765625 -15.328125 C 3.578125 -16.703125 3.296875 -17.539062 2.921875 -17.84375 C 2.859375 -17.882812 2.40625 -18.035156 1.5625 -18.296875 C 0.726562 -18.566406 0.3125 -19.066406 0.3125 -19.796875 C 0.3125 -20.160156 0.460938 -20.503906 0.765625 -20.828125 C 1.078125 -21.148438 1.539062 -21.453125 2.15625 -21.734375 C 3.53125 -22.359375 4.914062 -22.859375 6.3125 -23.234375 C 7.71875 -23.609375 8.894531 -23.796875 9.84375 -23.796875 C 10.320312 -23.796875 10.6875 -23.703125 10.9375 -23.515625 C 11.195312 -23.328125 11.375 -23.023438 11.46875 -22.609375 C 11.570312 -22.171875 11.640625 -21.640625 11.671875 -21.015625 C 11.710938 -20.390625 11.832031 -20.078125 12.03125 -20.078125 C 12.269531 -20.078125 12.597656 -20.34375 13.015625 -20.875 C 13.128906 -21.039062 13.226562 -21.171875 13.3125 -21.265625 C 14.03125 -22.160156 14.722656 -22.804688 15.390625 -23.203125 C 16.054688 -23.597656 16.769531 -23.796875 17.53125 -23.796875 C 18.664062 -23.796875 19.578125 -23.390625 20.265625 -22.578125 C 20.960938 -21.773438 21.3125 -20.707031 21.3125 -19.375 C 21.3125 -18.175781 20.976562 -17.175781 20.3125 -16.375 C 19.644531 -15.582031 18.816406 -15.1875 17.828125 -15.1875 C 17.003906 -15.1875 16.164062 -15.550781 15.3125 -16.28125 C 14.457031 -17.019531 13.847656 -17.390625 13.484375 -17.390625 C 12.828125 -17.390625 12.367188 -16.898438 12.109375 -15.921875 C 11.859375 -14.941406 11.734375 -12.859375 11.734375 -9.671875 C 11.734375 -7.535156 11.769531 -6.15625 11.84375 -5.53125 C 11.914062 -4.914062 12.050781 -4.492188 12.25 -4.265625 C 12.351562 -4.148438 12.835938 -3.90625 13.703125 -3.53125 C 14.578125 -3.15625 15.015625 -2.609375 15.015625 -1.890625 C 15.015625 -1.097656 14.507812 -0.539062 13.5 -0.21875 C 12.488281 0.101562 10.625 0.265625 7.90625 0.265625 C 5.34375 0.265625 3.585938 0.101562 2.640625 -0.21875 C 1.703125 -0.539062 1.234375 -1.097656 1.234375 -1.890625 C 1.234375 -2.585938 1.710938 -3.164062 2.671875 -3.625 C 3.046875 -3.800781 3.300781 -3.941406 3.4375 -4.046875 C 3.664062 -4.210938 3.820312 -4.585938 3.90625 -5.171875 C 4 -5.765625 4.046875 -7.144531 4.046875 -9.3125 Z M 4.046875 -9.3125 "/></g></g><g style="fill:#000000;fill-opacity:1;"><g transform="translate(398.042819, 105.236203)"><path style="stroke:none" d="M 11.421875 -19.1875 C 11.421875 -18.832031 11.921875 -17.539062 12.921875 -15.3125 L 13.3125 -14.453125 C 14.25 -12.304688 14.882812 -10.929688 15.21875 -10.328125 C 15.5625 -9.734375 15.816406 -9.4375 15.984375 -9.4375 C 16.054688 -9.4375 16.148438 -9.539062 16.265625 -9.75 C 16.390625 -9.957031 16.539062 -10.300781 16.71875 -10.78125 C 16.976562 -11.457031 17.332031 -12.390625 17.78125 -13.578125 C 18.875 -16.453125 19.421875 -18.125 19.421875 -18.59375 C 19.421875 -18.863281 19.375 -19.066406 19.28125 -19.203125 C 19.195312 -19.347656 18.953125 -19.519531 18.546875 -19.71875 C 18.003906 -19.96875 17.628906 -20.21875 17.421875 -20.46875 C 17.222656 -20.726562 17.125 -21.050781 17.125 -21.4375 C 17.125 -22.1875 17.539062 -22.726562 18.375 -23.0625 C 19.207031 -23.40625 20.582031 -23.578125 22.5 -23.578125 C 24.207031 -23.578125 25.460938 -23.398438 26.265625 -23.046875 C 27.078125 -22.691406 27.484375 -22.15625 27.484375 -21.4375 C 27.484375 -21.082031 27.367188 -20.78125 27.140625 -20.53125 C 26.910156 -20.28125 26.367188 -19.96875 25.515625 -19.59375 C 24.554688 -19.195312 23.796875 -18.453125 23.234375 -17.359375 C 23.148438 -17.160156 23.078125 -17.007812 23.015625 -16.90625 C 22.566406 -16 21.523438 -13.460938 19.890625 -9.296875 C 18.253906 -5.140625 16.796875 -1.53125 15.515625 1.53125 C 14.390625 4.207031 13.019531 6.222656 11.40625 7.578125 C 9.789062 8.941406 7.953125 9.625 5.890625 9.625 C 4.421875 9.625 3.25 9.234375 2.375 8.453125 C 1.5 7.671875 1.0625 6.632812 1.0625 5.34375 C 1.0625 4.382812 1.367188 3.578125 1.984375 2.921875 C 2.609375 2.265625 3.367188 1.9375 4.265625 1.9375 C 4.847656 1.9375 5.375 2.046875 5.84375 2.265625 C 6.320312 2.492188 6.703125 2.8125 6.984375 3.21875 C 7.078125 3.332031 7.191406 3.488281 7.328125 3.6875 C 7.742188 4.332031 8.171875 4.65625 8.609375 4.65625 C 9.390625 4.65625 10.015625 4.296875 10.484375 3.578125 C 10.953125 2.867188 11.1875 1.921875 11.1875 0.734375 C 11.1875 -0.710938 10.570312 -2.765625 9.34375 -5.421875 L 9.21875 -5.75 C 7.695312 -9.050781 6.503906 -11.625 5.640625 -13.46875 C 4.785156 -15.320312 4.191406 -16.570312 3.859375 -17.21875 C 3.804688 -17.332031 3.734375 -17.484375 3.640625 -17.671875 C 3.160156 -18.628906 2.578125 -19.226562 1.890625 -19.46875 C 1.847656 -19.476562 1.785156 -19.5 1.703125 -19.53125 C 0.503906 -19.96875 -0.09375 -20.5625 -0.09375 -21.3125 C -0.09375 -22.164062 0.414062 -22.765625 1.4375 -23.109375 C 2.46875 -23.453125 4.332031 -23.625 7.03125 -23.625 C 9.351562 -23.625 10.972656 -23.457031 11.890625 -23.125 C 12.804688 -22.800781 13.265625 -22.238281 13.265625 -21.4375 C 13.265625 -20.976562 12.957031 -20.550781 12.34375 -20.15625 C 11.726562 -19.769531 11.421875 -19.445312 11.421875 -19.1875 Z M 11.421875 -19.1875 "/></g></g></g></svg>