<svg xmlns="http://www.w3.org/2000/svg" xmlns:xlink="http://www.w3.org/1999/xlink" width="1366" zoomAndPan="magnify" viewBox="0 0 1024.5 576" height="768" preserveAspectRatio="xMidYMid meet" version="1.2"><defs><clipPath id="d779aeb3b9"><path d="M 0 0.140625 L 1024 0.140625 L 1024 575.859375 L 0 575.859375 Z M 0 0.140625 "/></clipPath><clipPath id="dd7dc726c3"><path d="M 29.40625 175.253906 L 423.292969 175.253906 L 423.292969 246.417969 L 29.40625 246.417969 Z M 29.40625 175.253906 "/></clipPath><clipPath id="ef836d760d"><path d="M 391.652344 175.253906 L 42.835938 175.253906 C 35.417969 175.253906 29.40625 181.269531 29.40625 188.6875 L 29.40625 221.132812 C 29.40625 224.4375 30.625 227.625 32.828125 230.085938 L 43.429688 241.941406 C 45.976562 244.789062 49.617188 246.417969 53.441406 246.417969 L 409.617188 246.417969 C 413.179688 246.417969 416.597656 245 419.117188 242.480469 C 421.636719 239.964844 423.050781 236.546875 423.050781 232.984375 L 423.050781 208.390625 C 423.050781 205.042969 421.800781 201.8125 419.542969 199.339844 L 401.574219 179.636719 C 399.03125 176.84375 395.429688 175.253906 391.652344 175.253906 Z M 391.652344 175.253906 "/></clipPath></defs><g id="c820bebb16"><g clip-rule="nonzero" clip-path="url(#d779aeb3b9)"><path style=" stroke:none;fill-rule:nonzero;fill:#ffffff;fill-opacity:1;" d="M 0 0.140625 L 1024 0.140625 L 1024 575.859375 L 0 575.859375 Z M 0 0.140625 "/><path style=" stroke:none;fill-rule:nonzero;fill:#fdfaf0;fill-opacity:1;" d="M 0 0.140625 L 1024 0.140625 L 1024 575.859375 L 0 575.859375 Z M 0 0.140625 "/></g><g clip-rule="nonzero" clip-path="url(#dd7dc726c3)"><g clip-rule="nonzero" clip-path="url(#ef836d760d)"><path style=" stroke:none;fill-rule:nonzero;fill:#d9b8f3;fill-opacity:1;" d="M 29.40625 175.253906 L 423.015625 175.253906 L 423.015625 246.417969 L 29.40625 246.417969 Z M 29.40625 175.253906 "/></g></g><g style="fill:#000000;fill-opacity:1;"><g transform="translate(45.623776, 221.106671)"><path style="stroke:none" d="M 8.1875 -13 C 8.4375 -12.96875 8.695312 -12.941406 8.96875 -12.921875 C 9.25 -12.910156 9.53125 -12.90625 9.8125 -12.90625 C 11.414062 -12.90625 12.578125 -13.144531 13.296875 -13.625 C 14.015625 -14.113281 14.375 -14.894531 14.375 -15.96875 C 14.375 -17.0625 14.035156 -17.875 13.359375 -18.40625 C 12.679688 -18.945312 11.648438 -19.21875 10.265625 -19.21875 C 9.671875 -19.21875 9.242188 -19.160156 8.984375 -19.046875 C 8.734375 -18.929688 8.546875 -18.734375 8.421875 -18.453125 C 8.347656 -18.222656 8.289062 -17.78125 8.25 -17.125 C 8.207031 -16.46875 8.1875 -15.34375 8.1875 -13.75 Z M 8.1875 -9.6875 L 8.1875 -6.90625 C 8.1875 -5.832031 8.203125 -5.0625 8.234375 -4.59375 C 8.273438 -4.125 8.328125 -3.785156 8.390625 -3.578125 C 8.546875 -3.234375 8.816406 -2.984375 9.203125 -2.828125 C 9.585938 -2.679688 10.160156 -2.609375 10.921875 -2.609375 C 12.410156 -2.609375 13.539062 -2.90625 14.3125 -3.5 C 15.09375 -4.101562 15.484375 -4.988281 15.484375 -6.15625 C 15.484375 -7.46875 15.039062 -8.398438 14.15625 -8.953125 C 13.28125 -9.515625 11.753906 -9.796875 9.578125 -9.796875 C 9.304688 -9.796875 9.054688 -9.785156 8.828125 -9.765625 C 8.609375 -9.753906 8.394531 -9.726562 8.1875 -9.6875 Z M 14.828125 -11.546875 C 16.804688 -11.265625 18.304688 -10.640625 19.328125 -9.671875 C 20.347656 -8.703125 20.859375 -7.425781 20.859375 -5.84375 C 20.859375 -3.9375 20.132812 -2.457031 18.6875 -1.40625 C 17.25 -0.351562 15.222656 0.171875 12.609375 0.171875 C 11.929688 0.171875 10.875 0.132812 9.4375 0.0625 C 8.007812 0 6.914062 -0.03125 6.15625 -0.03125 C 5.914062 -0.03125 5.441406 -0.0195312 4.734375 0 C 4.023438 0.0195312 3.445312 0.03125 3 0.03125 C 2.207031 0.03125 1.609375 -0.0859375 1.203125 -0.328125 C 0.796875 -0.578125 0.59375 -0.9375 0.59375 -1.40625 C 0.59375 -1.925781 0.882812 -2.332031 1.46875 -2.625 C 2.0625 -2.925781 2.394531 -3.117188 2.46875 -3.203125 C 2.613281 -3.410156 2.722656 -4.257812 2.796875 -5.75 C 2.878906 -7.238281 2.921875 -9.242188 2.921875 -11.765625 C 2.921875 -13.765625 2.878906 -15.363281 2.796875 -16.5625 C 2.722656 -17.757812 2.613281 -18.460938 2.46875 -18.671875 C 2.394531 -18.765625 2.0625 -18.957031 1.46875 -19.25 C 0.882812 -19.550781 0.59375 -19.957031 0.59375 -20.46875 C 0.59375 -20.9375 0.796875 -21.289062 1.203125 -21.53125 C 1.617188 -21.78125 2.226562 -21.90625 3.03125 -21.90625 C 3.5625 -21.90625 4.191406 -21.894531 4.921875 -21.875 C 5.648438 -21.863281 6.109375 -21.859375 6.296875 -21.859375 C 7.054688 -21.859375 8.070312 -21.882812 9.34375 -21.9375 C 10.613281 -22 11.507812 -22.03125 12.03125 -22.03125 C 14.394531 -22.03125 16.210938 -21.570312 17.484375 -20.65625 C 18.753906 -19.738281 19.390625 -18.425781 19.390625 -16.71875 C 19.390625 -15.457031 19.003906 -14.410156 18.234375 -13.578125 C 17.472656 -12.742188 16.335938 -12.140625 14.828125 -11.765625 C 14.773438 -11.734375 14.742188 -11.710938 14.734375 -11.703125 C 14.722656 -11.703125 14.71875 -11.695312 14.71875 -11.6875 C 14.71875 -11.65625 14.722656 -11.632812 14.734375 -11.625 C 14.742188 -11.613281 14.773438 -11.585938 14.828125 -11.546875 Z M 14.828125 -11.546875 "/></g></g><g style="fill:#000000;fill-opacity:1;"><g transform="translate(66.990933, 221.106671)"><path style="stroke:none" d="M 0.78125 -7.421875 C 0.78125 -8.640625 1 -9.757812 1.4375 -10.78125 C 1.875 -11.8125 2.515625 -12.710938 3.359375 -13.484375 C 4.171875 -14.210938 5.078125 -14.765625 6.078125 -15.140625 C 7.085938 -15.523438 8.15625 -15.71875 9.28125 -15.71875 C 11.5625 -15.71875 13.441406 -14.992188 14.921875 -13.546875 C 16.398438 -12.097656 17.140625 -10.242188 17.140625 -7.984375 C 17.140625 -6.796875 16.9375 -5.695312 16.53125 -4.6875 C 16.132812 -3.6875 15.546875 -2.796875 14.765625 -2.015625 C 13.960938 -1.210938 13.054688 -0.601562 12.046875 -0.1875 C 11.046875 0.21875 9.960938 0.421875 8.796875 0.421875 C 6.429688 0.421875 4.503906 -0.300781 3.015625 -1.75 C 1.523438 -3.207031 0.78125 -5.097656 0.78125 -7.421875 Z M 9.546875 -2.34375 C 10.253906 -2.34375 10.804688 -2.644531 11.203125 -3.25 C 11.597656 -3.851562 11.796875 -4.703125 11.796875 -5.796875 C 11.796875 -7.785156 11.441406 -9.484375 10.734375 -10.890625 C 10.023438 -12.296875 9.207031 -13 8.28125 -13 C 7.59375 -13 7.0625 -12.675781 6.6875 -12.03125 C 6.3125 -11.394531 6.125 -10.492188 6.125 -9.328125 C 6.125 -7.410156 6.46875 -5.765625 7.15625 -4.390625 C 7.851562 -3.023438 8.648438 -2.34375 9.546875 -2.34375 Z M 9.546875 -2.34375 "/></g></g><g style="fill:#000000;fill-opacity:1;"><g transform="translate(84.914143, 221.106671)"><path style="stroke:none" d="M 0.78125 -7.421875 C 0.78125 -8.640625 1 -9.757812 1.4375 -10.78125 C 1.875 -11.8125 2.515625 -12.710938 3.359375 -13.484375 C 4.171875 -14.210938 5.078125 -14.765625 6.078125 -15.140625 C 7.085938 -15.523438 8.15625 -15.71875 9.28125 -15.71875 C 11.5625 -15.71875 13.441406 -14.992188 14.921875 -13.546875 C 16.398438 -12.097656 17.140625 -10.242188 17.140625 -7.984375 C 17.140625 -6.796875 16.9375 -5.695312 16.53125 -4.6875 C 16.132812 -3.6875 15.546875 -2.796875 14.765625 -2.015625 C 13.960938 -1.210938 13.054688 -0.601562 12.046875 -0.1875 C 11.046875 0.21875 9.960938 0.421875 8.796875 0.421875 C 6.429688 0.421875 4.503906 -0.300781 3.015625 -1.75 C 1.523438 -3.207031 0.78125 -5.097656 0.78125 -7.421875 Z M 9.546875 -2.34375 C 10.253906 -2.34375 10.804688 -2.644531 11.203125 -3.25 C 11.597656 -3.851562 11.796875 -4.703125 11.796875 -5.796875 C 11.796875 -7.785156 11.441406 -9.484375 10.734375 -10.890625 C 10.023438 -12.296875 9.207031 -13 8.28125 -13 C 7.59375 -13 7.0625 -12.675781 6.6875 -12.03125 C 6.3125 -11.394531 6.125 -10.492188 6.125 -9.328125 C 6.125 -7.410156 6.46875 -5.765625 7.15625 -4.390625 C 7.851562 -3.023438 8.648438 -2.34375 9.546875 -2.34375 Z M 9.546875 -2.34375 "/></g></g><g style="fill:#000000;fill-opacity:1;"><g transform="translate(102.837353, 221.106671)"><path style="stroke:none" d="M 7.5 -13.484375 L 7.5 -10.03125 C 7.5 -9.84375 7.519531 -9.71875 7.5625 -9.65625 C 7.601562 -9.601562 7.671875 -9.578125 7.765625 -9.578125 C 7.847656 -9.578125 7.941406 -9.613281 8.046875 -9.6875 C 8.148438 -9.769531 8.34375 -9.929688 8.625 -10.171875 L 10.484375 -11.890625 C 10.742188 -12.128906 10.921875 -12.320312 11.015625 -12.46875 C 11.117188 -12.613281 11.171875 -12.75 11.171875 -12.875 C 11.171875 -13.03125 11.085938 -13.25 10.921875 -13.53125 C 10.765625 -13.820312 10.6875 -14.035156 10.6875 -14.171875 C 10.6875 -14.578125 10.972656 -14.878906 11.546875 -15.078125 C 12.128906 -15.273438 13.046875 -15.375 14.296875 -15.375 C 15.421875 -15.375 16.234375 -15.265625 16.734375 -15.046875 C 17.242188 -14.828125 17.5 -14.472656 17.5 -13.984375 C 17.5 -13.742188 17.441406 -13.546875 17.328125 -13.390625 C 17.210938 -13.234375 17.070312 -13.140625 16.90625 -13.109375 L 15.640625 -12.90625 C 15.597656 -12.894531 15.539062 -12.882812 15.46875 -12.875 C 14.6875 -12.757812 13.929688 -12.363281 13.203125 -11.6875 L 12.421875 -10.921875 C 12.347656 -10.847656 12.253906 -10.753906 12.140625 -10.640625 C 11.890625 -10.410156 11.765625 -10.253906 11.765625 -10.171875 C 11.765625 -10.054688 11.878906 -9.835938 12.109375 -9.515625 C 12.335938 -9.191406 12.691406 -8.75 13.171875 -8.1875 C 14.035156 -7.1875 14.859375 -6.253906 15.640625 -5.390625 C 16.421875 -4.535156 17.050781 -3.867188 17.53125 -3.390625 C 18.0625 -2.878906 18.6875 -2.53125 19.40625 -2.34375 C 19.507812 -2.3125 19.582031 -2.289062 19.625 -2.28125 C 19.863281 -2.1875 20.050781 -2.0625 20.1875 -1.90625 C 20.320312 -1.75 20.390625 -1.5625 20.390625 -1.34375 C 20.390625 -0.832031 20.101562 -0.472656 19.53125 -0.265625 C 18.96875 -0.0664062 17.832031 0.03125 16.125 0.03125 L 15.4375 0.03125 C 14.738281 0.03125 14.222656 -0.0507812 13.890625 -0.21875 C 13.554688 -0.382812 13.1875 -0.703125 12.78125 -1.171875 C 11.882812 -2.203125 10.867188 -3.425781 9.734375 -4.84375 C 8.597656 -6.257812 7.953125 -6.96875 7.796875 -6.96875 C 7.722656 -6.96875 7.671875 -6.929688 7.640625 -6.859375 C 7.609375 -6.785156 7.59375 -6.648438 7.59375 -6.453125 L 7.59375 -5.21875 C 7.59375 -4.34375 7.617188 -3.722656 7.671875 -3.359375 C 7.734375 -2.992188 7.835938 -2.753906 7.984375 -2.640625 C 8.078125 -2.566406 8.242188 -2.472656 8.484375 -2.359375 C 9.109375 -2.066406 9.421875 -1.691406 9.421875 -1.234375 C 9.421875 -0.710938 9.109375 -0.347656 8.484375 -0.140625 C 7.859375 0.0664062 6.722656 0.171875 5.078125 0.171875 C 3.429688 0.171875 2.296875 0.0664062 1.671875 -0.140625 C 1.054688 -0.347656 0.75 -0.710938 0.75 -1.234375 C 0.75 -1.660156 0.992188 -2.007812 1.484375 -2.28125 C 1.972656 -2.5625 2.238281 -2.734375 2.28125 -2.796875 C 2.394531 -2.953125 2.472656 -3.367188 2.515625 -4.046875 C 2.554688 -4.734375 2.578125 -6.363281 2.578125 -8.9375 L 2.578125 -12.34375 C 2.578125 -14.582031 2.550781 -16.078125 2.5 -16.828125 C 2.445312 -17.585938 2.351562 -18.054688 2.21875 -18.234375 C 2.144531 -18.328125 1.816406 -18.460938 1.234375 -18.640625 C 0.648438 -18.828125 0.359375 -19.15625 0.359375 -19.625 C 0.359375 -19.851562 0.457031 -20.066406 0.65625 -20.265625 C 0.863281 -20.472656 1.175781 -20.671875 1.59375 -20.859375 C 2.519531 -21.296875 3.425781 -21.632812 4.3125 -21.875 C 5.207031 -22.125 5.960938 -22.25 6.578125 -22.25 C 7.003906 -22.25 7.289062 -22.144531 7.4375 -21.9375 C 7.582031 -21.726562 7.65625 -21.300781 7.65625 -20.65625 C 7.65625 -20.414062 7.628906 -19.5 7.578125 -17.90625 C 7.523438 -16.3125 7.5 -14.835938 7.5 -13.484375 Z M 7.5 -13.484375 "/></g></g><g style="fill:#000000;fill-opacity:1;"><g transform="translate(121.801071, 221.106671)"><path style="stroke:none" d=""/></g></g><g style="fill:#000000;fill-opacity:1;"><g transform="translate(130.68207, 221.106671)"><path style="stroke:none" d="M 10.171875 -9.15625 L 10.171875 -10.5625 C 10.171875 -11.53125 10.050781 -12.195312 9.8125 -12.5625 C 9.570312 -12.925781 9.15625 -13.109375 8.5625 -13.109375 C 7.925781 -13.109375 7.226562 -12.738281 6.46875 -12 C 6.394531 -11.9375 6.335938 -11.890625 6.296875 -11.859375 C 6.265625 -11.828125 6.210938 -11.773438 6.140625 -11.703125 C 5.097656 -10.722656 4.171875 -10.234375 3.359375 -10.234375 C 2.835938 -10.234375 2.425781 -10.375 2.125 -10.65625 C 1.832031 -10.9375 1.6875 -11.328125 1.6875 -11.828125 C 1.6875 -12.867188 2.398438 -13.78125 3.828125 -14.5625 C 5.253906 -15.351562 7.007812 -15.75 9.09375 -15.75 C 11.195312 -15.75 12.734375 -15.347656 13.703125 -14.546875 C 14.671875 -13.742188 15.15625 -12.46875 15.15625 -10.71875 C 15.15625 -10.1875 15.132812 -9.515625 15.09375 -8.703125 C 15.050781 -7.890625 15.03125 -7.335938 15.03125 -7.046875 L 15.03125 -4.859375 C 15.03125 -4.429688 15.054688 -4.117188 15.109375 -3.921875 C 15.160156 -3.734375 15.25 -3.597656 15.375 -3.515625 C 15.476562 -3.441406 15.796875 -3.316406 16.328125 -3.140625 C 16.867188 -2.972656 17.140625 -2.707031 17.140625 -2.34375 C 17.140625 -1.976562 17.007812 -1.632812 16.75 -1.3125 C 16.488281 -0.988281 16.085938 -0.671875 15.546875 -0.359375 C 15.109375 -0.109375 14.664062 0.0820312 14.21875 0.21875 C 13.78125 0.351562 13.375 0.421875 13 0.421875 C 12.445312 0.421875 11.898438 0.140625 11.359375 -0.421875 C 10.828125 -0.984375 10.535156 -1.265625 10.484375 -1.265625 C 10.429688 -1.265625 10.289062 -1.179688 10.0625 -1.015625 C 8.789062 -0.0546875 7.421875 0.421875 5.953125 0.421875 C 4.359375 0.421875 3.082031 -0.00390625 2.125 -0.859375 C 1.164062 -1.710938 0.6875 -2.847656 0.6875 -4.265625 C 0.6875 -5.867188 1.296875 -7.113281 2.515625 -8 C 3.742188 -8.882812 5.457031 -9.328125 7.65625 -9.328125 C 8 -9.328125 8.378906 -9.3125 8.796875 -9.28125 C 9.222656 -9.257812 9.679688 -9.21875 10.171875 -9.15625 Z M 10.140625 -4.640625 L 10.140625 -6.984375 C 9.953125 -7.035156 9.757812 -7.070312 9.5625 -7.09375 C 9.375 -7.125 9.15625 -7.140625 8.90625 -7.140625 C 8 -7.140625 7.300781 -6.929688 6.8125 -6.515625 C 6.332031 -6.109375 6.09375 -5.519531 6.09375 -4.75 C 6.09375 -4.082031 6.269531 -3.554688 6.625 -3.171875 C 6.988281 -2.796875 7.484375 -2.609375 8.109375 -2.609375 C 8.796875 -2.609375 9.304688 -2.773438 9.640625 -3.109375 C 9.972656 -3.441406 10.140625 -3.953125 10.140625 -4.640625 Z M 10.140625 -4.640625 "/></g></g><g style="fill:#000000;fill-opacity:1;"><g transform="translate(147.550112, 221.106671)"><path style="stroke:none" d="M 7.5 -14.4375 L 7.5 -13.515625 C 7.5 -13.378906 7.515625 -13.273438 7.546875 -13.203125 C 7.578125 -13.128906 7.625 -13.09375 7.6875 -13.09375 C 7.84375 -13.09375 8.023438 -13.234375 8.234375 -13.515625 C 8.359375 -13.679688 8.457031 -13.800781 8.53125 -13.875 C 9.050781 -14.457031 9.617188 -14.875 10.234375 -15.125 C 10.859375 -15.382812 11.609375 -15.515625 12.484375 -15.515625 C 14.453125 -15.515625 15.867188 -14.96875 16.734375 -13.875 C 17.609375 -12.78125 18.046875 -10.988281 18.046875 -8.5 L 18.046875 -5.953125 C 18.046875 -4.816406 18.0625 -4.035156 18.09375 -3.609375 C 18.132812 -3.179688 18.207031 -2.90625 18.3125 -2.78125 C 18.363281 -2.71875 18.632812 -2.550781 19.125 -2.28125 C 19.625 -2.007812 19.875 -1.660156 19.875 -1.234375 C 19.875 -0.710938 19.5625 -0.347656 18.9375 -0.140625 C 18.320312 0.0664062 17.191406 0.171875 15.546875 0.171875 C 13.898438 0.171875 12.765625 0.0664062 12.140625 -0.140625 C 11.515625 -0.347656 11.203125 -0.710938 11.203125 -1.234375 C 11.203125 -1.691406 11.515625 -2.066406 12.140625 -2.359375 C 12.378906 -2.472656 12.546875 -2.566406 12.640625 -2.640625 C 12.785156 -2.765625 12.882812 -3.035156 12.9375 -3.453125 C 13 -3.867188 13.03125 -4.6875 13.03125 -5.90625 C 13.03125 -8.4375 12.847656 -10.0625 12.484375 -10.78125 C 12.117188 -11.5 11.460938 -11.859375 10.515625 -11.859375 C 9.460938 -11.859375 8.695312 -11.414062 8.21875 -10.53125 C 7.738281 -9.65625 7.5 -8.242188 7.5 -6.296875 C 7.5 -5.160156 7.519531 -4.328125 7.5625 -3.796875 C 7.613281 -3.273438 7.691406 -2.941406 7.796875 -2.796875 C 7.859375 -2.722656 8.128906 -2.550781 8.609375 -2.28125 C 9.085938 -2.007812 9.328125 -1.660156 9.328125 -1.234375 C 9.328125 -0.710938 9.015625 -0.347656 8.390625 -0.140625 C 7.773438 0.0664062 6.648438 0.171875 5.015625 0.171875 C 3.367188 0.171875 2.226562 0.0664062 1.59375 -0.140625 C 0.96875 -0.347656 0.65625 -0.710938 0.65625 -1.234375 C 0.65625 -1.691406 0.96875 -2.066406 1.59375 -2.359375 C 1.84375 -2.472656 2.007812 -2.566406 2.09375 -2.640625 C 2.25 -2.765625 2.359375 -3.0625 2.421875 -3.53125 C 2.484375 -4 2.515625 -5.101562 2.515625 -6.84375 C 2.515625 -8.71875 2.472656 -9.945312 2.390625 -10.53125 C 2.316406 -11.125 2.1875 -11.492188 2 -11.640625 C 1.957031 -11.671875 1.660156 -11.769531 1.109375 -11.9375 C 0.566406 -12.101562 0.296875 -12.425781 0.296875 -12.90625 C 0.296875 -13.144531 0.394531 -13.367188 0.59375 -13.578125 C 0.789062 -13.785156 1.09375 -13.984375 1.5 -14.171875 C 2.394531 -14.585938 3.289062 -14.914062 4.1875 -15.15625 C 5.082031 -15.394531 5.847656 -15.515625 6.484375 -15.515625 C 6.867188 -15.515625 7.132812 -15.4375 7.28125 -15.28125 C 7.425781 -15.132812 7.5 -14.851562 7.5 -14.4375 Z M 7.5 -14.4375 "/></g></g><g style="fill:#000000;fill-opacity:1;"><g transform="translate(167.422448, 221.106671)"><path style="stroke:none" d=""/></g></g><g style="fill:#000000;fill-opacity:1;"><g transform="translate(176.303447, 221.106671)"><path style="stroke:none" d="M 12.546875 -8.9375 L 12.1875 -9.953125 C 11.070312 -13.160156 10.367188 -14.765625 10.078125 -14.765625 C 9.765625 -14.765625 8.972656 -13.0625 7.703125 -9.65625 L 7.4375 -8.9375 C 8.070312 -8.96875 8.5625 -8.984375 8.90625 -8.984375 C 9.25 -8.992188 9.582031 -9 9.90625 -9 C 10.207031 -9 10.535156 -8.992188 10.890625 -8.984375 C 11.253906 -8.984375 11.804688 -8.96875 12.546875 -8.9375 Z M 17.640625 0.140625 C 15.984375 0.140625 14.8125 0.0234375 14.125 -0.203125 C 13.445312 -0.441406 13.109375 -0.832031 13.109375 -1.375 C 13.109375 -1.59375 13.148438 -1.789062 13.234375 -1.96875 C 13.328125 -2.144531 13.445312 -2.269531 13.59375 -2.34375 C 13.695312 -2.394531 13.84375 -2.457031 14.03125 -2.53125 C 14.457031 -2.738281 14.671875 -2.957031 14.671875 -3.1875 C 14.671875 -3.582031 14.53125 -4.085938 14.25 -4.703125 C 13.976562 -5.316406 13.710938 -5.71875 13.453125 -5.90625 C 13.304688 -6 12.941406 -6.066406 12.359375 -6.109375 C 11.773438 -6.160156 10.976562 -6.1875 9.96875 -6.1875 C 8.6875 -6.1875 7.789062 -6.164062 7.28125 -6.125 C 6.78125 -6.082031 6.46875 -6.023438 6.34375 -5.953125 C 6.15625 -5.847656 5.945312 -5.523438 5.71875 -4.984375 C 5.488281 -4.453125 5.375 -4.007812 5.375 -3.65625 C 5.375 -3.457031 5.425781 -3.289062 5.53125 -3.15625 C 5.632812 -3.019531 5.828125 -2.890625 6.109375 -2.765625 C 6.171875 -2.734375 6.253906 -2.695312 6.359375 -2.65625 C 7.117188 -2.3125 7.5 -1.882812 7.5 -1.375 C 7.5 -0.84375 7.1875 -0.460938 6.5625 -0.234375 C 5.9375 -0.015625 4.78125 0.09375 3.09375 0.09375 C 1.914062 0.09375 1.03125 -0.0234375 0.4375 -0.265625 C -0.15625 -0.503906 -0.453125 -0.863281 -0.453125 -1.34375 C -0.453125 -1.914062 -0.00390625 -2.375 0.890625 -2.71875 C 1.203125 -2.84375 1.425781 -2.9375 1.5625 -3 C 2.082031 -3.257812 2.976562 -5.003906 4.25 -8.234375 C 4.632812 -9.210938 4.9375 -9.976562 5.15625 -10.53125 C 5.320312 -10.957031 5.570312 -11.566406 5.90625 -12.359375 C 7.519531 -16.328125 8.441406 -19.070312 8.671875 -20.59375 C 8.785156 -21.28125 8.972656 -21.722656 9.234375 -21.921875 C 9.503906 -22.117188 9.976562 -22.21875 10.65625 -22.21875 C 11.28125 -22.21875 11.769531 -22.132812 12.125 -21.96875 C 12.476562 -21.8125 12.800781 -21.535156 13.09375 -21.140625 C 13.457031 -20.585938 14.070312 -19.28125 14.9375 -17.21875 C 15.8125 -15.15625 17.421875 -11.117188 19.765625 -5.109375 L 19.828125 -4.984375 C 20.253906 -3.828125 20.84375 -3.140625 21.59375 -2.921875 C 22.101562 -2.753906 22.488281 -2.546875 22.75 -2.296875 C 23.007812 -2.054688 23.140625 -1.769531 23.140625 -1.4375 C 23.140625 -0.863281 22.734375 -0.457031 21.921875 -0.21875 C 21.117188 0.0195312 19.691406 0.140625 17.640625 0.140625 Z M 17.640625 0.140625 "/></g></g><g style="fill:#000000;fill-opacity:1;"><g transform="translate(199.077495, 221.106671)"><path style="stroke:none" d="M 7.328125 -5.8125 C 7.328125 -4.59375 7.507812 -3.734375 7.875 -3.234375 C 8.238281 -2.734375 8.859375 -2.484375 9.734375 -2.484375 C 10.691406 -2.484375 11.46875 -2.890625 12.0625 -3.703125 C 12.664062 -4.515625 12.96875 -5.582031 12.96875 -6.90625 C 12.96875 -8.363281 12.648438 -9.53125 12.015625 -10.40625 C 11.378906 -11.289062 10.546875 -11.734375 9.515625 -11.734375 C 8.773438 -11.734375 8.222656 -11.515625 7.859375 -11.078125 C 7.503906 -10.640625 7.328125 -9.976562 7.328125 -9.09375 Z M 7.328125 -14.4375 L 7.328125 -13.890625 C 7.328125 -13.753906 7.34375 -13.65625 7.375 -13.59375 C 7.40625 -13.539062 7.445312 -13.515625 7.5 -13.515625 C 7.59375 -13.515625 7.785156 -13.644531 8.078125 -13.90625 C 9.253906 -14.976562 10.492188 -15.515625 11.796875 -15.515625 C 13.640625 -15.515625 15.195312 -14.78125 16.46875 -13.3125 C 17.75 -11.84375 18.390625 -10.019531 18.390625 -7.84375 C 18.390625 -6.6875 18.1875 -5.609375 17.78125 -4.609375 C 17.382812 -3.617188 16.800781 -2.734375 16.03125 -1.953125 C 15.3125 -1.222656 14.5 -0.664062 13.59375 -0.28125 C 12.695312 0.101562 11.773438 0.296875 10.828125 0.296875 C 9.734375 0.296875 8.710938 -0.015625 7.765625 -0.640625 C 7.597656 -0.753906 7.5 -0.8125 7.46875 -0.8125 C 7.414062 -0.8125 7.375 -0.734375 7.34375 -0.578125 C 7.3125 -0.429688 7.296875 -0.195312 7.296875 0.125 C 7.296875 1.070312 7.316406 1.734375 7.359375 2.109375 C 7.398438 2.492188 7.46875 2.753906 7.5625 2.890625 C 7.632812 2.972656 7.96875 3.144531 8.5625 3.40625 C 9.15625 3.675781 9.453125 4.019531 9.453125 4.4375 C 9.453125 4.9375 9.078125 5.296875 8.328125 5.515625 C 7.578125 5.734375 6.332031 5.84375 4.59375 5.84375 C 3.050781 5.84375 1.972656 5.734375 1.359375 5.515625 C 0.753906 5.304688 0.453125 4.945312 0.453125 4.4375 C 0.453125 3.976562 0.769531 3.59375 1.40625 3.28125 C 1.632812 3.164062 1.796875 3.070312 1.890625 3 C 2.066406 2.851562 2.191406 2.296875 2.265625 1.328125 C 2.335938 0.367188 2.375 -1.691406 2.375 -4.859375 C 2.375 -7.441406 2.328125 -9.175781 2.234375 -10.0625 C 2.148438 -10.945312 1.992188 -11.476562 1.765625 -11.65625 C 1.722656 -11.6875 1.429688 -11.78125 0.890625 -11.9375 C 0.359375 -12.101562 0.09375 -12.425781 0.09375 -12.90625 C 0.09375 -13.144531 0.191406 -13.367188 0.390625 -13.578125 C 0.585938 -13.785156 0.890625 -13.984375 1.296875 -14.171875 C 2.191406 -14.585938 3.082031 -14.914062 3.96875 -15.15625 C 4.863281 -15.394531 5.628906 -15.515625 6.265625 -15.515625 C 6.671875 -15.515625 6.945312 -15.4375 7.09375 -15.28125 C 7.25 -15.125 7.328125 -14.84375 7.328125 -14.4375 Z M 7.328125 -14.4375 "/></g></g><g style="fill:#000000;fill-opacity:1;"><g transform="translate(218.290365, 221.106671)"><path style="stroke:none" d="M 7.328125 -5.8125 C 7.328125 -4.59375 7.507812 -3.734375 7.875 -3.234375 C 8.238281 -2.734375 8.859375 -2.484375 9.734375 -2.484375 C 10.691406 -2.484375 11.46875 -2.890625 12.0625 -3.703125 C 12.664062 -4.515625 12.96875 -5.582031 12.96875 -6.90625 C 12.96875 -8.363281 12.648438 -9.53125 12.015625 -10.40625 C 11.378906 -11.289062 10.546875 -11.734375 9.515625 -11.734375 C 8.773438 -11.734375 8.222656 -11.515625 7.859375 -11.078125 C 7.503906 -10.640625 7.328125 -9.976562 7.328125 -9.09375 Z M 7.328125 -14.4375 L 7.328125 -13.890625 C 7.328125 -13.753906 7.34375 -13.65625 7.375 -13.59375 C 7.40625 -13.539062 7.445312 -13.515625 7.5 -13.515625 C 7.59375 -13.515625 7.785156 -13.644531 8.078125 -13.90625 C 9.253906 -14.976562 10.492188 -15.515625 11.796875 -15.515625 C 13.640625 -15.515625 15.195312 -14.78125 16.46875 -13.3125 C 17.75 -11.84375 18.390625 -10.019531 18.390625 -7.84375 C 18.390625 -6.6875 18.1875 -5.609375 17.78125 -4.609375 C 17.382812 -3.617188 16.800781 -2.734375 16.03125 -1.953125 C 15.3125 -1.222656 14.5 -0.664062 13.59375 -0.28125 C 12.695312 0.101562 11.773438 0.296875 10.828125 0.296875 C 9.734375 0.296875 8.710938 -0.015625 7.765625 -0.640625 C 7.597656 -0.753906 7.5 -0.8125 7.46875 -0.8125 C 7.414062 -0.8125 7.375 -0.734375 7.34375 -0.578125 C 7.3125 -0.429688 7.296875 -0.195312 7.296875 0.125 C 7.296875 1.070312 7.316406 1.734375 7.359375 2.109375 C 7.398438 2.492188 7.46875 2.753906 7.5625 2.890625 C 7.632812 2.972656 7.96875 3.144531 8.5625 3.40625 C 9.15625 3.675781 9.453125 4.019531 9.453125 4.4375 C 9.453125 4.9375 9.078125 5.296875 8.328125 5.515625 C 7.578125 5.734375 6.332031 5.84375 4.59375 5.84375 C 3.050781 5.84375 1.972656 5.734375 1.359375 5.515625 C 0.753906 5.304688 0.453125 4.945312 0.453125 4.4375 C 0.453125 3.976562 0.769531 3.59375 1.40625 3.28125 C 1.632812 3.164062 1.796875 3.070312 1.890625 3 C 2.066406 2.851562 2.191406 2.296875 2.265625 1.328125 C 2.335938 0.367188 2.375 -1.691406 2.375 -4.859375 C 2.375 -7.441406 2.328125 -9.175781 2.234375 -10.0625 C 2.148438 -10.945312 1.992188 -11.476562 1.765625 -11.65625 C 1.722656 -11.6875 1.429688 -11.78125 0.890625 -11.9375 C 0.359375 -12.101562 0.09375 -12.425781 0.09375 -12.90625 C 0.09375 -13.144531 0.191406 -13.367188 0.390625 -13.578125 C 0.585938 -13.785156 0.890625 -13.984375 1.296875 -14.171875 C 2.191406 -14.585938 3.082031 -14.914062 3.96875 -15.15625 C 4.863281 -15.394531 5.628906 -15.515625 6.265625 -15.515625 C 6.671875 -15.515625 6.945312 -15.4375 7.09375 -15.28125 C 7.25 -15.125 7.328125 -14.84375 7.328125 -14.4375 Z M 7.328125 -14.4375 "/></g></g><g style="fill:#000000;fill-opacity:1;"><g transform="translate(237.503216, 221.106671)"><path style="stroke:none" d="M 0.78125 -7.421875 C 0.78125 -8.640625 1 -9.757812 1.4375 -10.78125 C 1.875 -11.8125 2.515625 -12.710938 3.359375 -13.484375 C 4.171875 -14.210938 5.078125 -14.765625 6.078125 -15.140625 C 7.085938 -15.523438 8.15625 -15.71875 9.28125 -15.71875 C 11.5625 -15.71875 13.441406 -14.992188 14.921875 -13.546875 C 16.398438 -12.097656 17.140625 -10.242188 17.140625 -7.984375 C 17.140625 -6.796875 16.9375 -5.695312 16.53125 -4.6875 C 16.132812 -3.6875 15.546875 -2.796875 14.765625 -2.015625 C 13.960938 -1.210938 13.054688 -0.601562 12.046875 -0.1875 C 11.046875 0.21875 9.960938 0.421875 8.796875 0.421875 C 6.429688 0.421875 4.503906 -0.300781 3.015625 -1.75 C 1.523438 -3.207031 0.78125 -5.097656 0.78125 -7.421875 Z M 9.546875 -2.34375 C 10.253906 -2.34375 10.804688 -2.644531 11.203125 -3.25 C 11.597656 -3.851562 11.796875 -4.703125 11.796875 -5.796875 C 11.796875 -7.785156 11.441406 -9.484375 10.734375 -10.890625 C 10.023438 -12.296875 9.207031 -13 8.28125 -13 C 7.59375 -13 7.0625 -12.675781 6.6875 -12.03125 C 6.3125 -11.394531 6.125 -10.492188 6.125 -9.328125 C 6.125 -7.410156 6.46875 -5.765625 7.15625 -4.390625 C 7.851562 -3.023438 8.648438 -2.34375 9.546875 -2.34375 Z M 9.546875 -2.34375 "/></g></g><g style="fill:#000000;fill-opacity:1;"><g transform="translate(255.426416, 221.106671)"><path style="stroke:none" d="M 1.65625 -19.65625 C 1.65625 -20.363281 1.988281 -20.972656 2.65625 -21.484375 C 3.320312 -21.992188 4.128906 -22.25 5.078125 -22.25 C 5.953125 -22.25 6.679688 -22.019531 7.265625 -21.5625 C 7.847656 -21.113281 8.140625 -20.550781 8.140625 -19.875 C 8.140625 -19.175781 7.816406 -18.582031 7.171875 -18.09375 C 6.523438 -17.613281 5.726562 -17.375 4.78125 -17.375 C 3.863281 -17.375 3.113281 -17.585938 2.53125 -18.015625 C 1.945312 -18.453125 1.65625 -19 1.65625 -19.65625 Z M 7.796875 -9.625 L 7.796875 -5.875 C 7.796875 -4.664062 7.820312 -3.851562 7.875 -3.4375 C 7.9375 -3.03125 8.039062 -2.765625 8.1875 -2.640625 C 8.289062 -2.566406 8.460938 -2.472656 8.703125 -2.359375 C 9.316406 -2.066406 9.625 -1.691406 9.625 -1.234375 C 9.625 -0.710938 9.3125 -0.347656 8.6875 -0.140625 C 8.0625 0.0664062 6.925781 0.171875 5.28125 0.171875 C 3.644531 0.171875 2.515625 0.0664062 1.890625 -0.140625 C 1.273438 -0.347656 0.96875 -0.710938 0.96875 -1.234375 C 0.96875 -1.691406 1.269531 -2.066406 1.875 -2.359375 C 2.113281 -2.472656 2.28125 -2.566406 2.375 -2.640625 C 2.53125 -2.773438 2.632812 -3.078125 2.6875 -3.546875 C 2.75 -4.015625 2.78125 -4.953125 2.78125 -6.359375 C 2.78125 -8.554688 2.738281 -9.945312 2.65625 -10.53125 C 2.582031 -11.113281 2.445312 -11.488281 2.25 -11.65625 C 2.207031 -11.6875 1.914062 -11.78125 1.375 -11.9375 C 0.84375 -12.101562 0.578125 -12.425781 0.578125 -12.90625 C 0.578125 -13.144531 0.675781 -13.367188 0.875 -13.578125 C 1.070312 -13.785156 1.367188 -13.984375 1.765625 -14.171875 C 2.679688 -14.585938 3.582031 -14.914062 4.46875 -15.15625 C 5.351562 -15.394531 6.113281 -15.515625 6.75 -15.515625 C 7.195312 -15.515625 7.488281 -15.425781 7.625 -15.25 C 7.769531 -15.082031 7.84375 -14.691406 7.84375 -14.078125 C 7.84375 -13.992188 7.835938 -13.78125 7.828125 -13.4375 C 7.804688 -12.09375 7.796875 -10.820312 7.796875 -9.625 Z M 7.796875 -9.625 "/></g></g><g style="fill:#000000;fill-opacity:1;"><g transform="translate(265.450534, 221.106671)"><path style="stroke:none" d="M 7.5 -14.4375 L 7.5 -13.515625 C 7.5 -13.378906 7.515625 -13.273438 7.546875 -13.203125 C 7.578125 -13.128906 7.625 -13.09375 7.6875 -13.09375 C 7.84375 -13.09375 8.023438 -13.234375 8.234375 -13.515625 C 8.359375 -13.679688 8.457031 -13.800781 8.53125 -13.875 C 9.050781 -14.457031 9.617188 -14.875 10.234375 -15.125 C 10.859375 -15.382812 11.609375 -15.515625 12.484375 -15.515625 C 14.453125 -15.515625 15.867188 -14.96875 16.734375 -13.875 C 17.609375 -12.78125 18.046875 -10.988281 18.046875 -8.5 L 18.046875 -5.953125 C 18.046875 -4.816406 18.0625 -4.035156 18.09375 -3.609375 C 18.132812 -3.179688 18.207031 -2.90625 18.3125 -2.78125 C 18.363281 -2.71875 18.632812 -2.550781 19.125 -2.28125 C 19.625 -2.007812 19.875 -1.660156 19.875 -1.234375 C 19.875 -0.710938 19.5625 -0.347656 18.9375 -0.140625 C 18.320312 0.0664062 17.191406 0.171875 15.546875 0.171875 C 13.898438 0.171875 12.765625 0.0664062 12.140625 -0.140625 C 11.515625 -0.347656 11.203125 -0.710938 11.203125 -1.234375 C 11.203125 -1.691406 11.515625 -2.066406 12.140625 -2.359375 C 12.378906 -2.472656 12.546875 -2.566406 12.640625 -2.640625 C 12.785156 -2.765625 12.882812 -3.035156 12.9375 -3.453125 C 13 -3.867188 13.03125 -4.6875 13.03125 -5.90625 C 13.03125 -8.4375 12.847656 -10.0625 12.484375 -10.78125 C 12.117188 -11.5 11.460938 -11.859375 10.515625 -11.859375 C 9.460938 -11.859375 8.695312 -11.414062 8.21875 -10.53125 C 7.738281 -9.65625 7.5 -8.242188 7.5 -6.296875 C 7.5 -5.160156 7.519531 -4.328125 7.5625 -3.796875 C 7.613281 -3.273438 7.691406 -2.941406 7.796875 -2.796875 C 7.859375 -2.722656 8.128906 -2.550781 8.609375 -2.28125 C 9.085938 -2.007812 9.328125 -1.660156 9.328125 -1.234375 C 9.328125 -0.710938 9.015625 -0.347656 8.390625 -0.140625 C 7.773438 0.0664062 6.648438 0.171875 5.015625 0.171875 C 3.367188 0.171875 2.226562 0.0664062 1.59375 -0.140625 C 0.96875 -0.347656 0.65625 -0.710938 0.65625 -1.234375 C 0.65625 -1.691406 0.96875 -2.066406 1.59375 -2.359375 C 1.84375 -2.472656 2.007812 -2.566406 2.09375 -2.640625 C 2.25 -2.765625 2.359375 -3.0625 2.421875 -3.53125 C 2.484375 -4 2.515625 -5.101562 2.515625 -6.84375 C 2.515625 -8.71875 2.472656 -9.945312 2.390625 -10.53125 C 2.316406 -11.125 2.1875 -11.492188 2 -11.640625 C 1.957031 -11.671875 1.660156 -11.769531 1.109375 -11.9375 C 0.566406 -12.101562 0.296875 -12.425781 0.296875 -12.90625 C 0.296875 -13.144531 0.394531 -13.367188 0.59375 -13.578125 C 0.789062 -13.785156 1.09375 -13.984375 1.5 -14.171875 C 2.394531 -14.585938 3.289062 -14.914062 4.1875 -15.15625 C 5.082031 -15.394531 5.847656 -15.515625 6.484375 -15.515625 C 6.867188 -15.515625 7.132812 -15.4375 7.28125 -15.28125 C 7.425781 -15.132812 7.5 -14.851562 7.5 -14.4375 Z M 7.5 -14.4375 "/></g></g><g style="fill:#000000;fill-opacity:1;"><g transform="translate(285.322849, 221.106671)"><path style="stroke:none" d="M 2.546875 -5.015625 L 2.609375 -12.875 L 0.8125 -12.875 C 0.550781 -12.875 0.378906 -12.925781 0.296875 -13.03125 C 0.210938 -13.144531 0.171875 -13.484375 0.171875 -14.046875 C 0.171875 -14.523438 0.53125 -15.019531 1.25 -15.53125 C 1.394531 -15.644531 1.507812 -15.726562 1.59375 -15.78125 C 1.832031 -15.96875 2.171875 -16.226562 2.609375 -16.5625 C 4.617188 -18.082031 5.953125 -18.84375 6.609375 -18.84375 C 6.992188 -18.84375 7.238281 -18.789062 7.34375 -18.6875 C 7.445312 -18.59375 7.5 -18.285156 7.5 -17.765625 L 7.5 -15.265625 L 11.21875 -15.265625 C 11.539062 -15.265625 11.742188 -15.222656 11.828125 -15.140625 C 11.921875 -15.054688 11.96875 -14.878906 11.96875 -14.609375 C 11.96875 -13.828125 11.921875 -13.347656 11.828125 -13.171875 C 11.734375 -12.992188 11.453125 -12.90625 10.984375 -12.90625 L 7.5 -12.90625 L 7.5 -5.8125 C 7.5 -4.550781 7.613281 -3.695312 7.84375 -3.25 C 8.070312 -2.800781 8.476562 -2.578125 9.0625 -2.578125 C 9.4375 -2.578125 9.90625 -2.703125 10.46875 -2.953125 C 11.039062 -3.203125 11.4375 -3.328125 11.65625 -3.328125 C 11.882812 -3.328125 12.082031 -3.238281 12.25 -3.0625 C 12.425781 -2.894531 12.515625 -2.6875 12.515625 -2.4375 C 12.515625 -1.726562 11.988281 -1.066406 10.9375 -0.453125 C 9.894531 0.148438 8.691406 0.453125 7.328125 0.453125 C 5.648438 0.453125 4.429688 0.0351562 3.671875 -0.796875 C 2.921875 -1.628906 2.546875 -2.992188 2.546875 -4.890625 Z M 2.546875 -5.015625 "/></g></g><g style="fill:#000000;fill-opacity:1;"><g transform="translate(297.838327, 221.106671)"><path style="stroke:none" d="M 7.5 -14.4375 L 7.5 -13.515625 C 7.5 -13.378906 7.515625 -13.273438 7.546875 -13.203125 C 7.578125 -13.128906 7.625 -13.09375 7.6875 -13.09375 C 7.84375 -13.09375 8.066406 -13.269531 8.359375 -13.625 C 8.566406 -13.882812 8.738281 -14.085938 8.875 -14.234375 C 9.3125 -14.660156 9.8125 -14.976562 10.375 -15.1875 C 10.945312 -15.40625 11.59375 -15.515625 12.3125 -15.515625 C 13.007812 -15.515625 13.644531 -15.40625 14.21875 -15.1875 C 14.800781 -14.976562 15.375 -14.640625 15.9375 -14.171875 C 16.164062 -13.984375 16.394531 -13.726562 16.625 -13.40625 C 16.851562 -13.09375 17.015625 -12.9375 17.109375 -12.9375 C 17.242188 -12.9375 17.453125 -13.078125 17.734375 -13.359375 C 17.847656 -13.472656 17.941406 -13.5625 18.015625 -13.625 C 18.691406 -14.269531 19.367188 -14.742188 20.046875 -15.046875 C 20.734375 -15.359375 21.46875 -15.515625 22.25 -15.515625 C 23.050781 -15.515625 23.796875 -15.363281 24.484375 -15.0625 C 25.179688 -14.769531 25.742188 -14.359375 26.171875 -13.828125 C 26.617188 -13.285156 26.941406 -12.601562 27.140625 -11.78125 C 27.335938 -10.957031 27.4375 -9.8125 27.4375 -8.34375 L 27.4375 -6.03125 C 27.4375 -4.882812 27.453125 -4.085938 27.484375 -3.640625 C 27.523438 -3.203125 27.597656 -2.914062 27.703125 -2.78125 C 27.753906 -2.71875 28.023438 -2.550781 28.515625 -2.28125 C 29.015625 -2.007812 29.265625 -1.660156 29.265625 -1.234375 C 29.265625 -0.710938 28.953125 -0.347656 28.328125 -0.140625 C 27.710938 0.0664062 26.582031 0.171875 24.9375 0.171875 C 23.289062 0.171875 22.15625 0.0664062 21.53125 -0.140625 C 20.90625 -0.347656 20.59375 -0.710938 20.59375 -1.234375 C 20.59375 -1.691406 20.90625 -2.066406 21.53125 -2.359375 C 21.769531 -2.472656 21.9375 -2.566406 22.03125 -2.640625 C 22.175781 -2.765625 22.273438 -3.035156 22.328125 -3.453125 C 22.390625 -3.878906 22.421875 -4.722656 22.421875 -5.984375 C 22.421875 -8.421875 22.253906 -9.992188 21.921875 -10.703125 C 21.585938 -11.410156 20.984375 -11.765625 20.109375 -11.765625 C 19.222656 -11.765625 18.5625 -11.347656 18.125 -10.515625 C 17.6875 -9.679688 17.46875 -8.410156 17.46875 -6.703125 C 17.46875 -5.410156 17.488281 -4.476562 17.53125 -3.90625 C 17.582031 -3.332031 17.660156 -2.957031 17.765625 -2.78125 C 17.816406 -2.71875 18.085938 -2.550781 18.578125 -2.28125 C 19.078125 -2.007812 19.328125 -1.660156 19.328125 -1.234375 C 19.328125 -0.710938 19.007812 -0.347656 18.375 -0.140625 C 17.75 0.0664062 16.617188 0.171875 14.984375 0.171875 C 13.335938 0.171875 12.203125 0.0664062 11.578125 -0.140625 C 10.960938 -0.347656 10.65625 -0.710938 10.65625 -1.234375 C 10.65625 -1.691406 10.960938 -2.066406 11.578125 -2.359375 C 11.816406 -2.472656 11.976562 -2.566406 12.0625 -2.640625 C 12.21875 -2.773438 12.328125 -3.070312 12.390625 -3.53125 C 12.453125 -3.988281 12.484375 -4.804688 12.484375 -5.984375 C 12.484375 -8.390625 12.3125 -9.953125 11.96875 -10.671875 C 11.632812 -11.398438 11.023438 -11.765625 10.140625 -11.765625 C 9.234375 -11.765625 8.566406 -11.332031 8.140625 -10.46875 C 7.710938 -9.601562 7.5 -8.242188 7.5 -6.390625 C 7.5 -5.203125 7.519531 -4.34375 7.5625 -3.8125 C 7.613281 -3.28125 7.691406 -2.941406 7.796875 -2.796875 C 7.859375 -2.722656 8.128906 -2.550781 8.609375 -2.28125 C 9.085938 -2.007812 9.328125 -1.660156 9.328125 -1.234375 C 9.328125 -0.710938 9.015625 -0.347656 8.390625 -0.140625 C 7.773438 0.0664062 6.648438 0.171875 5.015625 0.171875 C 3.367188 0.171875 2.226562 0.0664062 1.59375 -0.140625 C 0.96875 -0.347656 0.65625 -0.710938 0.65625 -1.234375 C 0.65625 -1.691406 0.96875 -2.066406 1.59375 -2.359375 C 1.84375 -2.472656 2.007812 -2.566406 2.09375 -2.640625 C 2.25 -2.765625 2.359375 -3.0625 2.421875 -3.53125 C 2.484375 -4 2.515625 -5.101562 2.515625 -6.84375 C 2.515625 -8.71875 2.472656 -9.945312 2.390625 -10.53125 C 2.316406 -11.125 2.1875 -11.492188 2 -11.640625 C 1.957031 -11.671875 1.660156 -11.769531 1.109375 -11.9375 C 0.566406 -12.101562 0.296875 -12.425781 0.296875 -12.90625 C 0.296875 -13.144531 0.394531 -13.367188 0.59375 -13.578125 C 0.789062 -13.785156 1.09375 -13.984375 1.5 -14.171875 C 2.394531 -14.585938 3.289062 -14.914062 4.1875 -15.15625 C 5.082031 -15.394531 5.847656 -15.515625 6.484375 -15.515625 C 6.867188 -15.515625 7.132812 -15.4375 7.28125 -15.28125 C 7.425781 -15.132812 7.5 -14.851562 7.5 -14.4375 Z M 7.5 -14.4375 "/></g></g><g style="fill:#000000;fill-opacity:1;"><g transform="translate(327.104596, 221.106671)"><path style="stroke:none" d="M 14.34375 -7.390625 L 6.984375 -7.390625 C 6.648438 -7.390625 6.4375 -7.351562 6.34375 -7.28125 C 6.257812 -7.21875 6.21875 -7.09375 6.21875 -6.90625 C 6.21875 -5.863281 6.597656 -4.960938 7.359375 -4.203125 C 8.128906 -3.441406 9.066406 -3.0625 10.171875 -3.0625 C 10.992188 -3.0625 11.859375 -3.273438 12.765625 -3.703125 C 13.671875 -4.140625 14.195312 -4.359375 14.34375 -4.359375 C 14.625 -4.359375 14.863281 -4.269531 15.0625 -4.09375 C 15.269531 -3.925781 15.375 -3.722656 15.375 -3.484375 C 15.375 -3.097656 15.269531 -2.738281 15.0625 -2.40625 C 14.863281 -2.082031 14.523438 -1.726562 14.046875 -1.34375 C 13.316406 -0.769531 12.492188 -0.332031 11.578125 -0.03125 C 10.671875 0.269531 9.710938 0.421875 8.703125 0.421875 C 6.347656 0.421875 4.4375 -0.3125 2.96875 -1.78125 C 1.507812 -3.25 0.78125 -5.15625 0.78125 -7.5 C 0.78125 -9.875 1.535156 -11.828125 3.046875 -13.359375 C 4.554688 -14.898438 6.484375 -15.671875 8.828125 -15.671875 C 10.859375 -15.671875 12.523438 -15.097656 13.828125 -13.953125 C 15.128906 -12.804688 15.78125 -11.351562 15.78125 -9.59375 C 15.78125 -8.664062 15.679688 -8.066406 15.484375 -7.796875 C 15.296875 -7.523438 14.914062 -7.390625 14.34375 -7.390625 Z M 6.703125 -9.578125 L 10.5625 -9.578125 C 10.769531 -9.578125 10.914062 -9.613281 11 -9.6875 C 11.09375 -9.769531 11.140625 -9.910156 11.140625 -10.109375 C 11.140625 -11.015625 10.898438 -11.75 10.421875 -12.3125 C 9.941406 -12.882812 9.332031 -13.171875 8.59375 -13.171875 C 7.914062 -13.171875 7.332031 -12.863281 6.84375 -12.25 C 6.363281 -11.632812 6.125 -10.882812 6.125 -10 C 6.125 -9.84375 6.164062 -9.734375 6.25 -9.671875 C 6.332031 -9.609375 6.484375 -9.578125 6.703125 -9.578125 Z M 6.703125 -9.578125 "/></g></g><g style="fill:#000000;fill-opacity:1;"><g transform="translate(343.430384, 221.106671)"><path style="stroke:none" d="M 7.5 -14.4375 L 7.5 -13.515625 C 7.5 -13.378906 7.515625 -13.273438 7.546875 -13.203125 C 7.578125 -13.128906 7.625 -13.09375 7.6875 -13.09375 C 7.84375 -13.09375 8.023438 -13.234375 8.234375 -13.515625 C 8.359375 -13.679688 8.457031 -13.800781 8.53125 -13.875 C 9.050781 -14.457031 9.617188 -14.875 10.234375 -15.125 C 10.859375 -15.382812 11.609375 -15.515625 12.484375 -15.515625 C 14.453125 -15.515625 15.867188 -14.96875 16.734375 -13.875 C 17.609375 -12.78125 18.046875 -10.988281 18.046875 -8.5 L 18.046875 -5.953125 C 18.046875 -4.816406 18.0625 -4.035156 18.09375 -3.609375 C 18.132812 -3.179688 18.207031 -2.90625 18.3125 -2.78125 C 18.363281 -2.71875 18.632812 -2.550781 19.125 -2.28125 C 19.625 -2.007812 19.875 -1.660156 19.875 -1.234375 C 19.875 -0.710938 19.5625 -0.347656 18.9375 -0.140625 C 18.320312 0.0664062 17.191406 0.171875 15.546875 0.171875 C 13.898438 0.171875 12.765625 0.0664062 12.140625 -0.140625 C 11.515625 -0.347656 11.203125 -0.710938 11.203125 -1.234375 C 11.203125 -1.691406 11.515625 -2.066406 12.140625 -2.359375 C 12.378906 -2.472656 12.546875 -2.566406 12.640625 -2.640625 C 12.785156 -2.765625 12.882812 -3.035156 12.9375 -3.453125 C 13 -3.867188 13.03125 -4.6875 13.03125 -5.90625 C 13.03125 -8.4375 12.847656 -10.0625 12.484375 -10.78125 C 12.117188 -11.5 11.460938 -11.859375 10.515625 -11.859375 C 9.460938 -11.859375 8.695312 -11.414062 8.21875 -10.53125 C 7.738281 -9.65625 7.5 -8.242188 7.5 -6.296875 C 7.5 -5.160156 7.519531 -4.328125 7.5625 -3.796875 C 7.613281 -3.273438 7.691406 -2.941406 7.796875 -2.796875 C 7.859375 -2.722656 8.128906 -2.550781 8.609375 -2.28125 C 9.085938 -2.007812 9.328125 -1.660156 9.328125 -1.234375 C 9.328125 -0.710938 9.015625 -0.347656 8.390625 -0.140625 C 7.773438 0.0664062 6.648438 0.171875 5.015625 0.171875 C 3.367188 0.171875 2.226562 0.0664062 1.59375 -0.140625 C 0.96875 -0.347656 0.65625 -0.710938 0.65625 -1.234375 C 0.65625 -1.691406 0.96875 -2.066406 1.59375 -2.359375 C 1.84375 -2.472656 2.007812 -2.566406 2.09375 -2.640625 C 2.25 -2.765625 2.359375 -3.0625 2.421875 -3.53125 C 2.484375 -4 2.515625 -5.101562 2.515625 -6.84375 C 2.515625 -8.71875 2.472656 -9.945312 2.390625 -10.53125 C 2.316406 -11.125 2.1875 -11.492188 2 -11.640625 C 1.957031 -11.671875 1.660156 -11.769531 1.109375 -11.9375 C 0.566406 -12.101562 0.296875 -12.425781 0.296875 -12.90625 C 0.296875 -13.144531 0.394531 -13.367188 0.59375 -13.578125 C 0.789062 -13.785156 1.09375 -13.984375 1.5 -14.171875 C 2.394531 -14.585938 3.289062 -14.914062 4.1875 -15.15625 C 5.082031 -15.394531 5.847656 -15.515625 6.484375 -15.515625 C 6.867188 -15.515625 7.132812 -15.4375 7.28125 -15.28125 C 7.425781 -15.132812 7.5 -14.851562 7.5 -14.4375 Z M 7.5 -14.4375 "/></g></g><g style="fill:#000000;fill-opacity:1;"><g transform="translate(363.302739, 221.106671)"><path style="stroke:none" d="M 2.546875 -5.015625 L 2.609375 -12.875 L 0.8125 -12.875 C 0.550781 -12.875 0.378906 -12.925781 0.296875 -13.03125 C 0.210938 -13.144531 0.171875 -13.484375 0.171875 -14.046875 C 0.171875 -14.523438 0.53125 -15.019531 1.25 -15.53125 C 1.394531 -15.644531 1.507812 -15.726562 1.59375 -15.78125 C 1.832031 -15.96875 2.171875 -16.226562 2.609375 -16.5625 C 4.617188 -18.082031 5.953125 -18.84375 6.609375 -18.84375 C 6.992188 -18.84375 7.238281 -18.789062 7.34375 -18.6875 C 7.445312 -18.59375 7.5 -18.285156 7.5 -17.765625 L 7.5 -15.265625 L 11.21875 -15.265625 C 11.539062 -15.265625 11.742188 -15.222656 11.828125 -15.140625 C 11.921875 -15.054688 11.96875 -14.878906 11.96875 -14.609375 C 11.96875 -13.828125 11.921875 -13.347656 11.828125 -13.171875 C 11.734375 -12.992188 11.453125 -12.90625 10.984375 -12.90625 L 7.5 -12.90625 L 7.5 -5.8125 C 7.5 -4.550781 7.613281 -3.695312 7.84375 -3.25 C 8.070312 -2.800781 8.476562 -2.578125 9.0625 -2.578125 C 9.4375 -2.578125 9.90625 -2.703125 10.46875 -2.953125 C 11.039062 -3.203125 11.4375 -3.328125 11.65625 -3.328125 C 11.882812 -3.328125 12.082031 -3.238281 12.25 -3.0625 C 12.425781 -2.894531 12.515625 -2.6875 12.515625 -2.4375 C 12.515625 -1.726562 11.988281 -1.066406 10.9375 -0.453125 C 9.894531 0.148438 8.691406 0.453125 7.328125 0.453125 C 5.648438 0.453125 4.429688 0.0351562 3.671875 -0.796875 C 2.921875 -1.628906 2.546875 -2.992188 2.546875 -4.890625 Z M 2.546875 -5.015625 "/></g></g><g style="fill:#000000;fill-opacity:1;"><g transform="translate(375.824038, 221.106671)"><path style="stroke:none" d=""/></g></g></g></svg>