<svg viewBox="0 0 512 512" xmlns="http://www.w3.org/2000/svg"><g id="Layer_2" data-name="Layer 2"><g id="Layer_copy_4" data-name="Layer copy 4"><g id="_7" data-name="7"><path id="background" d="m256 12a244.07 244.07 0 0 1 95 468.83 244.07 244.07 0 0 1 -190-449.66 242.42 242.42 0 0 1 95-19.17m0-12c-141.38 0-256 114.62-256 256s114.62 256 256 256 256-114.62 256-256-114.62-256-256-256z"/><path d="m249.7 209.09a26.34 26.34 0 0 0 -.75 6.25 26.65 26.65 0 0 0 21.32 26.08 26.6 26.6 0 1 0 22.29-5.61 26.61 26.61 0 1 0 -37.56-37.36 26.61 26.61 0 1 0 -51.72 0 26.61 26.61 0 1 0 5.3 10.62 26.59 26.59 0 0 0 41.11 0zm52.17 52.8a14.61 14.61 0 1 1 -14.61-14.61 14.63 14.63 0 0 1 14.61 14.61zm-26.3-61.17a14.62 14.62 0 1 1 -14.57 14.62 14.64 14.64 0 0 1 14.57-14.62zm-92.84 29.28a14.62 14.62 0 1 1 14.61-14.61 14.63 14.63 0 0 1 -14.61 14.61zm46.42-23.15a14.62 14.62 0 1 1 14.61-14.62 14.64 14.64 0 0 1 -14.61 14.57z"/><path d="m425.07 203a12 12 0 0 0 -14.94-1.29l-8.46 5.49c-2.56 1.53-5.54 3.36-8.38 5.47-14.05 10.33-27.42 21.33-41.07 33.33q-.56-5.86-1.66-11.84c-6.19-33.31-23.57-60-51.66-79.21-20.7-14.19-44.51-21.27-70.78-21a129 129 0 0 0 -53.49 11.73c-23.93 11.09-41.33 26.32-53.19 46.41-10.86 18.42-15.63 37.57-14.19 56.94 1.92 25.68 14.39 45.85 37.07 60a77.52 77.52 0 0 0 44.79 11.18h4.94 8.74.4c-.07.1-.17.22-.28.36-8 9.78-10.38 21-6.85 32.46 4.76 15.4 18.19 25.15 34.47 25.14h1.44a145.86 145.86 0 0 0 26.3-3.23 101.11 101.11 0 0 0 23.2 3.25h.53c26.59 0 45.81-11.75 55.64-34 3.52-6.85 5.13-14.67 5.72-22.08 2.15-2.34 4.32-4.66 6.49-7 4.88-5.23 9.93-10.65 14.83-16.07 20.07-22.18 35.66-40.82 49.06-58.65l1.06-1.42a107.73 107.73 0 0 0 8.51-12.45h.17l4.09-8.88a12 12 0 0 0 -2.5-14.64zm-193.52 163.08c-11.53.39-20.72-6-24-16.67-2.35-7.63-.83-14.61 4.67-21.32 4.4-5.39 3.58-10.16 2.11-13.21-1.23-2.55-4.33-6.76-11.34-6.76h-.52c-2.55.07-5.1.06-8.33 0h-5.44c-9.71.48-24.17-.77-38-9.38q-14.43-9-22.33-21.69a63 63 0 0 1 -9.11-29c-1.26-16.87 3-33.68 12.55-49.95 10.59-18 26.26-31.59 47.92-41.66a117.27 117.27 0 0 1 48.55-10.61c23.74-.22 45.25 6.12 63.87 18.89 25.37 17.39 41.06 41.45 46.65 71.51a116.55 116.55 0 0 1 2 19.86c-8.16 7.37-16.52 15.13-25.25 23.36a105.33 105.33 0 0 0 -7.32 7.91c-20.62 1.77-30.61 10.14-32.44 11.85-9.54 8-13.21 18.85-15.53 28.45-.47 1.94-.91 3.88-1.35 5.82-.81 3.55-1.57 6.91-2.5 10.24s-2.69 4.89-6 5.22c-6 .6-10.12 4.49-10.75 10.15a12 12 0 0 0 1 6.3c-3.05.39-6.06.61-9.11.69zm97.15-31.51-2 4.48c-7.6 17.39-22 26.47-42.64 27-.66 0-1.33 0-2 0h-.45a91.17 91.17 0 0 1 -23.19-3.65q-2.64-.76-5.25-1.68c7.39-1.3 12.58-6.11 14.7-13.71 1-3.62 1.85-7.28 2.65-10.82.43-1.88.85-3.77 1.31-5.64 2-8.13 4.74-16.43 11.67-22.16l.4-.36c.09-.08 6.76-6.3 22.19-8.31a8.19 8.19 0 0 0 1.05 1.25l15.4 15.06 7.44 7.28a7.43 7.43 0 0 0 1.08.88c0 .29-.07.57-.12.86a48.15 48.15 0 0 1 -2.24 9.52zm88.24-122.57-.69 1.47h-.05l-1.82 4.05c-2.23 5-5.6 9.43-9.16 14.15l-1.09 1.44c-13.13 17.5-28.54 35.89-48.36 57.78-4.17 4.61-8.48 9.26-12.7 13.79-.32.35-.65.69-1 1s-.7.75-1.05 1.12l-5.14 5.52-4.55-4.45-2.53-2.47-6.18-6.05-4.85-4.74a83.51 83.51 0 0 1 5.92-6.38l.81-.76q7.66-7.23 15-14 6.69-6.17 13.18-12c16.05-14.37 31.44-27.24 47.73-39.29 2.45-1.81 5.16-3.47 7.48-4.85l8.76-5.69.1-.07a.79.79 0 0 1 .23.18.82.82 0 0 1 -.04.25z"/></g></g></g></svg>