<svg enable-background="new 0 0 512 512" viewBox="0 0 512 512" xmlns="http://www.w3.org/2000/svg"><g id="_x32_1_Notification_Bell"><g><path d="m256 6c-137.852 0-250 112.148-250 250s112.148 250 250 250 250-112.148 250-250-112.148-250-250-250zm0 486.877c-130.613 0-236.877-106.264-236.877-236.877s106.264-236.877 236.877-236.877 236.877 106.264 236.877 236.877-106.264 236.877-236.877 236.877z"/><path d="m374.215 124.172c-3.007-1.999-7.09-1.194-9.102 1.815-2.012 3.014-1.2 7.09 1.812 9.104 18.391 12.278 27.569 28.989 28.059 51.094.079 3.573 2.999 6.418 6.557 6.418h.149c3.622-.082 6.495-3.086 6.413-6.705-.582-26.334-11.986-47.101-33.888-61.726z"/><path d="m117.015 186.185c.49-22.105 9.666-38.816 28.059-51.094 3.012-2.015 3.824-6.09 1.812-9.104-2.012-3.009-6.09-3.819-9.102-1.815-21.905 14.63-33.308 35.397-33.887 61.726-.082 3.624 2.791 6.623 6.416 6.705h.146c3.558 0 6.48-2.845 6.556-6.418z"/><path d="m380.487 357.545v-123.932c0-58.271-40.252-108.411-96.482-121.253v-14.968c0-7.443-2.922-14.461-8.22-19.757-5.301-5.301-12.319-8.223-19.759-8.223-15.456 0-28.031 12.549-28.031 27.979v14.964c-56.233 12.836-96.485 62.977-96.485 121.258v123.933c-11.306 2.58-19.788 12.671-19.788 24.751 0 14.026 11.409 25.437 25.432 25.437h82.869c.646 19.322 16.526 34.854 36.002 34.854 19.449 0 35.304-15.531 35.949-34.854h82.872c14.023 0 25.432-11.411 25.432-25.437-.001-12.081-8.482-22.172-19.791-24.752zm-235.854-123.932c0-53.78 38.314-99.809 91.102-109.452 3.117-.569 5.383-3.286 5.383-6.454v-20.315c0-8.192 6.687-14.856 14.907-14.856 3.934 0 7.656 1.553 10.481 4.383 2.822 2.814 4.375 6.536 4.375 10.473v20.316c0 3.168 2.266 5.885 5.383 6.454 52.786 9.648 91.1 55.682 91.1 109.452v123.252h-222.731zm111.393 195.851c-12.235 0-22.174-9.651-22.818-21.73h45.582c-.642 12.08-10.559 21.73-22.764 21.73zm118.82-34.854h-237.692c-6.787 0-12.308-5.526-12.308-12.313s5.521-12.308 12.308-12.308h.918 235.854.92c6.787 0 12.308 5.521 12.308 12.308s-5.521 12.313-12.308 12.313z"/></g></g><g id="Layer_1"/></svg>