<svg xmlns="http://www.w3.org/2000/svg" xmlns:xlink="http://www.w3.org/1999/xlink" width="1366" zoomAndPan="magnify" viewBox="0 0 1024.5 576" height="768" preserveAspectRatio="xMidYMid meet" version="1.0"><defs><g/><clipPath id="2e2db9bad5"><path d="M 0 0.140625 L 1024 0.140625 L 1024 575.859375 L 0 575.859375 Z M 0 0.140625 " clip-rule="nonzero"/></clipPath><clipPath id="edbbcded76"><path d="M 284.589844 0.140625 L 755.792969 0.140625 L 755.792969 570.738281 L 284.589844 570.738281 Z M 284.589844 0.140625 " clip-rule="nonzero"/></clipPath><clipPath id="dc1fa612ee"><path d="M 435.246094 24.695312 L 413.347656 79.449219 C 407.414062 94.277344 393.054688 104 377.082031 104 L 323.652344 104 C 302.078125 104 284.589844 121.488281 284.589844 143.0625 L 284.589844 531.484375 C 284.589844 553.058594 302.078125 570.546875 323.652344 570.546875 L 716.734375 570.546875 C 738.304688 570.546875 755.792969 553.058594 755.792969 531.484375 L 755.792969 39.199219 C 755.792969 17.628906 738.304688 0.140625 716.734375 0.140625 L 471.515625 0.140625 C 455.542969 0.140625 441.179688 9.863281 435.246094 24.695312 Z M 435.246094 24.695312 " clip-rule="nonzero"/></clipPath><clipPath id="d7611f5ee0"><path d="M 317.65625 8.902344 L 404.449219 8.902344 L 404.449219 95.695312 L 317.65625 95.695312 Z M 317.65625 8.902344 " clip-rule="nonzero"/></clipPath><clipPath id="b3bc4451c7"><path d="M 361.054688 8.902344 C 337.085938 8.902344 317.65625 28.332031 317.65625 52.300781 C 317.65625 76.265625 337.085938 95.695312 361.054688 95.695312 C 385.019531 95.695312 404.449219 76.265625 404.449219 52.300781 C 404.449219 28.332031 385.019531 8.902344 361.054688 8.902344 Z M 361.054688 8.902344 " clip-rule="nonzero"/></clipPath><clipPath id="c46d8f4c0e"><path d="M 342.160156 19 L 379.640625 19 L 379.640625 73.613281 L 342.160156 73.613281 Z M 342.160156 19 " clip-rule="nonzero"/></clipPath><clipPath id="549a1f15f9"><path d="M 609 498.558594 L 679.652344 498.558594 L 679.652344 575.859375 L 609 575.859375 Z M 609 498.558594 " clip-rule="nonzero"/></clipPath><clipPath id="b04475d50d"><path d="M 361.054688 456.109375 L 673 456.109375 L 673 556 L 361.054688 556 Z M 361.054688 456.109375 " clip-rule="nonzero"/></clipPath></defs><g clip-path="url(#2e2db9bad5)"><path fill="#ffffff" d="M 0 0.140625 L 1024 0.140625 L 1024 575.859375 L 0 575.859375 Z M 0 0.140625 " fill-opacity="1" fill-rule="nonzero"/><path fill="#fdfaf0" d="M 0 0.140625 L 1024 0.140625 L 1024 575.859375 L 0 575.859375 Z M 0 0.140625 " fill-opacity="1" fill-rule="nonzero"/></g><g clip-path="url(#edbbcded76)"><g clip-path="url(#dc1fa612ee)"><path fill="#7dcfb6" d="M 284.589844 0.140625 L 755.792969 0.140625 L 755.792969 570.738281 L 284.589844 570.738281 Z M 284.589844 0.140625 " fill-opacity="1" fill-rule="nonzero"/></g></g><path stroke-linecap="round" transform="matrix(0.749634, 0, 0, 0.749634, 321.790224, 159.186981)" fill="none" stroke-linejoin="miter" d="M 1.999427 2.001668 L 527.328624 2.001668 " stroke="#000000" stroke-width="4" stroke-opacity="1" stroke-miterlimit="4"/><path stroke-linecap="round" transform="matrix(0.749634, 0, 0, 0.749634, 321.790224, 447.524954)" fill="none" stroke-linejoin="miter" d="M 1.999427 1.998953 L 527.328624 1.998953 " stroke="#000000" stroke-width="4" stroke-opacity="1" stroke-miterlimit="4"/><g clip-path="url(#d7611f5ee0)"><g clip-path="url(#b3bc4451c7)"><path stroke-linecap="butt" transform="matrix(0.749634, 0, 0, 0.749634, 317.656079, 8.903379)" fill="none" stroke-linejoin="miter" d="M 57.89305 -0.00138124 C 25.91912 -0.00138124 0.000227646 25.917512 0.000227646 57.891441 C 0.000227646 89.86016 25.91912 115.779053 57.89305 115.779053 C 89.861769 115.779053 115.780662 89.86016 115.780662 57.891441 C 115.780662 25.917512 89.861769 -0.00138124 57.89305 -0.00138124 Z M 57.89305 -0.00138124 " stroke="#000000" stroke-width="4" stroke-opacity="1" stroke-miterlimit="4"/></g></g><g clip-path="url(#c46d8f4c0e)"><path fill="#000000" d="M 359.769531 23.769531 C 359.761719 22.605469 359.769531 21.445312 359.773438 20.28125 C 359.765625 20.121094 359.789062 19.96875 359.84375 19.820312 C 359.898438 19.671875 359.980469 19.539062 360.085938 19.421875 C 360.195312 19.308594 360.320312 19.21875 360.464844 19.15625 C 360.609375 19.09375 360.761719 19.0625 360.917969 19.0625 C 361.074219 19.058594 361.222656 19.089844 361.367188 19.152344 C 361.511719 19.214844 361.640625 19.304688 361.75 19.417969 C 361.855469 19.53125 361.9375 19.664062 361.992188 19.8125 C 362.050781 19.960938 362.074219 20.113281 362.066406 20.273438 C 362.074219 20.679688 362.066406 21.085938 362.066406 21.496094 L 362.066406 21.761719 L 362.074219 22.554688 C 362.074219 22.960938 362.074219 23.367188 362.066406 23.777344 C 362.074219 24.136719 361.953125 24.449219 361.707031 24.710938 C 361.484375 24.917969 361.222656 25.019531 360.921875 25.011719 L 360.894531 25.011719 C 360.734375 25.011719 360.582031 24.980469 360.4375 24.917969 C 360.292969 24.851562 360.164062 24.761719 360.058594 24.640625 C 359.949219 24.523438 359.871094 24.390625 359.820312 24.238281 C 359.769531 24.085938 359.753906 23.929688 359.769531 23.769531 Z M 346.574219 47.8125 L 346.449219 47.832031 C 346.335938 47.835938 346.226562 47.867188 346.128906 47.921875 L 345.558594 48.25 C 344.621094 48.792969 343.6875 49.332031 342.761719 49.894531 C 342.523438 50.058594 342.375 50.28125 342.316406 50.566406 C 342.253906 50.851562 342.300781 51.117188 342.449219 51.367188 C 342.65625 51.769531 342.984375 51.972656 343.429688 51.976562 C 343.597656 51.980469 343.757812 51.941406 343.90625 51.859375 C 344.96875 51.269531 346.058594 50.636719 347.246094 49.914062 C 347.460938 49.777344 347.605469 49.589844 347.683594 49.34375 C 347.761719 49.101562 347.753906 48.859375 347.65625 48.625 C 347.585938 48.378906 347.449219 48.183594 347.25 48.035156 C 347.046875 47.882812 346.824219 47.808594 346.574219 47.8125 Z M 342.386719 30.789062 C 342.464844 31.015625 342.601562 31.203125 342.796875 31.34375 C 343.832031 31.988281 344.90625 32.621094 346.09375 33.273438 C 346.25 33.363281 346.414062 33.40625 346.59375 33.40625 C 346.695312 33.40625 346.792969 33.390625 346.890625 33.363281 C 347.203125 33.265625 347.4375 33.066406 347.585938 32.773438 C 347.730469 32.511719 347.769531 32.238281 347.695312 31.945312 C 347.625 31.65625 347.460938 31.429688 347.210938 31.273438 C 346.238281 30.6875 345.101562 30.007812 343.949219 29.375 C 343.601562 29.179688 343.257812 29.183594 342.914062 29.382812 C 342.496094 29.644531 342.292969 30.023438 342.296875 30.519531 L 342.296875 30.617188 L 342.347656 30.710938 C 342.363281 30.734375 342.378906 30.761719 342.386719 30.789062 Z M 379.613281 30.429688 C 379.574219 29.957031 379.347656 29.609375 378.933594 29.390625 C 378.527344 29.191406 378.132812 29.207031 377.746094 29.441406 C 376.730469 30.015625 375.71875 30.613281 374.710938 31.214844 C 374.578125 31.289062 374.464844 31.386719 374.367188 31.507812 C 374.273438 31.628906 374.203125 31.765625 374.160156 31.914062 C 374.117188 32.0625 374.105469 32.214844 374.121094 32.367188 C 374.140625 32.523438 374.1875 32.667969 374.261719 32.800781 C 374.472656 33.199219 374.800781 33.398438 375.246094 33.398438 C 375.460938 33.394531 375.660156 33.339844 375.84375 33.230469 C 376.851562 32.660156 377.917969 32.042969 378.953125 31.40625 C 379.148438 31.265625 379.300781 31.089844 379.417969 30.878906 C 379.460938 30.808594 379.5 30.746094 379.542969 30.683594 L 379.632812 30.570312 Z M 378.953125 49.796875 C 377.945312 49.207031 376.9375 48.617188 375.925781 48.035156 C 375.617188 47.835938 375.285156 47.78125 374.925781 47.871094 C 374.628906 47.957031 374.40625 48.136719 374.261719 48.414062 C 374.1875 48.554688 374.140625 48.707031 374.125 48.871094 C 374.113281 49.03125 374.128906 49.191406 374.179688 49.34375 C 374.230469 49.5 374.308594 49.636719 374.414062 49.757812 C 374.519531 49.882812 374.644531 49.976562 374.789062 50.046875 C 375.753906 50.617188 376.726562 51.183594 377.703125 51.753906 C 377.832031 51.824219 377.96875 51.878906 378.105469 51.921875 L 378.265625 51.976562 L 378.34375 51.976562 C 378.609375 51.988281 378.851562 51.910156 379.066406 51.75 C 379.28125 51.589844 379.421875 51.375 379.488281 51.113281 C 379.566406 50.859375 379.554688 50.605469 379.453125 50.359375 C 379.355469 50.109375 379.1875 49.921875 378.953125 49.796875 Z M 367.160156 66.476562 L 367.160156 70.660156 C 367.160156 71.042969 367.085938 71.410156 366.941406 71.761719 C 366.796875 72.117188 366.589844 72.425781 366.324219 72.699219 C 366.054688 72.96875 365.746094 73.175781 365.398438 73.324219 C 365.050781 73.46875 364.6875 73.542969 364.308594 73.542969 L 357.625 73.542969 C 357.246094 73.542969 356.882812 73.472656 356.53125 73.324219 C 356.183594 73.179688 355.875 72.96875 355.605469 72.699219 C 355.339844 72.429688 355.132812 72.117188 354.988281 71.761719 C 354.84375 71.410156 354.769531 71.042969 354.769531 70.660156 L 354.769531 66.476562 C 354.769531 66.09375 354.84375 65.726562 354.988281 65.371094 C 355.132812 65.019531 355.339844 64.707031 355.605469 64.4375 C 355.875 64.167969 356.183594 63.957031 356.53125 63.8125 C 356.882812 63.664062 357.246094 63.589844 357.625 63.589844 L 364.308594 63.589844 C 364.6875 63.59375 365.050781 63.664062 365.398438 63.8125 C 365.746094 63.960938 366.054688 64.167969 366.324219 64.4375 C 366.589844 64.707031 366.796875 65.019531 366.941406 65.375 C 367.085938 65.726562 367.160156 66.09375 367.160156 66.476562 Z M 365.21875 66.476562 C 365.21875 66.222656 365.128906 66.003906 364.953125 65.824219 C 364.773438 65.640625 364.558594 65.550781 364.308594 65.550781 L 357.625 65.550781 C 357.371094 65.550781 357.152344 65.640625 356.976562 65.820312 C 356.796875 66.003906 356.707031 66.21875 356.707031 66.476562 L 356.707031 70.660156 C 356.707031 70.914062 356.796875 71.132812 356.976562 71.316406 C 357.152344 71.496094 357.371094 71.585938 357.625 71.585938 L 364.308594 71.585938 C 364.558594 71.585938 364.773438 71.492188 364.953125 71.3125 C 365.128906 71.132812 365.21875 70.914062 365.214844 70.660156 Z M 374.179688 42.347656 C 374.019531 43.890625 373.605469 45.359375 372.933594 46.757812 C 372.261719 48.152344 371.375 49.390625 370.269531 50.46875 C 368.730469 52.058594 367.78125 53.953125 367.425781 56.152344 C 367.136719 57.757812 366.941406 59.375 366.835938 61.003906 C 366.730469 62.179688 366.160156 62.8125 364.972656 62.8125 L 356.847656 62.8125 C 356.601562 62.839844 356.363281 62.8125 356.128906 62.734375 C 355.894531 62.652344 355.691406 62.523438 355.511719 62.351562 C 355.335938 62.175781 355.203125 61.972656 355.117188 61.738281 C 355.03125 61.503906 355 61.265625 355.019531 61.015625 C 355.011719 58.5 354.5625 56.066406 353.667969 53.714844 C 353.148438 52.46875 352.425781 51.355469 351.492188 50.382812 C 347.773438 46.425781 346.59375 41.757812 348.28125 36.589844 C 349.980469 31.417969 353.679688 28.332031 359.019531 27.488281 C 359.519531 27.414062 360.027344 27.371094 360.535156 27.355469 C 361.042969 27.339844 361.550781 27.351562 362.054688 27.394531 C 362.5625 27.4375 363.066406 27.511719 363.5625 27.613281 C 364.0625 27.714844 364.550781 27.84375 365.035156 28 C 365.519531 28.160156 365.992188 28.34375 366.457031 28.558594 C 366.917969 28.769531 367.367188 29.011719 367.800781 29.273438 C 368.238281 29.539062 368.65625 29.828125 369.058594 30.140625 C 369.464844 30.453125 369.847656 30.789062 370.210938 31.148438 C 370.578125 31.503906 370.921875 31.882812 371.242188 32.28125 C 371.566406 32.679688 371.863281 33.09375 372.140625 33.523438 C 372.414062 33.957031 372.664062 34.402344 372.890625 34.863281 C 373.113281 35.324219 373.3125 35.796875 373.484375 36.28125 C 373.65625 36.765625 373.796875 37.257812 373.914062 37.757812 C 374.027344 38.257812 374.117188 38.761719 374.175781 39.273438 C 374.234375 39.785156 374.261719 40.296875 374.261719 40.808594 C 374.265625 41.324219 374.234375 41.835938 374.179688 42.347656 Z M 360.011719 29.582031 C 355.394531 30.011719 352.089844 32.503906 350.472656 36.886719 C 348.847656 41.308594 349.792969 45.339844 352.988281 48.804688 C 353.328125 49.179688 353.679688 49.542969 353.992188 49.941406 C 355.6875 52.3125 356.667969 54.949219 356.9375 57.859375 C 357.058594 58.765625 357.117188 59.675781 357.207031 60.574219 L 364.65625 60.597656 C 364.675781 60.351562 364.675781 60.125 364.710938 59.894531 C 364.90625 58.46875 365.023438 57.03125 365.320312 55.628906 C 365.574219 54.277344 366.023438 53 366.667969 51.792969 C 367.3125 50.582031 368.121094 49.5 369.097656 48.546875 C 370.058594 47.574219 370.785156 46.449219 371.269531 45.164062 C 374.433594 37.355469 368.304688 28.816406 360.011719 29.582031 Z M 360.011719 29.582031 " fill-opacity="1" fill-rule="nonzero"/></g><g fill="#000000" fill-opacity="1"><g transform="translate(449.190149, 79.50112)"><g><path d="M 20.109375 -3.984375 C 21.816406 -3.984375 23.132812 -4.210938 24.0625 -4.671875 C 25 -5.128906 25.890625 -6.0625 26.734375 -7.46875 C 26.972656 -7.851562 27.257812 -8.394531 27.59375 -9.09375 C 28.226562 -10.476562 28.914062 -11.171875 29.65625 -11.171875 C 30.101562 -11.171875 30.453125 -10.941406 30.703125 -10.484375 C 30.953125 -10.023438 31.078125 -9.390625 31.078125 -8.578125 C 31.078125 -7.472656 30.957031 -6.285156 30.71875 -5.015625 C 30.488281 -3.753906 30.171875 -2.554688 29.765625 -1.421875 C 29.472656 -0.660156 29.171875 -0.128906 28.859375 0.171875 C 28.546875 0.484375 28.140625 0.640625 27.640625 0.640625 C 27.640625 0.640625 27.1875 0.53125 26.28125 0.3125 C 25.375 0.101562 24.414062 0 23.40625 0 L 7.578125 0 C 5.003906 0 3.390625 -0.125 2.734375 -0.375 C 2.085938 -0.625 1.765625 -1.085938 1.765625 -1.765625 C 1.765625 -2.566406 2.320312 -3.1875 3.4375 -3.625 C 3.988281 -3.832031 4.378906 -4.019531 4.609375 -4.1875 C 4.984375 -4.46875 5.242188 -5.609375 5.390625 -7.609375 C 5.535156 -9.617188 5.609375 -13.597656 5.609375 -19.546875 C 5.609375 -23.785156 5.539062 -27.1875 5.40625 -29.75 C 5.28125 -32.320312 5.109375 -33.765625 4.890625 -34.078125 C 4.703125 -34.347656 4.132812 -34.675781 3.1875 -35.0625 C 2.238281 -35.457031 1.765625 -36.015625 1.765625 -36.734375 C 1.765625 -37.441406 2.160156 -37.929688 2.953125 -38.203125 C 3.753906 -38.472656 5.769531 -38.609375 9 -38.609375 C 12.238281 -38.609375 14.257812 -38.472656 15.0625 -38.203125 C 15.863281 -37.929688 16.265625 -37.441406 16.265625 -36.734375 C 16.265625 -35.992188 15.695312 -35.421875 14.5625 -35.015625 C 13.96875 -34.785156 13.5625 -34.585938 13.34375 -34.421875 C 13.007812 -34.140625 12.765625 -33.085938 12.609375 -31.265625 C 12.460938 -29.453125 12.390625 -26.691406 12.390625 -22.984375 C 12.390625 -18.421875 12.429688 -14.660156 12.515625 -11.703125 C 12.597656 -8.742188 12.71875 -6.945312 12.875 -6.3125 C 13.101562 -5.414062 13.625 -4.800781 14.4375 -4.46875 C 15.257812 -4.144531 16.816406 -3.984375 19.109375 -3.984375 Z M 20.109375 -3.984375 "/></g></g></g><g fill="#000000" fill-opacity="1"><g transform="translate(481.819945, 79.50112)"><g><path d="M 24.453125 -7.375 C 24.453125 -6.351562 24.539062 -5.59375 24.71875 -5.09375 C 24.894531 -4.59375 25.160156 -4.289062 25.515625 -4.1875 C 25.722656 -4.113281 26 -4.035156 26.34375 -3.953125 C 27.476562 -3.640625 28.046875 -3.179688 28.046875 -2.578125 C 28.046875 -1.722656 27.441406 -0.945312 26.234375 -0.25 C 25.035156 0.445312 23.632812 0.796875 22.03125 0.796875 C 21.238281 0.796875 20.394531 0.328125 19.5 -0.609375 C 18.613281 -1.546875 18.144531 -2.015625 18.09375 -2.015625 C 17.9375 -2.015625 17.550781 -1.816406 16.9375 -1.421875 C 14.65625 0.0546875 12.414062 0.796875 10.21875 0.796875 C 7.59375 0.796875 5.46875 0.0351562 3.84375 -1.484375 C 2.226562 -3.015625 1.421875 -5.007812 1.421875 -7.46875 C 1.421875 -10.351562 2.460938 -12.597656 4.546875 -14.203125 C 6.628906 -15.816406 9.546875 -16.625 13.296875 -16.625 C 13.992188 -16.625 14.757812 -16.582031 15.59375 -16.5 C 16.4375 -16.425781 17.34375 -16.3125 18.3125 -16.15625 L 18.328125 -19 C 18.328125 -20.59375 17.984375 -21.8125 17.296875 -22.65625 C 16.609375 -23.507812 15.625 -23.9375 14.34375 -23.9375 C 13.46875 -23.9375 12.648438 -23.742188 11.890625 -23.359375 C 11.128906 -22.972656 10.398438 -22.375 9.703125 -21.5625 C 9.554688 -21.40625 9.363281 -21.171875 9.125 -20.859375 C 8.039062 -19.484375 6.882812 -18.796875 5.65625 -18.796875 C 4.957031 -18.796875 4.394531 -19.023438 3.96875 -19.484375 C 3.539062 -19.941406 3.328125 -20.554688 3.328125 -21.328125 C 3.328125 -23.015625 4.367188 -24.4375 6.453125 -25.59375 C 8.546875 -26.75 11.226562 -27.328125 14.5 -27.328125 C 16.5 -27.328125 18.210938 -27.0625 19.640625 -26.53125 C 21.078125 -26.007812 22.191406 -25.25 22.984375 -24.25 C 23.515625 -23.5625 23.890625 -22.664062 24.109375 -21.5625 C 24.335938 -20.457031 24.453125 -18.625 24.453125 -16.0625 Z M 18.3125 -12.71875 C 17.601562 -12.875 16.921875 -12.988281 16.265625 -13.0625 C 15.609375 -13.144531 14.988281 -13.1875 14.40625 -13.1875 C 12.46875 -13.1875 10.957031 -12.753906 9.875 -11.890625 C 8.789062 -11.023438 8.25 -9.835938 8.25 -8.328125 C 8.25 -6.890625 8.71875 -5.738281 9.65625 -4.875 C 10.59375 -4.019531 11.851562 -3.59375 13.4375 -3.59375 C 15.195312 -3.59375 16.453125 -3.976562 17.203125 -4.75 C 17.953125 -5.53125 18.328125 -6.859375 18.328125 -8.734375 Z M 18.3125 -12.71875 "/></g></g></g><g fill="#000000" fill-opacity="1"><g transform="translate(510.623109, 79.50112)"><g><path d="M 12.09375 -24.078125 C 12.238281 -24.191406 12.429688 -24.363281 12.671875 -24.59375 C 14.617188 -26.414062 16.726562 -27.328125 19 -27.328125 C 20.289062 -27.328125 21.535156 -27.046875 22.734375 -26.484375 C 23.929688 -25.929688 24.945312 -25.171875 25.78125 -24.203125 C 26.601562 -23.222656 27.1875 -22.050781 27.53125 -20.6875 C 27.875 -19.320312 28.046875 -17.191406 28.046875 -14.296875 L 28.046875 -10.65625 C 28.046875 -10.207031 28.035156 -9.617188 28.015625 -8.890625 C 28.003906 -8.171875 28 -7.664062 28 -7.375 C 28 -6.09375 28.085938 -5.1875 28.265625 -4.65625 C 28.453125 -4.132812 28.769531 -3.742188 29.21875 -3.484375 C 29.382812 -3.398438 29.617188 -3.304688 29.921875 -3.203125 C 30.796875 -2.878906 31.234375 -2.414062 31.234375 -1.8125 C 31.234375 -1.03125 30.816406 -0.5 29.984375 -0.21875 C 29.160156 0.0625 27.367188 0.203125 24.609375 0.203125 C 22.097656 0.203125 20.414062 0.0703125 19.5625 -0.1875 C 18.707031 -0.457031 18.28125 -0.9375 18.28125 -1.625 C 18.28125 -2.3125 18.726562 -2.820312 19.625 -3.15625 C 20.09375 -3.320312 20.429688 -3.46875 20.640625 -3.59375 C 21.046875 -3.820312 21.332031 -4.328125 21.5 -5.109375 C 21.675781 -5.890625 21.765625 -7.253906 21.765625 -9.203125 C 21.765625 -14.921875 21.398438 -18.503906 20.671875 -19.953125 C 19.941406 -21.398438 18.628906 -22.125 16.734375 -22.125 C 15.765625 -22.125 14.84375 -21.835938 13.96875 -21.265625 C 13.101562 -20.691406 12.4375 -19.921875 11.96875 -18.953125 C 11.570312 -18.171875 11.296875 -17.082031 11.140625 -15.6875 C 10.984375 -14.289062 10.90625 -11.8125 10.90625 -8.25 C 10.90625 -6.507812 10.976562 -5.347656 11.125 -4.765625 C 11.269531 -4.191406 11.535156 -3.800781 11.921875 -3.59375 C 12.140625 -3.46875 12.472656 -3.320312 12.921875 -3.15625 C 13.835938 -2.820312 14.296875 -2.3125 14.296875 -1.625 C 14.296875 -0.9375 13.851562 -0.445312 12.96875 -0.15625 C 12.09375 0.125 10.484375 0.265625 8.140625 0.265625 C 5.398438 0.265625 3.585938 0.117188 2.703125 -0.171875 C 1.816406 -0.472656 1.375 -1.019531 1.375 -1.8125 C 1.375 -2.414062 1.8125 -2.878906 2.6875 -3.203125 C 3.019531 -3.328125 3.253906 -3.421875 3.390625 -3.484375 C 3.847656 -3.742188 4.171875 -4.175781 4.359375 -4.78125 C 4.554688 -5.382812 4.65625 -6.367188 4.65625 -7.734375 C 4.65625 -8.054688 4.644531 -8.65625 4.625 -9.53125 C 4.613281 -10.414062 4.609375 -11.144531 4.609375 -11.71875 L 4.609375 -14.5 C 4.609375 -17.332031 4.535156 -19.175781 4.390625 -20.03125 C 4.253906 -20.894531 4.003906 -21.421875 3.640625 -21.609375 C 3.367188 -21.753906 2.945312 -21.910156 2.375 -22.078125 C 1.289062 -22.421875 0.75 -22.894531 0.75 -23.5 C 0.75 -23.894531 0.914062 -24.25 1.25 -24.5625 C 1.59375 -24.882812 2.148438 -25.203125 2.921875 -25.515625 C 4.242188 -26.035156 5.535156 -26.445312 6.796875 -26.75 C 8.054688 -27.0625 8.988281 -27.21875 9.59375 -27.21875 C 10.09375 -27.21875 10.453125 -27.082031 10.671875 -26.8125 C 10.898438 -26.550781 11.015625 -26.117188 11.015625 -25.515625 L 11.015625 -23.734375 C 11.015625 -23.597656 11.023438 -23.507812 11.046875 -23.46875 C 11.078125 -23.4375 11.132812 -23.414062 11.21875 -23.40625 C 11.25 -23.40625 11.296875 -23.414062 11.359375 -23.4375 C 11.421875 -23.46875 11.460938 -23.488281 11.484375 -23.5 Z M 12.09375 -24.078125 "/></g></g></g><g fill="#000000" fill-opacity="1"><g transform="translate(542.709946, 79.50112)"><g><path d="M 9 0.203125 C 8.53125 0.648438 8.179688 1.117188 7.953125 1.609375 C 7.734375 2.109375 7.625 2.648438 7.625 3.234375 C 7.625 4.492188 8.269531 5.503906 9.5625 6.265625 C 10.851562 7.035156 12.585938 7.421875 14.765625 7.421875 C 17.179688 7.421875 19.179688 6.953125 20.765625 6.015625 C 22.347656 5.085938 23.140625 3.941406 23.140625 2.578125 C 23.140625 1.734375 22.84375 1.070312 22.25 0.59375 C 21.65625 0.125 20.804688 -0.109375 19.703125 -0.109375 C 19.234375 -0.109375 18.1875 -0.0234375 16.5625 0.140625 C 14.9375 0.316406 13.546875 0.40625 12.390625 0.40625 C 11.785156 0.40625 11.207031 0.390625 10.65625 0.359375 C 10.101562 0.328125 9.550781 0.273438 9 0.203125 Z M 9.359375 -17.78125 C 9.359375 -15.9375 9.8125 -14.453125 10.71875 -13.328125 C 11.632812 -12.210938 12.828125 -11.65625 14.296875 -11.65625 C 15.828125 -11.65625 17.09375 -12.21875 18.09375 -13.34375 C 19.09375 -14.476562 19.59375 -15.941406 19.59375 -17.734375 C 19.59375 -19.578125 19.101562 -21.070312 18.125 -22.21875 C 17.15625 -23.363281 15.894531 -23.9375 14.34375 -23.9375 C 12.9375 -23.9375 11.753906 -23.351562 10.796875 -22.1875 C 9.835938 -21.03125 9.359375 -19.5625 9.359375 -17.78125 Z M 6.25 -10.21875 C 5.207031 -11.113281 4.414062 -12.132812 3.875 -13.28125 C 3.34375 -14.4375 3.078125 -15.710938 3.078125 -17.109375 C 3.078125 -20.046875 4.179688 -22.484375 6.390625 -24.421875 C 8.597656 -26.359375 11.390625 -27.328125 14.765625 -27.328125 C 15.578125 -27.328125 16.53125 -27.242188 17.625 -27.078125 C 18.71875 -26.921875 20.097656 -26.648438 21.765625 -26.265625 C 22.421875 -26.265625 23.140625 -26.429688 23.921875 -26.765625 C 24.710938 -27.109375 25.664062 -27.664062 26.78125 -28.4375 C 27.164062 -28.195312 27.457031 -27.925781 27.65625 -27.625 C 27.851562 -27.320312 27.953125 -27.007812 27.953125 -26.6875 C 27.953125 -25.925781 27.664062 -25.191406 27.09375 -24.484375 C 26.53125 -23.773438 25.722656 -23.144531 24.671875 -22.59375 C 25.066406 -21.875 25.347656 -21.15625 25.515625 -20.4375 C 25.691406 -19.71875 25.78125 -18.984375 25.78125 -18.234375 C 25.78125 -15.242188 24.6875 -12.8125 22.5 -10.9375 C 20.320312 -9.070312 17.46875 -8.140625 13.9375 -8.140625 C 12.914062 -8.140625 11.957031 -8.210938 11.0625 -8.359375 C 10.164062 -8.503906 9.320312 -8.71875 8.53125 -9 C 8.15625 -8.601562 7.875 -8.226562 7.6875 -7.875 C 7.507812 -7.519531 7.421875 -7.1875 7.421875 -6.875 C 7.421875 -6.03125 7.84375 -5.40625 8.6875 -5 C 9.53125 -4.59375 10.847656 -4.390625 12.640625 -4.390625 C 13.535156 -4.390625 14.90625 -4.488281 16.75 -4.6875 C 18.59375 -4.882812 20 -4.984375 20.96875 -4.984375 C 23.46875 -4.984375 25.378906 -4.472656 26.703125 -3.453125 C 28.035156 -2.441406 28.703125 -0.988281 28.703125 0.90625 C 28.703125 3.769531 27.296875 6.148438 24.484375 8.046875 C 21.671875 9.953125 18.09375 10.90625 13.75 10.90625 C 10.34375 10.90625 7.5 10.207031 5.21875 8.8125 C 2.945312 7.414062 1.8125 5.726562 1.8125 3.75 C 1.8125 2.851562 2.09375 2.035156 2.65625 1.296875 C 3.226562 0.566406 4.210938 -0.21875 5.609375 -1.0625 C 4.554688 -1.425781 3.742188 -1.953125 3.171875 -2.640625 C 2.609375 -3.328125 2.328125 -4.128906 2.328125 -5.046875 C 2.328125 -5.953125 2.65625 -6.84375 3.3125 -7.71875 C 3.96875 -8.59375 4.945312 -9.425781 6.25 -10.21875 Z M 6.25 -10.21875 "/></g></g></g><g fill="#000000" fill-opacity="1"><g transform="translate(571.151131, 79.50112)"><g><path d="M 21.28125 -0.90625 L 21.28125 -2.8125 C 21.28125 -2.882812 21.265625 -2.925781 21.234375 -2.9375 C 21.210938 -2.957031 21.175781 -2.96875 21.125 -2.96875 C 20.914062 -2.96875 20.597656 -2.742188 20.171875 -2.296875 C 20.015625 -2.128906 19.894531 -2 19.8125 -1.90625 C 18.957031 -1.03125 17.988281 -0.378906 16.90625 0.046875 C 15.820312 0.484375 14.617188 0.703125 13.296875 0.703125 C 11.929688 0.703125 10.65625 0.445312 9.46875 -0.0625 C 8.289062 -0.570312 7.304688 -1.289062 6.515625 -2.21875 C 5.671875 -3.238281 5.070312 -4.472656 4.71875 -5.921875 C 4.363281 -7.367188 4.1875 -10.023438 4.1875 -13.890625 C 4.1875 -14.242188 4.191406 -14.84375 4.203125 -15.6875 C 4.222656 -16.539062 4.234375 -17.207031 4.234375 -17.6875 L 4.234375 -18.234375 C 4.234375 -19.710938 4.128906 -20.65625 3.921875 -21.0625 C 3.722656 -21.46875 3.296875 -21.789062 2.640625 -22.03125 C 2.378906 -22.132812 2.023438 -22.242188 1.578125 -22.359375 C 0.554688 -22.640625 0.046875 -23.097656 0.046875 -23.734375 C 0.046875 -24.179688 0.226562 -24.554688 0.59375 -24.859375 C 0.957031 -25.160156 1.769531 -25.523438 3.03125 -25.953125 C 4.28125 -26.367188 5.488281 -26.703125 6.65625 -26.953125 C 7.832031 -27.203125 8.796875 -27.328125 9.546875 -27.328125 C 10.023438 -27.328125 10.367188 -27.144531 10.578125 -26.78125 C 10.796875 -26.425781 10.90625 -25.847656 10.90625 -25.046875 C 10.90625 -24.953125 10.890625 -24.601562 10.859375 -24 C 10.679688 -20.6875 10.59375 -17.332031 10.59375 -13.9375 C 10.59375 -10.257812 10.972656 -7.722656 11.734375 -6.328125 C 12.492188 -4.929688 13.785156 -4.234375 15.609375 -4.234375 C 17.679688 -4.234375 19.160156 -5.140625 20.046875 -6.953125 C 20.941406 -8.765625 21.390625 -11.867188 21.390625 -16.265625 L 21.390625 -18.328125 C 21.390625 -19.722656 21.285156 -20.628906 21.078125 -21.046875 C 20.878906 -21.472656 20.472656 -21.800781 19.859375 -22.03125 C 19.578125 -22.132812 19.210938 -22.242188 18.765625 -22.359375 C 17.765625 -22.640625 17.265625 -23.097656 17.265625 -23.734375 C 17.265625 -24.160156 17.441406 -24.523438 17.796875 -24.828125 C 18.148438 -25.128906 18.957031 -25.503906 20.21875 -25.953125 C 21.476562 -26.367188 22.6875 -26.703125 23.84375 -26.953125 C 25 -27.203125 25.925781 -27.328125 26.625 -27.328125 C 27.175781 -27.328125 27.5625 -27.160156 27.78125 -26.828125 C 28 -26.492188 28.109375 -25.898438 28.109375 -25.046875 C 28.109375 -24.859375 28.085938 -24.363281 28.046875 -23.5625 C 27.847656 -19.726562 27.75 -16.019531 27.75 -12.4375 C 27.75 -10.195312 27.765625 -8.679688 27.796875 -7.890625 C 27.828125 -7.109375 27.878906 -6.515625 27.953125 -6.109375 C 28.085938 -5.359375 28.613281 -4.804688 29.53125 -4.453125 L 29.546875 -4.453125 C 29.648438 -4.410156 29.816406 -4.359375 30.046875 -4.296875 C 31.054688 -3.953125 31.5625 -3.476562 31.5625 -2.875 C 31.5625 -2.476562 31.398438 -2.128906 31.078125 -1.828125 C 30.765625 -1.523438 30.222656 -1.21875 29.453125 -0.90625 C 28.117188 -0.382812 26.835938 0.0234375 25.609375 0.328125 C 24.378906 0.640625 23.4375 0.796875 22.78125 0.796875 C 22.257812 0.796875 21.878906 0.65625 21.640625 0.375 C 21.398438 0.101562 21.28125 -0.320312 21.28125 -0.90625 Z M 21.28125 -0.90625 "/></g></g></g><g fill="#000000" fill-opacity="1"><g transform="translate(603.237967, 79.50112)"><g><path d="M 24.453125 -7.375 C 24.453125 -6.351562 24.539062 -5.59375 24.71875 -5.09375 C 24.894531 -4.59375 25.160156 -4.289062 25.515625 -4.1875 C 25.722656 -4.113281 26 -4.035156 26.34375 -3.953125 C 27.476562 -3.640625 28.046875 -3.179688 28.046875 -2.578125 C 28.046875 -1.722656 27.441406 -0.945312 26.234375 -0.25 C 25.035156 0.445312 23.632812 0.796875 22.03125 0.796875 C 21.238281 0.796875 20.394531 0.328125 19.5 -0.609375 C 18.613281 -1.546875 18.144531 -2.015625 18.09375 -2.015625 C 17.9375 -2.015625 17.550781 -1.816406 16.9375 -1.421875 C 14.65625 0.0546875 12.414062 0.796875 10.21875 0.796875 C 7.59375 0.796875 5.46875 0.0351562 3.84375 -1.484375 C 2.226562 -3.015625 1.421875 -5.007812 1.421875 -7.46875 C 1.421875 -10.351562 2.460938 -12.597656 4.546875 -14.203125 C 6.628906 -15.816406 9.546875 -16.625 13.296875 -16.625 C 13.992188 -16.625 14.757812 -16.582031 15.59375 -16.5 C 16.4375 -16.425781 17.34375 -16.3125 18.3125 -16.15625 L 18.328125 -19 C 18.328125 -20.59375 17.984375 -21.8125 17.296875 -22.65625 C 16.609375 -23.507812 15.625 -23.9375 14.34375 -23.9375 C 13.46875 -23.9375 12.648438 -23.742188 11.890625 -23.359375 C 11.128906 -22.972656 10.398438 -22.375 9.703125 -21.5625 C 9.554688 -21.40625 9.363281 -21.171875 9.125 -20.859375 C 8.039062 -19.484375 6.882812 -18.796875 5.65625 -18.796875 C 4.957031 -18.796875 4.394531 -19.023438 3.96875 -19.484375 C 3.539062 -19.941406 3.328125 -20.554688 3.328125 -21.328125 C 3.328125 -23.015625 4.367188 -24.4375 6.453125 -25.59375 C 8.546875 -26.75 11.226562 -27.328125 14.5 -27.328125 C 16.5 -27.328125 18.210938 -27.0625 19.640625 -26.53125 C 21.078125 -26.007812 22.191406 -25.25 22.984375 -24.25 C 23.515625 -23.5625 23.890625 -22.664062 24.109375 -21.5625 C 24.335938 -20.457031 24.453125 -18.625 24.453125 -16.0625 Z M 18.3125 -12.71875 C 17.601562 -12.875 16.921875 -12.988281 16.265625 -13.0625 C 15.609375 -13.144531 14.988281 -13.1875 14.40625 -13.1875 C 12.46875 -13.1875 10.957031 -12.753906 9.875 -11.890625 C 8.789062 -11.023438 8.25 -9.835938 8.25 -8.328125 C 8.25 -6.890625 8.71875 -5.738281 9.65625 -4.875 C 10.59375 -4.019531 11.851562 -3.59375 13.4375 -3.59375 C 15.195312 -3.59375 16.453125 -3.976562 17.203125 -4.75 C 17.953125 -5.53125 18.328125 -6.859375 18.328125 -8.734375 Z M 18.3125 -12.71875 "/></g></g></g><g fill="#000000" fill-opacity="1"><g transform="translate(632.041131, 79.50112)"><g><path d="M 9 0.203125 C 8.53125 0.648438 8.179688 1.117188 7.953125 1.609375 C 7.734375 2.109375 7.625 2.648438 7.625 3.234375 C 7.625 4.492188 8.269531 5.503906 9.5625 6.265625 C 10.851562 7.035156 12.585938 7.421875 14.765625 7.421875 C 17.179688 7.421875 19.179688 6.953125 20.765625 6.015625 C 22.347656 5.085938 23.140625 3.941406 23.140625 2.578125 C 23.140625 1.734375 22.84375 1.070312 22.25 0.59375 C 21.65625 0.125 20.804688 -0.109375 19.703125 -0.109375 C 19.234375 -0.109375 18.1875 -0.0234375 16.5625 0.140625 C 14.9375 0.316406 13.546875 0.40625 12.390625 0.40625 C 11.785156 0.40625 11.207031 0.390625 10.65625 0.359375 C 10.101562 0.328125 9.550781 0.273438 9 0.203125 Z M 9.359375 -17.78125 C 9.359375 -15.9375 9.8125 -14.453125 10.71875 -13.328125 C 11.632812 -12.210938 12.828125 -11.65625 14.296875 -11.65625 C 15.828125 -11.65625 17.09375 -12.21875 18.09375 -13.34375 C 19.09375 -14.476562 19.59375 -15.941406 19.59375 -17.734375 C 19.59375 -19.578125 19.101562 -21.070312 18.125 -22.21875 C 17.15625 -23.363281 15.894531 -23.9375 14.34375 -23.9375 C 12.9375 -23.9375 11.753906 -23.351562 10.796875 -22.1875 C 9.835938 -21.03125 9.359375 -19.5625 9.359375 -17.78125 Z M 6.25 -10.21875 C 5.207031 -11.113281 4.414062 -12.132812 3.875 -13.28125 C 3.34375 -14.4375 3.078125 -15.710938 3.078125 -17.109375 C 3.078125 -20.046875 4.179688 -22.484375 6.390625 -24.421875 C 8.597656 -26.359375 11.390625 -27.328125 14.765625 -27.328125 C 15.578125 -27.328125 16.53125 -27.242188 17.625 -27.078125 C 18.71875 -26.921875 20.097656 -26.648438 21.765625 -26.265625 C 22.421875 -26.265625 23.140625 -26.429688 23.921875 -26.765625 C 24.710938 -27.109375 25.664062 -27.664062 26.78125 -28.4375 C 27.164062 -28.195312 27.457031 -27.925781 27.65625 -27.625 C 27.851562 -27.320312 27.953125 -27.007812 27.953125 -26.6875 C 27.953125 -25.925781 27.664062 -25.191406 27.09375 -24.484375 C 26.53125 -23.773438 25.722656 -23.144531 24.671875 -22.59375 C 25.066406 -21.875 25.347656 -21.15625 25.515625 -20.4375 C 25.691406 -19.71875 25.78125 -18.984375 25.78125 -18.234375 C 25.78125 -15.242188 24.6875 -12.8125 22.5 -10.9375 C 20.320312 -9.070312 17.46875 -8.140625 13.9375 -8.140625 C 12.914062 -8.140625 11.957031 -8.210938 11.0625 -8.359375 C 10.164062 -8.503906 9.320312 -8.71875 8.53125 -9 C 8.15625 -8.601562 7.875 -8.226562 7.6875 -7.875 C 7.507812 -7.519531 7.421875 -7.1875 7.421875 -6.875 C 7.421875 -6.03125 7.84375 -5.40625 8.6875 -5 C 9.53125 -4.59375 10.847656 -4.390625 12.640625 -4.390625 C 13.535156 -4.390625 14.90625 -4.488281 16.75 -4.6875 C 18.59375 -4.882812 20 -4.984375 20.96875 -4.984375 C 23.46875 -4.984375 25.378906 -4.472656 26.703125 -3.453125 C 28.035156 -2.441406 28.703125 -0.988281 28.703125 0.90625 C 28.703125 3.769531 27.296875 6.148438 24.484375 8.046875 C 21.671875 9.953125 18.09375 10.90625 13.75 10.90625 C 10.34375 10.90625 7.5 10.207031 5.21875 8.8125 C 2.945312 7.414062 1.8125 5.726562 1.8125 3.75 C 1.8125 2.851562 2.09375 2.035156 2.65625 1.296875 C 3.226562 0.566406 4.210938 -0.21875 5.609375 -1.0625 C 4.554688 -1.425781 3.742188 -1.953125 3.171875 -2.640625 C 2.609375 -3.328125 2.328125 -4.128906 2.328125 -5.046875 C 2.328125 -5.953125 2.65625 -6.84375 3.3125 -7.71875 C 3.96875 -8.59375 4.945312 -9.425781 6.25 -10.21875 Z M 6.25 -10.21875 "/></g></g></g><g fill="#000000" fill-opacity="1"><g transform="translate(660.482316, 79.50112)"><g><path d="M 10.96875 -13.65625 L 10.59375 -13.65625 C 9.59375 -13.65625 9 -13.578125 8.8125 -13.421875 C 8.625 -13.265625 8.53125 -12.847656 8.53125 -12.171875 C 8.53125 -9.929688 9.332031 -8.003906 10.9375 -6.390625 C 12.539062 -4.785156 14.488281 -3.984375 16.78125 -3.984375 C 17.757812 -3.984375 18.707031 -4.128906 19.625 -4.421875 C 20.539062 -4.710938 21.425781 -5.160156 22.28125 -5.765625 C 22.53125 -5.941406 22.859375 -6.191406 23.265625 -6.515625 C 24.160156 -7.253906 24.859375 -7.625 25.359375 -7.625 C 25.753906 -7.625 26.082031 -7.492188 26.34375 -7.234375 C 26.601562 -6.984375 26.734375 -6.675781 26.734375 -6.3125 C 26.734375 -5.875 26.507812 -5.34375 26.0625 -4.71875 C 25.613281 -4.09375 25.007812 -3.476562 24.25 -2.875 C 22.6875 -1.582031 21.179688 -0.65625 19.734375 -0.09375 C 18.285156 0.46875 16.707031 0.75 15 0.75 C 11.164062 0.75 7.96875 -0.550781 5.40625 -3.15625 C 2.851562 -5.769531 1.578125 -9.007812 1.578125 -12.875 C 1.578125 -17.082031 2.890625 -20.539062 5.515625 -23.25 C 8.148438 -25.96875 11.515625 -27.328125 15.609375 -27.328125 C 19.078125 -27.328125 21.820312 -26.335938 23.84375 -24.359375 C 25.875 -22.390625 26.890625 -19.722656 26.890625 -16.359375 C 26.890625 -15.265625 26.722656 -14.539062 26.390625 -14.1875 C 26.066406 -13.832031 25.234375 -13.65625 23.890625 -13.65625 Z M 10.421875 -16.734375 L 19.15625 -16.734375 C 19.84375 -16.734375 20.296875 -16.800781 20.515625 -16.9375 C 20.742188 -17.070312 20.859375 -17.335938 20.859375 -17.734375 C 20.859375 -19.472656 20.273438 -20.929688 19.109375 -22.109375 C 17.953125 -23.296875 16.488281 -23.890625 14.71875 -23.890625 C 13.007812 -23.890625 11.59375 -23.296875 10.46875 -22.109375 C 9.351562 -20.929688 8.796875 -19.472656 8.796875 -17.734375 C 8.796875 -17.335938 8.894531 -17.070312 9.09375 -16.9375 C 9.300781 -16.800781 9.742188 -16.734375 10.421875 -16.734375 Z M 10.421875 -16.734375 "/></g></g></g><g fill="#000000" fill-opacity="1"><g transform="translate(688.923502, 79.50112)"><g/></g></g><g fill="#000000" fill-opacity="1"><g transform="translate(703.868052, 79.50112)"><g><path d="M 13.703125 -22.34375 C 12.703125 -21.457031 11.929688 -20.363281 11.390625 -19.0625 C 10.859375 -17.757812 10.59375 -16.3125 10.59375 -14.71875 C 10.59375 -11.300781 11.71875 -8.476562 13.96875 -6.25 C 16.21875 -4.03125 19.078125 -2.921875 22.546875 -2.921875 C 25.515625 -2.921875 27.890625 -3.671875 29.671875 -5.171875 C 31.453125 -6.671875 32.34375 -8.632812 32.34375 -11.0625 C 32.34375 -12.582031 31.976562 -13.796875 31.25 -14.703125 C 30.53125 -15.609375 29.5625 -16.0625 28.34375 -16.0625 C 27.082031 -16.0625 26.050781 -15.6875 25.25 -14.9375 C 24.445312 -14.195312 24.046875 -13.257812 24.046875 -12.125 C 24.046875 -11.90625 24.050781 -11.738281 24.0625 -11.625 C 24.070312 -11.507812 24.078125 -11.410156 24.078125 -11.328125 C 23.921875 -11.273438 23.765625 -11.234375 23.609375 -11.203125 C 23.453125 -11.179688 23.3125 -11.171875 23.1875 -11.171875 C 22.53125 -11.171875 22.015625 -11.414062 21.640625 -11.90625 C 21.265625 -12.394531 21.078125 -13.070312 21.078125 -13.9375 C 21.078125 -16.550781 25.050781 -19.710938 33 -23.421875 L 33.734375 -23.78125 C 35.828125 -24.75 37.40625 -25.789062 38.46875 -26.90625 C 39.539062 -28.019531 40.078125 -29.1875 40.078125 -30.40625 C 40.078125 -31.269531 39.847656 -31.90625 39.390625 -32.3125 C 38.929688 -32.726562 38.226562 -32.9375 37.28125 -32.9375 C 37.039062 -32.9375 36.695312 -32.898438 36.25 -32.828125 C 35.800781 -32.765625 35.472656 -32.734375 35.265625 -32.734375 C 34.867188 -32.734375 34.550781 -32.851562 34.3125 -33.09375 C 34.070312 -33.332031 33.953125 -33.648438 33.953125 -34.046875 C 33.953125 -34.828125 34.441406 -35.476562 35.421875 -36 C 36.398438 -36.53125 37.660156 -36.796875 39.203125 -36.796875 C 41.109375 -36.796875 42.617188 -36.269531 43.734375 -35.21875 C 44.859375 -34.164062 45.421875 -32.734375 45.421875 -30.921875 C 45.421875 -28.648438 44.457031 -26.609375 42.53125 -24.796875 C 40.601562 -22.984375 37.628906 -21.335938 33.609375 -19.859375 C 35.285156 -19.117188 36.550781 -18.078125 37.40625 -16.734375 C 38.269531 -15.398438 38.703125 -13.8125 38.703125 -11.96875 C 38.703125 -10.644531 38.4375 -9.332031 37.90625 -8.03125 C 37.375 -6.726562 36.597656 -5.535156 35.578125 -4.453125 C 33.941406 -2.671875 31.894531 -1.332031 29.4375 -0.4375 C 26.976562 0.457031 24.140625 0.90625 20.921875 0.90625 C 15.453125 0.90625 11.066406 -0.375 7.765625 -2.9375 C 4.460938 -5.5 2.8125 -8.863281 2.8125 -13.03125 C 2.8125 -15.34375 3.34375 -17.382812 4.40625 -19.15625 C 5.46875 -20.9375 7.179688 -22.632812 9.546875 -24.25 L 9.640625 -24.453125 C 8.867188 -25.265625 8.285156 -26.101562 7.890625 -26.96875 C 7.503906 -27.84375 7.3125 -28.753906 7.3125 -29.703125 C 7.3125 -32.515625 8.34375 -34.828125 10.40625 -36.640625 C 12.476562 -38.453125 15.15625 -39.359375 18.4375 -39.359375 C 20.625 -39.359375 22.484375 -38.925781 24.015625 -38.0625 C 25.554688 -37.195312 26.328125 -36.195312 26.328125 -35.0625 C 26.328125 -34.675781 26.148438 -34.335938 25.796875 -34.046875 C 25.441406 -33.753906 25.015625 -33.609375 24.515625 -33.609375 C 24.273438 -33.609375 23.519531 -33.84375 22.25 -34.3125 C 20.976562 -34.78125 19.828125 -35.015625 18.796875 -35.015625 C 17.328125 -35.015625 16.164062 -34.546875 15.3125 -33.609375 C 14.46875 -32.679688 14.046875 -31.414062 14.046875 -29.8125 C 14.046875 -29.15625 14.15625 -28.5625 14.375 -28.03125 C 14.601562 -27.507812 14.945312 -27.023438 15.40625 -26.578125 C 15.84375 -26.179688 16.460938 -25.789062 17.265625 -25.40625 C 18.066406 -25.03125 18.59375 -24.84375 18.84375 -24.84375 C 19.019531 -24.84375 19.1875 -24.769531 19.34375 -24.625 C 19.507812 -24.476562 19.59375 -24.335938 19.59375 -24.203125 C 19.59375 -23.816406 19.253906 -23.257812 18.578125 -22.53125 C 17.910156 -21.800781 17.296875 -21.4375 16.734375 -21.4375 C 16.441406 -21.4375 16.046875 -21.507812 15.546875 -21.65625 C 15.046875 -21.800781 14.429688 -22.03125 13.703125 -22.34375 Z M 13.703125 -22.34375 "/></g></g></g><g fill="#000000" fill-opacity="1"><g transform="translate(504.409358, 132.821563)"><g><path d="M 20.109375 -3.984375 C 21.816406 -3.984375 23.132812 -4.210938 24.0625 -4.671875 C 25 -5.128906 25.890625 -6.0625 26.734375 -7.46875 C 26.972656 -7.851562 27.257812 -8.394531 27.59375 -9.09375 C 28.226562 -10.476562 28.914062 -11.171875 29.65625 -11.171875 C 30.101562 -11.171875 30.453125 -10.941406 30.703125 -10.484375 C 30.953125 -10.023438 31.078125 -9.390625 31.078125 -8.578125 C 31.078125 -7.472656 30.957031 -6.285156 30.71875 -5.015625 C 30.488281 -3.753906 30.171875 -2.554688 29.765625 -1.421875 C 29.472656 -0.660156 29.171875 -0.128906 28.859375 0.171875 C 28.546875 0.484375 28.140625 0.640625 27.640625 0.640625 C 27.640625 0.640625 27.1875 0.53125 26.28125 0.3125 C 25.375 0.101562 24.414062 0 23.40625 0 L 7.578125 0 C 5.003906 0 3.390625 -0.125 2.734375 -0.375 C 2.085938 -0.625 1.765625 -1.085938 1.765625 -1.765625 C 1.765625 -2.566406 2.320312 -3.1875 3.4375 -3.625 C 3.988281 -3.832031 4.378906 -4.019531 4.609375 -4.1875 C 4.984375 -4.46875 5.242188 -5.609375 5.390625 -7.609375 C 5.535156 -9.617188 5.609375 -13.597656 5.609375 -19.546875 C 5.609375 -23.785156 5.539062 -27.1875 5.40625 -29.75 C 5.28125 -32.320312 5.109375 -33.765625 4.890625 -34.078125 C 4.703125 -34.347656 4.132812 -34.675781 3.1875 -35.0625 C 2.238281 -35.457031 1.765625 -36.015625 1.765625 -36.734375 C 1.765625 -37.441406 2.160156 -37.929688 2.953125 -38.203125 C 3.753906 -38.472656 5.769531 -38.609375 9 -38.609375 C 12.238281 -38.609375 14.257812 -38.472656 15.0625 -38.203125 C 15.863281 -37.929688 16.265625 -37.441406 16.265625 -36.734375 C 16.265625 -35.992188 15.695312 -35.421875 14.5625 -35.015625 C 13.96875 -34.785156 13.5625 -34.585938 13.34375 -34.421875 C 13.007812 -34.140625 12.765625 -33.085938 12.609375 -31.265625 C 12.460938 -29.453125 12.390625 -26.691406 12.390625 -22.984375 C 12.390625 -18.421875 12.429688 -14.660156 12.515625 -11.703125 C 12.597656 -8.742188 12.71875 -6.945312 12.875 -6.3125 C 13.101562 -5.414062 13.625 -4.800781 14.4375 -4.46875 C 15.257812 -4.144531 16.816406 -3.984375 19.109375 -3.984375 Z M 20.109375 -3.984375 "/></g></g></g><g fill="#000000" fill-opacity="1"><g transform="translate(537.039154, 132.821563)"><g><path d="M 10.96875 -15.359375 L 10.96875 -15.203125 C 10.894531 -12.203125 10.859375 -9.992188 10.859375 -8.578125 C 10.859375 -6.878906 10.9375 -5.675781 11.09375 -4.96875 C 11.25 -4.257812 11.523438 -3.800781 11.921875 -3.59375 C 12.140625 -3.46875 12.472656 -3.320312 12.921875 -3.15625 C 13.835938 -2.820312 14.296875 -2.3125 14.296875 -1.625 C 14.296875 -0.9375 13.851562 -0.445312 12.96875 -0.15625 C 12.09375 0.125 10.484375 0.265625 8.140625 0.265625 C 5.398438 0.265625 3.585938 0.117188 2.703125 -0.171875 C 1.816406 -0.472656 1.375 -1.019531 1.375 -1.8125 C 1.375 -2.414062 1.8125 -2.878906 2.6875 -3.203125 C 3.019531 -3.328125 3.253906 -3.421875 3.390625 -3.484375 C 3.847656 -3.742188 4.171875 -4.175781 4.359375 -4.78125 C 4.554688 -5.382812 4.65625 -6.367188 4.65625 -7.734375 C 4.65625 -8.054688 4.644531 -8.65625 4.625 -9.53125 C 4.613281 -10.414062 4.609375 -11.144531 4.609375 -11.71875 L 4.609375 -14.5 C 4.609375 -17.332031 4.535156 -19.175781 4.390625 -20.03125 C 4.253906 -20.894531 4.003906 -21.421875 3.640625 -21.609375 C 3.367188 -21.753906 2.945312 -21.910156 2.375 -22.078125 C 1.289062 -22.421875 0.75 -22.894531 0.75 -23.5 C 0.75 -23.894531 0.914062 -24.25 1.25 -24.5625 C 1.59375 -24.882812 2.148438 -25.203125 2.921875 -25.515625 C 4.285156 -26.054688 5.640625 -26.492188 6.984375 -26.828125 C 8.328125 -27.160156 9.28125 -27.328125 9.84375 -27.328125 C 10.332031 -27.328125 10.679688 -27.15625 10.890625 -26.8125 C 11.109375 -26.46875 11.21875 -25.878906 11.21875 -25.046875 C 11.21875 -24.398438 11.210938 -23.867188 11.203125 -23.453125 C 11.203125 -23.035156 11.191406 -22.628906 11.171875 -22.234375 Z M 3.03125 -35.375 C 3.03125 -36.382812 3.453125 -37.25 4.296875 -37.96875 C 5.140625 -38.695312 6.164062 -39.0625 7.375 -39.0625 C 8.539062 -39.0625 9.503906 -38.734375 10.265625 -38.078125 C 11.035156 -37.429688 11.421875 -36.613281 11.421875 -35.625 C 11.421875 -34.644531 11.003906 -33.8125 10.171875 -33.125 C 9.335938 -32.4375 8.289062 -32.09375 7.03125 -32.09375 C 5.875 -32.09375 4.914062 -32.398438 4.15625 -33.015625 C 3.40625 -33.640625 3.03125 -34.425781 3.03125 -35.375 Z M 3.03125 -35.375 "/></g></g></g><g fill="#000000" fill-opacity="1"><g transform="translate(552.345683, 132.821563)"><g><path d="M 16.671875 -26.578125 C 17.117188 -26.578125 17.425781 -26.488281 17.59375 -26.3125 C 17.757812 -26.144531 17.84375 -25.8125 17.84375 -25.3125 L 17.84375 -24.671875 C 17.84375 -24.203125 17.75 -23.863281 17.5625 -23.65625 C 17.382812 -23.445312 17.085938 -23.34375 16.671875 -23.34375 L 11.125 -23.34375 C 10.945312 -23.34375 10.804688 -23.269531 10.703125 -23.125 C 10.597656 -22.976562 10.546875 -22.769531 10.546875 -22.5 L 10.546875 -9.09375 C 10.546875 -6.789062 10.738281 -5.34375 11.125 -4.75 C 11.519531 -4.164062 12.242188 -3.875 13.296875 -3.875 C 13.859375 -3.875 14.582031 -4.019531 15.46875 -4.3125 C 16.363281 -4.601562 16.984375 -4.75 17.328125 -4.75 C 17.722656 -4.75 18.046875 -4.632812 18.296875 -4.40625 C 18.554688 -4.175781 18.6875 -3.867188 18.6875 -3.484375 C 18.6875 -2.503906 17.925781 -1.550781 16.40625 -0.625 C 14.882812 0.289062 13.15625 0.75 11.21875 0.75 C 10.101562 0.75 9.097656 0.601562 8.203125 0.3125 C 7.316406 0.0195312 6.554688 -0.421875 5.921875 -1.015625 C 5.285156 -1.597656 4.835938 -2.382812 4.578125 -3.375 C 4.316406 -4.363281 4.1875 -6.203125 4.1875 -8.890625 L 4.1875 -23.34375 L 1.703125 -23.34375 C 1.328125 -23.34375 1.066406 -23.410156 0.921875 -23.546875 C 0.773438 -23.691406 0.703125 -23.925781 0.703125 -24.25 L 0.703125 -24.90625 C 0.703125 -25.488281 1.640625 -26.582031 3.515625 -28.1875 C 3.984375 -28.582031 4.351562 -28.898438 4.625 -29.140625 C 4.863281 -29.347656 5.207031 -29.648438 5.65625 -30.046875 C 7.519531 -31.679688 8.796875 -32.5 9.484375 -32.5 C 9.847656 -32.5 10.132812 -32.421875 10.34375 -32.265625 C 10.550781 -32.109375 10.65625 -31.894531 10.65625 -31.625 L 10.65625 -26.578125 Z M 16.671875 -26.578125 "/></g></g></g><g fill="#000000" fill-opacity="1"><g transform="translate(571.452997, 132.821563)"><g><path d="M 10.96875 -13.65625 L 10.59375 -13.65625 C 9.59375 -13.65625 9 -13.578125 8.8125 -13.421875 C 8.625 -13.265625 8.53125 -12.847656 8.53125 -12.171875 C 8.53125 -9.929688 9.332031 -8.003906 10.9375 -6.390625 C 12.539062 -4.785156 14.488281 -3.984375 16.78125 -3.984375 C 17.757812 -3.984375 18.707031 -4.128906 19.625 -4.421875 C 20.539062 -4.710938 21.425781 -5.160156 22.28125 -5.765625 C 22.53125 -5.941406 22.859375 -6.191406 23.265625 -6.515625 C 24.160156 -7.253906 24.859375 -7.625 25.359375 -7.625 C 25.753906 -7.625 26.082031 -7.492188 26.34375 -7.234375 C 26.601562 -6.984375 26.734375 -6.675781 26.734375 -6.3125 C 26.734375 -5.875 26.507812 -5.34375 26.0625 -4.71875 C 25.613281 -4.09375 25.007812 -3.476562 24.25 -2.875 C 22.6875 -1.582031 21.179688 -0.65625 19.734375 -0.09375 C 18.285156 0.46875 16.707031 0.75 15 0.75 C 11.164062 0.75 7.96875 -0.550781 5.40625 -3.15625 C 2.851562 -5.769531 1.578125 -9.007812 1.578125 -12.875 C 1.578125 -17.082031 2.890625 -20.539062 5.515625 -23.25 C 8.148438 -25.96875 11.515625 -27.328125 15.609375 -27.328125 C 19.078125 -27.328125 21.820312 -26.335938 23.84375 -24.359375 C 25.875 -22.390625 26.890625 -19.722656 26.890625 -16.359375 C 26.890625 -15.265625 26.722656 -14.539062 26.390625 -14.1875 C 26.066406 -13.832031 25.234375 -13.65625 23.890625 -13.65625 Z M 10.421875 -16.734375 L 19.15625 -16.734375 C 19.84375 -16.734375 20.296875 -16.800781 20.515625 -16.9375 C 20.742188 -17.070312 20.859375 -17.335938 20.859375 -17.734375 C 20.859375 -19.472656 20.273438 -20.929688 19.109375 -22.109375 C 17.953125 -23.296875 16.488281 -23.890625 14.71875 -23.890625 C 13.007812 -23.890625 11.59375 -23.296875 10.46875 -22.109375 C 9.351562 -20.929688 8.796875 -19.472656 8.796875 -17.734375 C 8.796875 -17.335938 8.894531 -17.070312 9.09375 -16.9375 C 9.300781 -16.800781 9.742188 -16.734375 10.421875 -16.734375 Z M 10.421875 -16.734375 "/></g></g></g><g fill="#000000" fill-opacity="1"><g transform="translate(599.894182, 132.821563)"><g><path d="M 10.8125 -22.984375 L 11.0625 -22.875 C 11.976562 -24.320312 12.941406 -25.425781 13.953125 -26.1875 C 14.960938 -26.945312 15.972656 -27.328125 16.984375 -27.328125 C 18.222656 -27.328125 19.210938 -26.953125 19.953125 -26.203125 C 20.703125 -25.453125 21.078125 -24.445312 21.078125 -23.1875 C 21.078125 -21.9375 20.789062 -20.953125 20.21875 -20.234375 C 19.644531 -19.515625 18.851562 -19.15625 17.84375 -19.15625 C 17.34375 -19.15625 16.882812 -19.242188 16.46875 -19.421875 C 16.050781 -19.609375 15.679688 -19.875 15.359375 -20.21875 C 15.128906 -20.457031 14.921875 -20.8125 14.734375 -21.28125 C 14.546875 -21.75 14.347656 -21.984375 14.140625 -21.984375 C 12.898438 -21.984375 12.035156 -21.125 11.546875 -19.40625 C 11.054688 -17.6875 10.8125 -14.097656 10.8125 -8.640625 C 10.8125 -7.066406 10.914062 -5.882812 11.125 -5.09375 C 11.34375 -4.300781 11.691406 -3.800781 12.171875 -3.59375 C 12.429688 -3.488281 12.785156 -3.367188 13.234375 -3.234375 C 14.328125 -2.890625 14.875 -2.351562 14.875 -1.625 C 14.875 -0.957031 14.375 -0.472656 13.375 -0.171875 C 12.375 0.117188 10.628906 0.265625 8.140625 0.265625 C 5.421875 0.265625 3.617188 0.117188 2.734375 -0.171875 C 1.859375 -0.472656 1.421875 -1.019531 1.421875 -1.8125 C 1.421875 -2.414062 1.851562 -2.875 2.71875 -3.1875 C 3.0625 -3.320312 3.300781 -3.421875 3.4375 -3.484375 C 3.90625 -3.742188 4.234375 -4.175781 4.421875 -4.78125 C 4.609375 -5.382812 4.703125 -6.367188 4.703125 -7.734375 C 4.703125 -8.054688 4.691406 -8.65625 4.671875 -9.53125 C 4.660156 -10.414062 4.65625 -11.144531 4.65625 -11.71875 L 4.65625 -13.296875 C 4.65625 -16.617188 4.582031 -18.78125 4.4375 -19.78125 C 4.289062 -20.78125 4.023438 -21.390625 3.640625 -21.609375 C 3.367188 -21.753906 2.957031 -21.910156 2.40625 -22.078125 C 1.332031 -22.421875 0.796875 -22.894531 0.796875 -23.5 C 0.796875 -23.9375 0.957031 -24.300781 1.28125 -24.59375 C 1.601562 -24.894531 2.164062 -25.203125 2.96875 -25.515625 C 4.207031 -26.015625 5.410156 -26.414062 6.578125 -26.71875 C 7.742188 -27.019531 8.550781 -27.171875 9 -27.171875 C 9.863281 -27.171875 10.441406 -25.957031 10.734375 -23.53125 C 10.765625 -23.289062 10.789062 -23.109375 10.8125 -22.984375 Z M 10.8125 -22.984375 "/></g></g></g><g fill="#000000" fill-opacity="1"><g transform="translate(620.501123, 132.821563)"><g><path d="M 24.453125 -7.375 C 24.453125 -6.351562 24.539062 -5.59375 24.71875 -5.09375 C 24.894531 -4.59375 25.160156 -4.289062 25.515625 -4.1875 C 25.722656 -4.113281 26 -4.035156 26.34375 -3.953125 C 27.476562 -3.640625 28.046875 -3.179688 28.046875 -2.578125 C 28.046875 -1.722656 27.441406 -0.945312 26.234375 -0.25 C 25.035156 0.445312 23.632812 0.796875 22.03125 0.796875 C 21.238281 0.796875 20.394531 0.328125 19.5 -0.609375 C 18.613281 -1.546875 18.144531 -2.015625 18.09375 -2.015625 C 17.9375 -2.015625 17.550781 -1.816406 16.9375 -1.421875 C 14.65625 0.0546875 12.414062 0.796875 10.21875 0.796875 C 7.59375 0.796875 5.46875 0.0351562 3.84375 -1.484375 C 2.226562 -3.015625 1.421875 -5.007812 1.421875 -7.46875 C 1.421875 -10.351562 2.460938 -12.597656 4.546875 -14.203125 C 6.628906 -15.816406 9.546875 -16.625 13.296875 -16.625 C 13.992188 -16.625 14.757812 -16.582031 15.59375 -16.5 C 16.4375 -16.425781 17.34375 -16.3125 18.3125 -16.15625 L 18.328125 -19 C 18.328125 -20.59375 17.984375 -21.8125 17.296875 -22.65625 C 16.609375 -23.507812 15.625 -23.9375 14.34375 -23.9375 C 13.46875 -23.9375 12.648438 -23.742188 11.890625 -23.359375 C 11.128906 -22.972656 10.398438 -22.375 9.703125 -21.5625 C 9.554688 -21.40625 9.363281 -21.171875 9.125 -20.859375 C 8.039062 -19.484375 6.882812 -18.796875 5.65625 -18.796875 C 4.957031 -18.796875 4.394531 -19.023438 3.96875 -19.484375 C 3.539062 -19.941406 3.328125 -20.554688 3.328125 -21.328125 C 3.328125 -23.015625 4.367188 -24.4375 6.453125 -25.59375 C 8.546875 -26.75 11.226562 -27.328125 14.5 -27.328125 C 16.5 -27.328125 18.210938 -27.0625 19.640625 -26.53125 C 21.078125 -26.007812 22.191406 -25.25 22.984375 -24.25 C 23.515625 -23.5625 23.890625 -22.664062 24.109375 -21.5625 C 24.335938 -20.457031 24.453125 -18.625 24.453125 -16.0625 Z M 18.3125 -12.71875 C 17.601562 -12.875 16.921875 -12.988281 16.265625 -13.0625 C 15.609375 -13.144531 14.988281 -13.1875 14.40625 -13.1875 C 12.46875 -13.1875 10.957031 -12.753906 9.875 -11.890625 C 8.789062 -11.023438 8.25 -9.835938 8.25 -8.328125 C 8.25 -6.890625 8.71875 -5.738281 9.65625 -4.875 C 10.59375 -4.019531 11.851562 -3.59375 13.4375 -3.59375 C 15.195312 -3.59375 16.453125 -3.976562 17.203125 -4.75 C 17.953125 -5.53125 18.328125 -6.859375 18.328125 -8.734375 Z M 18.3125 -12.71875 "/></g></g></g><g fill="#000000" fill-opacity="1"><g transform="translate(649.304287, 132.821563)"><g><path d="M 16.671875 -26.578125 C 17.117188 -26.578125 17.425781 -26.488281 17.59375 -26.3125 C 17.757812 -26.144531 17.84375 -25.8125 17.84375 -25.3125 L 17.84375 -24.671875 C 17.84375 -24.203125 17.75 -23.863281 17.5625 -23.65625 C 17.382812 -23.445312 17.085938 -23.34375 16.671875 -23.34375 L 11.125 -23.34375 C 10.945312 -23.34375 10.804688 -23.269531 10.703125 -23.125 C 10.597656 -22.976562 10.546875 -22.769531 10.546875 -22.5 L 10.546875 -9.09375 C 10.546875 -6.789062 10.738281 -5.34375 11.125 -4.75 C 11.519531 -4.164062 12.242188 -3.875 13.296875 -3.875 C 13.859375 -3.875 14.582031 -4.019531 15.46875 -4.3125 C 16.363281 -4.601562 16.984375 -4.75 17.328125 -4.75 C 17.722656 -4.75 18.046875 -4.632812 18.296875 -4.40625 C 18.554688 -4.175781 18.6875 -3.867188 18.6875 -3.484375 C 18.6875 -2.503906 17.925781 -1.550781 16.40625 -0.625 C 14.882812 0.289062 13.15625 0.75 11.21875 0.75 C 10.101562 0.75 9.097656 0.601562 8.203125 0.3125 C 7.316406 0.0195312 6.554688 -0.421875 5.921875 -1.015625 C 5.285156 -1.597656 4.835938 -2.382812 4.578125 -3.375 C 4.316406 -4.363281 4.1875 -6.203125 4.1875 -8.890625 L 4.1875 -23.34375 L 1.703125 -23.34375 C 1.328125 -23.34375 1.066406 -23.410156 0.921875 -23.546875 C 0.773438 -23.691406 0.703125 -23.925781 0.703125 -24.25 L 0.703125 -24.90625 C 0.703125 -25.488281 1.640625 -26.582031 3.515625 -28.1875 C 3.984375 -28.582031 4.351562 -28.898438 4.625 -29.140625 C 4.863281 -29.347656 5.207031 -29.648438 5.65625 -30.046875 C 7.519531 -31.679688 8.796875 -32.5 9.484375 -32.5 C 9.847656 -32.5 10.132812 -32.421875 10.34375 -32.265625 C 10.550781 -32.109375 10.65625 -31.894531 10.65625 -31.625 L 10.65625 -26.578125 Z M 16.671875 -26.578125 "/></g></g></g><g fill="#000000" fill-opacity="1"><g transform="translate(668.411602, 132.821563)"><g><path d="M 21.28125 -0.90625 L 21.28125 -2.8125 C 21.28125 -2.882812 21.265625 -2.925781 21.234375 -2.9375 C 21.210938 -2.957031 21.175781 -2.96875 21.125 -2.96875 C 20.914062 -2.96875 20.597656 -2.742188 20.171875 -2.296875 C 20.015625 -2.128906 19.894531 -2 19.8125 -1.90625 C 18.957031 -1.03125 17.988281 -0.378906 16.90625 0.046875 C 15.820312 0.484375 14.617188 0.703125 13.296875 0.703125 C 11.929688 0.703125 10.65625 0.445312 9.46875 -0.0625 C 8.289062 -0.570312 7.304688 -1.289062 6.515625 -2.21875 C 5.671875 -3.238281 5.070312 -4.472656 4.71875 -5.921875 C 4.363281 -7.367188 4.1875 -10.023438 4.1875 -13.890625 C 4.1875 -14.242188 4.191406 -14.84375 4.203125 -15.6875 C 4.222656 -16.539062 4.234375 -17.207031 4.234375 -17.6875 L 4.234375 -18.234375 C 4.234375 -19.710938 4.128906 -20.65625 3.921875 -21.0625 C 3.722656 -21.46875 3.296875 -21.789062 2.640625 -22.03125 C 2.378906 -22.132812 2.023438 -22.242188 1.578125 -22.359375 C 0.554688 -22.640625 0.046875 -23.097656 0.046875 -23.734375 C 0.046875 -24.179688 0.226562 -24.554688 0.59375 -24.859375 C 0.957031 -25.160156 1.769531 -25.523438 3.03125 -25.953125 C 4.28125 -26.367188 5.488281 -26.703125 6.65625 -26.953125 C 7.832031 -27.203125 8.796875 -27.328125 9.546875 -27.328125 C 10.023438 -27.328125 10.367188 -27.144531 10.578125 -26.78125 C 10.796875 -26.425781 10.90625 -25.847656 10.90625 -25.046875 C 10.90625 -24.953125 10.890625 -24.601562 10.859375 -24 C 10.679688 -20.6875 10.59375 -17.332031 10.59375 -13.9375 C 10.59375 -10.257812 10.972656 -7.722656 11.734375 -6.328125 C 12.492188 -4.929688 13.785156 -4.234375 15.609375 -4.234375 C 17.679688 -4.234375 19.160156 -5.140625 20.046875 -6.953125 C 20.941406 -8.765625 21.390625 -11.867188 21.390625 -16.265625 L 21.390625 -18.328125 C 21.390625 -19.722656 21.285156 -20.628906 21.078125 -21.046875 C 20.878906 -21.472656 20.472656 -21.800781 19.859375 -22.03125 C 19.578125 -22.132812 19.210938 -22.242188 18.765625 -22.359375 C 17.765625 -22.640625 17.265625 -23.097656 17.265625 -23.734375 C 17.265625 -24.160156 17.441406 -24.523438 17.796875 -24.828125 C 18.148438 -25.128906 18.957031 -25.503906 20.21875 -25.953125 C 21.476562 -26.367188 22.6875 -26.703125 23.84375 -26.953125 C 25 -27.203125 25.925781 -27.328125 26.625 -27.328125 C 27.175781 -27.328125 27.5625 -27.160156 27.78125 -26.828125 C 28 -26.492188 28.109375 -25.898438 28.109375 -25.046875 C 28.109375 -24.859375 28.085938 -24.363281 28.046875 -23.5625 C 27.847656 -19.726562 27.75 -16.019531 27.75 -12.4375 C 27.75 -10.195312 27.765625 -8.679688 27.796875 -7.890625 C 27.828125 -7.109375 27.878906 -6.515625 27.953125 -6.109375 C 28.085938 -5.359375 28.613281 -4.804688 29.53125 -4.453125 L 29.546875 -4.453125 C 29.648438 -4.410156 29.816406 -4.359375 30.046875 -4.296875 C 31.054688 -3.953125 31.5625 -3.476562 31.5625 -2.875 C 31.5625 -2.476562 31.398438 -2.128906 31.078125 -1.828125 C 30.765625 -1.523438 30.222656 -1.21875 29.453125 -0.90625 C 28.117188 -0.382812 26.835938 0.0234375 25.609375 0.328125 C 24.378906 0.640625 23.4375 0.796875 22.78125 0.796875 C 22.257812 0.796875 21.878906 0.65625 21.640625 0.375 C 21.398438 0.101562 21.28125 -0.320312 21.28125 -0.90625 Z M 21.28125 -0.90625 "/></g></g></g><g fill="#000000" fill-opacity="1"><g transform="translate(700.498438, 132.821563)"><g><path d="M 10.8125 -22.984375 L 11.0625 -22.875 C 11.976562 -24.320312 12.941406 -25.425781 13.953125 -26.1875 C 14.960938 -26.945312 15.972656 -27.328125 16.984375 -27.328125 C 18.222656 -27.328125 19.210938 -26.953125 19.953125 -26.203125 C 20.703125 -25.453125 21.078125 -24.445312 21.078125 -23.1875 C 21.078125 -21.9375 20.789062 -20.953125 20.21875 -20.234375 C 19.644531 -19.515625 18.851562 -19.15625 17.84375 -19.15625 C 17.34375 -19.15625 16.882812 -19.242188 16.46875 -19.421875 C 16.050781 -19.609375 15.679688 -19.875 15.359375 -20.21875 C 15.128906 -20.457031 14.921875 -20.8125 14.734375 -21.28125 C 14.546875 -21.75 14.347656 -21.984375 14.140625 -21.984375 C 12.898438 -21.984375 12.035156 -21.125 11.546875 -19.40625 C 11.054688 -17.6875 10.8125 -14.097656 10.8125 -8.640625 C 10.8125 -7.066406 10.914062 -5.882812 11.125 -5.09375 C 11.34375 -4.300781 11.691406 -3.800781 12.171875 -3.59375 C 12.429688 -3.488281 12.785156 -3.367188 13.234375 -3.234375 C 14.328125 -2.890625 14.875 -2.351562 14.875 -1.625 C 14.875 -0.957031 14.375 -0.472656 13.375 -0.171875 C 12.375 0.117188 10.628906 0.265625 8.140625 0.265625 C 5.421875 0.265625 3.617188 0.117188 2.734375 -0.171875 C 1.859375 -0.472656 1.421875 -1.019531 1.421875 -1.8125 C 1.421875 -2.414062 1.851562 -2.875 2.71875 -3.1875 C 3.0625 -3.320312 3.300781 -3.421875 3.4375 -3.484375 C 3.90625 -3.742188 4.234375 -4.175781 4.421875 -4.78125 C 4.609375 -5.382812 4.703125 -6.367188 4.703125 -7.734375 C 4.703125 -8.054688 4.691406 -8.65625 4.671875 -9.53125 C 4.660156 -10.414062 4.65625 -11.144531 4.65625 -11.71875 L 4.65625 -13.296875 C 4.65625 -16.617188 4.582031 -18.78125 4.4375 -19.78125 C 4.289062 -20.78125 4.023438 -21.390625 3.640625 -21.609375 C 3.367188 -21.753906 2.957031 -21.910156 2.40625 -22.078125 C 1.332031 -22.421875 0.796875 -22.894531 0.796875 -23.5 C 0.796875 -23.9375 0.957031 -24.300781 1.28125 -24.59375 C 1.601562 -24.894531 2.164062 -25.203125 2.96875 -25.515625 C 4.207031 -26.015625 5.410156 -26.414062 6.578125 -26.71875 C 7.742188 -27.019531 8.550781 -27.171875 9 -27.171875 C 9.863281 -27.171875 10.441406 -25.957031 10.734375 -23.53125 C 10.765625 -23.289062 10.789062 -23.109375 10.8125 -22.984375 Z M 10.8125 -22.984375 "/></g></g></g><g fill="#000000" fill-opacity="1"><g transform="translate(721.105379, 132.821563)"><g><path d="M 10.96875 -13.65625 L 10.59375 -13.65625 C 9.59375 -13.65625 9 -13.578125 8.8125 -13.421875 C 8.625 -13.265625 8.53125 -12.847656 8.53125 -12.171875 C 8.53125 -9.929688 9.332031 -8.003906 10.9375 -6.390625 C 12.539062 -4.785156 14.488281 -3.984375 16.78125 -3.984375 C 17.757812 -3.984375 18.707031 -4.128906 19.625 -4.421875 C 20.539062 -4.710938 21.425781 -5.160156 22.28125 -5.765625 C 22.53125 -5.941406 22.859375 -6.191406 23.265625 -6.515625 C 24.160156 -7.253906 24.859375 -7.625 25.359375 -7.625 C 25.753906 -7.625 26.082031 -7.492188 26.34375 -7.234375 C 26.601562 -6.984375 26.734375 -6.675781 26.734375 -6.3125 C 26.734375 -5.875 26.507812 -5.34375 26.0625 -4.71875 C 25.613281 -4.09375 25.007812 -3.476562 24.25 -2.875 C 22.6875 -1.582031 21.179688 -0.65625 19.734375 -0.09375 C 18.285156 0.46875 16.707031 0.75 15 0.75 C 11.164062 0.75 7.96875 -0.550781 5.40625 -3.15625 C 2.851562 -5.769531 1.578125 -9.007812 1.578125 -12.875 C 1.578125 -17.082031 2.890625 -20.539062 5.515625 -23.25 C 8.148438 -25.96875 11.515625 -27.328125 15.609375 -27.328125 C 19.078125 -27.328125 21.820312 -26.335938 23.84375 -24.359375 C 25.875 -22.390625 26.890625 -19.722656 26.890625 -16.359375 C 26.890625 -15.265625 26.722656 -14.539062 26.390625 -14.1875 C 26.066406 -13.832031 25.234375 -13.65625 23.890625 -13.65625 Z M 10.421875 -16.734375 L 19.15625 -16.734375 C 19.84375 -16.734375 20.296875 -16.800781 20.515625 -16.9375 C 20.742188 -17.070312 20.859375 -17.335938 20.859375 -17.734375 C 20.859375 -19.472656 20.273438 -20.929688 19.109375 -22.109375 C 17.953125 -23.296875 16.488281 -23.890625 14.71875 -23.890625 C 13.007812 -23.890625 11.59375 -23.296875 10.46875 -22.109375 C 9.351562 -20.929688 8.796875 -19.472656 8.796875 -17.734375 C 8.796875 -17.335938 8.894531 -17.070312 9.09375 -16.9375 C 9.300781 -16.800781 9.742188 -16.734375 10.421875 -16.734375 Z M 10.421875 -16.734375 "/></g></g></g><g fill="#000000" fill-opacity="1"><g transform="translate(296.667233, 217.981997)"><g><path d="M 3.765625 -18.546875 C 4.796875 -18.546875 5.546875 -18.472656 6.015625 -18.328125 C 6.484375 -18.191406 6.71875 -17.960938 6.71875 -17.640625 C 6.71875 -17.410156 6.472656 -17.21875 5.984375 -17.0625 C 5.503906 -16.90625 5.234375 -16.78125 5.171875 -16.6875 C 5.035156 -16.519531 4.941406 -15.921875 4.890625 -14.890625 C 4.835938 -13.859375 4.8125 -11.976562 4.8125 -9.25 C 4.8125 -6.488281 4.835938 -4.585938 4.890625 -3.546875 C 4.941406 -2.503906 5.035156 -1.90625 5.171875 -1.75 C 5.234375 -1.65625 5.503906 -1.53125 5.984375 -1.375 C 6.472656 -1.21875 6.71875 -1.019531 6.71875 -0.78125 C 6.71875 -0.476562 6.488281 -0.253906 6.03125 -0.109375 C 5.570312 0.0234375 4.816406 0.09375 3.765625 0.09375 C 2.722656 0.09375 1.972656 0.0234375 1.515625 -0.109375 C 1.066406 -0.253906 0.84375 -0.476562 0.84375 -0.78125 C 0.84375 -1.019531 1.078125 -1.210938 1.546875 -1.359375 C 2.023438 -1.515625 2.304688 -1.644531 2.390625 -1.75 C 2.515625 -1.90625 2.601562 -2.503906 2.65625 -3.546875 C 2.707031 -4.585938 2.734375 -6.488281 2.734375 -9.25 C 2.734375 -11.976562 2.707031 -13.859375 2.65625 -14.890625 C 2.601562 -15.921875 2.515625 -16.515625 2.390625 -16.671875 C 2.316406 -16.773438 2.039062 -16.90625 1.5625 -17.0625 C 1.082031 -17.21875 0.84375 -17.410156 0.84375 -17.640625 C 0.84375 -17.960938 1.070312 -18.191406 1.53125 -18.328125 C 2 -18.472656 2.742188 -18.546875 3.765625 -18.546875 Z M 3.765625 -18.546875 "/></g></g></g><g fill="#000000" fill-opacity="1"><g transform="translate(304.228407, 217.981997)"><g><path d="M 4.078125 -11.015625 C 4.078125 -10.867188 4.085938 -10.769531 4.109375 -10.71875 C 4.140625 -10.675781 4.179688 -10.65625 4.234375 -10.65625 C 4.347656 -10.65625 4.515625 -10.804688 4.734375 -11.109375 C 4.910156 -11.367188 5.0625 -11.5625 5.1875 -11.6875 C 5.570312 -12.132812 6.019531 -12.46875 6.53125 -12.6875 C 7.039062 -12.90625 7.625 -13.015625 8.28125 -13.015625 C 9.457031 -13.015625 10.394531 -12.710938 11.09375 -12.109375 C 11.800781 -11.503906 12.296875 -10.570312 12.578125 -9.3125 C 12.628906 -9.09375 12.664062 -8.816406 12.6875 -8.484375 C 12.71875 -8.148438 12.734375 -7.703125 12.734375 -7.140625 C 12.734375 -6.960938 12.726562 -6.671875 12.71875 -6.265625 C 12.707031 -5.859375 12.703125 -5.539062 12.703125 -5.3125 C 12.703125 -4.882812 12.707031 -4.429688 12.71875 -3.953125 C 12.738281 -3.472656 12.757812 -2.972656 12.78125 -2.453125 C 12.789062 -2.078125 12.828125 -1.8125 12.890625 -1.65625 C 12.960938 -1.507812 13.082031 -1.382812 13.25 -1.28125 C 13.3125 -1.238281 13.4375 -1.195312 13.625 -1.15625 C 14.019531 -1.039062 14.21875 -0.875 14.21875 -0.65625 C 14.21875 -0.394531 14.023438 -0.203125 13.640625 -0.078125 C 13.253906 0.0351562 12.617188 0.09375 11.734375 0.09375 C 10.867188 0.09375 10.238281 0.0351562 9.84375 -0.078125 C 9.457031 -0.203125 9.265625 -0.394531 9.265625 -0.65625 C 9.265625 -0.863281 9.453125 -1.023438 9.828125 -1.140625 C 10.210938 -1.265625 10.457031 -1.40625 10.5625 -1.5625 C 10.632812 -1.695312 10.6875 -2.066406 10.71875 -2.671875 C 10.757812 -3.273438 10.78125 -4.703125 10.78125 -6.953125 C 10.78125 -8.523438 10.554688 -9.644531 10.109375 -10.3125 C 9.671875 -10.976562 8.953125 -11.3125 7.953125 -11.3125 C 7.296875 -11.3125 6.6875 -11.164062 6.125 -10.875 C 5.570312 -10.582031 5.078125 -10.15625 4.640625 -9.59375 C 4.441406 -9.351562 4.300781 -9.082031 4.21875 -8.78125 C 4.144531 -8.488281 4.109375 -8.050781 4.109375 -7.46875 L 4.109375 -6.546875 C 4.109375 -4.691406 4.125 -3.429688 4.15625 -2.765625 C 4.1875 -2.109375 4.242188 -1.707031 4.328125 -1.5625 C 4.421875 -1.40625 4.660156 -1.265625 5.046875 -1.140625 C 5.429688 -1.023438 5.625 -0.863281 5.625 -0.65625 C 5.625 -0.394531 5.425781 -0.203125 5.03125 -0.078125 C 4.644531 0.0351562 4.015625 0.09375 3.140625 0.09375 C 2.253906 0.09375 1.613281 0.0351562 1.21875 -0.078125 C 0.820312 -0.203125 0.625 -0.394531 0.625 -0.65625 C 0.625 -0.863281 0.816406 -1.023438 1.203125 -1.140625 C 1.585938 -1.265625 1.828125 -1.40625 1.921875 -1.5625 C 2.015625 -1.726562 2.078125 -2.179688 2.109375 -2.921875 C 2.148438 -3.660156 2.171875 -4.867188 2.171875 -6.546875 C 2.171875 -7.828125 2.144531 -8.816406 2.09375 -9.515625 C 2.039062 -10.210938 1.960938 -10.640625 1.859375 -10.796875 C 1.785156 -10.910156 1.53125 -11 1.09375 -11.0625 C 0.65625 -11.125 0.4375 -11.300781 0.4375 -11.59375 C 0.4375 -11.882812 0.78125 -12.191406 1.46875 -12.515625 C 2.164062 -12.847656 2.832031 -13.015625 3.46875 -13.015625 C 3.695312 -13.015625 3.851562 -12.945312 3.9375 -12.8125 C 4.03125 -12.6875 4.078125 -12.441406 4.078125 -12.078125 Z M 4.078125 -11.015625 "/></g></g></g><g fill="#000000" fill-opacity="1"><g transform="translate(318.85656, 217.981997)"><g><path d="M 2.15625 -11.0625 L 0.40625 -11.0625 C 0.238281 -11.0625 0.117188 -11.097656 0.046875 -11.171875 C -0.015625 -11.242188 -0.046875 -11.367188 -0.046875 -11.546875 L -0.046875 -11.875 C -0.046875 -12.039062 -0.015625 -12.164062 0.046875 -12.25 C 0.117188 -12.332031 0.234375 -12.375 0.390625 -12.375 L 2.09375 -12.390625 C 2.09375 -12.628906 2.078125 -12.96875 2.046875 -13.40625 C 2.015625 -14.070312 2 -14.5 2 -14.6875 C 2 -16 2.335938 -17.003906 3.015625 -17.703125 C 3.691406 -18.410156 4.664062 -18.765625 5.9375 -18.765625 C 6.789062 -18.765625 7.484375 -18.597656 8.015625 -18.265625 C 8.546875 -17.929688 8.8125 -17.503906 8.8125 -16.984375 C 8.8125 -16.679688 8.722656 -16.441406 8.546875 -16.265625 C 8.367188 -16.085938 8.132812 -16 7.84375 -16 C 7.625 -16 7.421875 -16.050781 7.234375 -16.15625 C 7.054688 -16.257812 6.90625 -16.40625 6.78125 -16.59375 C 6.75 -16.644531 6.707031 -16.722656 6.65625 -16.828125 C 6.3125 -17.390625 5.90625 -17.671875 5.4375 -17.671875 C 4.945312 -17.671875 4.554688 -17.46875 4.265625 -17.0625 C 3.984375 -16.65625 3.84375 -16.097656 3.84375 -15.390625 C 3.84375 -15.222656 3.875 -14.804688 3.9375 -14.140625 C 4.007812 -13.472656 4.046875 -12.890625 4.046875 -12.390625 L 6.40625 -12.375 C 6.570312 -12.375 6.6875 -12.332031 6.75 -12.25 C 6.820312 -12.175781 6.859375 -12.050781 6.859375 -11.875 L 6.859375 -11.546875 C 6.859375 -11.378906 6.820312 -11.253906 6.75 -11.171875 C 6.675781 -11.097656 6.5625 -11.0625 6.40625 -11.0625 L 4.078125 -11.0625 C 4.078125 -7.175781 4.09375 -4.707031 4.125 -3.65625 C 4.15625 -2.601562 4.207031 -1.945312 4.28125 -1.6875 C 4.320312 -1.5625 4.390625 -1.457031 4.484375 -1.375 C 4.585938 -1.300781 4.796875 -1.226562 5.109375 -1.15625 C 5.117188 -1.15625 5.140625 -1.15625 5.171875 -1.15625 C 5.609375 -1.039062 5.828125 -0.875 5.828125 -0.65625 C 5.828125 -0.382812 5.625 -0.191406 5.21875 -0.078125 C 4.8125 0.0351562 4.117188 0.09375 3.140625 0.09375 C 2.253906 0.09375 1.613281 0.0351562 1.21875 -0.078125 C 0.820312 -0.203125 0.625 -0.394531 0.625 -0.65625 C 0.625 -0.863281 0.800781 -1.019531 1.15625 -1.125 C 1.507812 -1.238281 1.726562 -1.335938 1.8125 -1.421875 C 1.96875 -1.554688 2.070312 -1.9375 2.125 -2.5625 C 2.175781 -3.195312 2.203125 -4.710938 2.203125 -7.109375 C 2.203125 -7.578125 2.195312 -8.082031 2.1875 -8.625 C 2.1875 -9.164062 2.175781 -9.976562 2.15625 -11.0625 Z M 2.15625 -11.0625 "/></g></g></g><g fill="#000000" fill-opacity="1"><g transform="translate(325.664087, 217.981997)"><g><path d="M 3.09375 -6.859375 C 3.09375 -5.109375 3.507812 -3.660156 4.34375 -2.515625 C 5.175781 -1.378906 6.207031 -0.8125 7.4375 -0.8125 C 8.695312 -0.8125 9.6875 -1.265625 10.40625 -2.171875 C 11.132812 -3.078125 11.5 -4.332031 11.5 -5.9375 C 11.5 -7.613281 11.066406 -9.007812 10.203125 -10.125 C 9.335938 -11.238281 8.253906 -11.796875 6.953125 -11.796875 C 5.816406 -11.796875 4.890625 -11.34375 4.171875 -10.4375 C 3.453125 -9.53125 3.09375 -8.335938 3.09375 -6.859375 Z M 0.859375 -6.125 C 0.859375 -8.09375 1.492188 -9.726562 2.765625 -11.03125 C 4.046875 -12.332031 5.640625 -12.984375 7.546875 -12.984375 C 9.359375 -12.984375 10.847656 -12.382812 12.015625 -11.1875 C 13.179688 -9.988281 13.765625 -8.460938 13.765625 -6.609375 C 13.765625 -4.628906 13.132812 -2.976562 11.875 -1.65625 C 10.613281 -0.332031 9.050781 0.328125 7.1875 0.328125 C 5.394531 0.328125 3.890625 -0.289062 2.671875 -1.53125 C 1.460938 -2.769531 0.859375 -4.300781 0.859375 -6.125 Z M 0.859375 -6.125 "/></g></g></g><g fill="#000000" fill-opacity="1"><g transform="translate(296.667233, 277.657497)"><g><path d="M 10.578125 -7.546875 L 10.28125 -8.390625 C 9.34375 -11.097656 8.75 -12.453125 8.5 -12.453125 C 8.238281 -12.453125 7.570312 -11.015625 6.5 -8.140625 L 6.28125 -7.546875 C 6.800781 -7.566406 7.207031 -7.578125 7.5 -7.578125 C 7.800781 -7.585938 8.085938 -7.59375 8.359375 -7.59375 C 8.609375 -7.59375 8.882812 -7.585938 9.1875 -7.578125 C 9.488281 -7.578125 9.953125 -7.566406 10.578125 -7.546875 Z M 14.875 0.125 C 13.476562 0.125 12.492188 0.0234375 11.921875 -0.171875 C 11.347656 -0.367188 11.0625 -0.695312 11.0625 -1.15625 C 11.0625 -1.34375 11.097656 -1.507812 11.171875 -1.65625 C 11.242188 -1.800781 11.34375 -1.910156 11.46875 -1.984375 C 11.550781 -2.023438 11.671875 -2.078125 11.828125 -2.140625 C 12.191406 -2.304688 12.375 -2.488281 12.375 -2.6875 C 12.375 -3.019531 12.257812 -3.445312 12.03125 -3.96875 C 11.800781 -4.488281 11.570312 -4.828125 11.34375 -4.984375 C 11.21875 -5.066406 10.910156 -5.125 10.421875 -5.15625 C 9.929688 -5.195312 9.257812 -5.21875 8.40625 -5.21875 C 7.320312 -5.21875 6.566406 -5.195312 6.140625 -5.15625 C 5.722656 -5.125 5.460938 -5.078125 5.359375 -5.015625 C 5.191406 -4.929688 5.007812 -4.660156 4.8125 -4.203125 C 4.625 -3.753906 4.53125 -3.382812 4.53125 -3.09375 C 4.53125 -2.914062 4.570312 -2.769531 4.65625 -2.65625 C 4.75 -2.550781 4.914062 -2.445312 5.15625 -2.34375 C 5.207031 -2.3125 5.273438 -2.273438 5.359375 -2.234375 C 6.003906 -1.941406 6.328125 -1.582031 6.328125 -1.15625 C 6.328125 -0.707031 6.0625 -0.390625 5.53125 -0.203125 C 5.007812 -0.015625 4.035156 0.078125 2.609375 0.078125 C 1.617188 0.078125 0.867188 -0.0195312 0.359375 -0.21875 C -0.140625 -0.425781 -0.390625 -0.734375 -0.390625 -1.140625 C -0.390625 -1.617188 -0.0078125 -2 0.75 -2.28125 C 1.019531 -2.394531 1.210938 -2.476562 1.328125 -2.53125 C 1.765625 -2.75 2.515625 -4.222656 3.578125 -6.953125 C 3.898438 -7.773438 4.15625 -8.421875 4.34375 -8.890625 C 4.488281 -9.242188 4.703125 -9.753906 4.984375 -10.421875 C 6.335938 -13.765625 7.113281 -16.078125 7.3125 -17.359375 C 7.40625 -17.953125 7.5625 -18.328125 7.78125 -18.484375 C 8.007812 -18.648438 8.410156 -18.734375 8.984375 -18.734375 C 9.515625 -18.734375 9.925781 -18.664062 10.21875 -18.53125 C 10.519531 -18.394531 10.789062 -18.160156 11.03125 -17.828125 C 11.34375 -17.359375 11.863281 -16.253906 12.59375 -14.515625 C 13.332031 -12.785156 14.691406 -9.382812 16.671875 -4.3125 L 16.71875 -4.203125 C 17.082031 -3.234375 17.578125 -2.648438 18.203125 -2.453125 C 18.640625 -2.316406 18.96875 -2.144531 19.1875 -1.9375 C 19.40625 -1.726562 19.515625 -1.488281 19.515625 -1.21875 C 19.515625 -0.726562 19.171875 -0.378906 18.484375 -0.171875 C 17.804688 0.0234375 16.601562 0.125 14.875 0.125 Z M 14.875 0.125 "/></g></g></g><g fill="#000000" fill-opacity="1"><g transform="translate(315.866684, 277.657497)"><g><path d="M 4 0.3125 C 3.925781 0.46875 3.875 0.585938 3.84375 0.671875 C 3.820312 0.753906 3.8125 0.828125 3.8125 0.890625 C 3.8125 1.492188 4.109375 1.992188 4.703125 2.390625 C 5.296875 2.785156 6.070312 2.984375 7.03125 2.984375 C 8.050781 2.984375 8.84375 2.832031 9.40625 2.53125 C 9.976562 2.226562 10.265625 1.804688 10.265625 1.265625 C 10.265625 0.910156 10.160156 0.644531 9.953125 0.46875 C 9.753906 0.300781 9.441406 0.21875 9.015625 0.21875 C 8.878906 0.21875 8.46875 0.253906 7.78125 0.328125 C 7.101562 0.410156 6.484375 0.453125 5.921875 0.453125 C 5.617188 0.453125 5.304688 0.441406 4.984375 0.421875 C 4.671875 0.398438 4.34375 0.363281 4 0.3125 Z M 6.953125 -5.625 C 7.578125 -5.625 8.0625 -5.835938 8.40625 -6.265625 C 8.757812 -6.703125 8.9375 -7.304688 8.9375 -8.078125 C 8.9375 -8.960938 8.726562 -9.703125 8.3125 -10.296875 C 7.894531 -10.890625 7.382812 -11.1875 6.78125 -11.1875 C 6.21875 -11.1875 5.753906 -10.960938 5.390625 -10.515625 C 5.035156 -10.078125 4.859375 -9.5 4.859375 -8.78125 C 4.859375 -7.863281 5.054688 -7.109375 5.453125 -6.515625 C 5.859375 -5.921875 6.359375 -5.625 6.953125 -5.625 Z M 2.203125 -0.4375 C 1.722656 -0.664062 1.363281 -0.941406 1.125 -1.265625 C 0.894531 -1.585938 0.78125 -1.960938 0.78125 -2.390625 C 0.78125 -2.890625 0.941406 -3.335938 1.265625 -3.734375 C 1.585938 -4.140625 2.066406 -4.472656 2.703125 -4.734375 C 2.265625 -5.109375 1.921875 -5.585938 1.671875 -6.171875 C 1.429688 -6.753906 1.3125 -7.40625 1.3125 -8.125 C 1.3125 -9.664062 1.835938 -10.890625 2.890625 -11.796875 C 3.953125 -12.703125 5.382812 -13.15625 7.1875 -13.15625 C 7.90625 -13.15625 8.632812 -13.046875 9.375 -12.828125 C 10.125 -12.617188 10.519531 -12.515625 10.5625 -12.515625 C 10.925781 -12.515625 11.34375 -12.617188 11.8125 -12.828125 C 12.289062 -13.046875 12.75 -13.34375 13.1875 -13.71875 C 13.40625 -13.601562 13.5625 -13.457031 13.65625 -13.28125 C 13.757812 -13.113281 13.8125 -12.90625 13.8125 -12.65625 C 13.8125 -12.25 13.671875 -11.867188 13.390625 -11.515625 C 13.117188 -11.171875 12.6875 -10.84375 12.09375 -10.53125 C 12.25 -10.238281 12.363281 -9.929688 12.4375 -9.609375 C 12.519531 -9.296875 12.5625 -8.96875 12.5625 -8.625 C 12.5625 -7.132812 11.992188 -5.898438 10.859375 -4.921875 C 9.722656 -3.953125 8.269531 -3.46875 6.5 -3.46875 C 5.96875 -3.46875 5.492188 -3.507812 5.078125 -3.59375 C 4.660156 -3.6875 4.28125 -3.820312 3.9375 -4 C 3.820312 -3.875 3.734375 -3.753906 3.671875 -3.640625 C 3.617188 -3.523438 3.59375 -3.40625 3.59375 -3.28125 C 3.59375 -2.925781 3.785156 -2.660156 4.171875 -2.484375 C 4.566406 -2.304688 5.179688 -2.21875 6.015625 -2.21875 C 6.523438 -2.21875 7.28125 -2.273438 8.28125 -2.390625 C 9.28125 -2.503906 10.019531 -2.5625 10.5 -2.5625 C 11.65625 -2.5625 12.539062 -2.3125 13.15625 -1.8125 C 13.769531 -1.3125 14.078125 -0.597656 14.078125 0.328125 C 14.078125 1.703125 13.378906 2.859375 11.984375 3.796875 C 10.597656 4.742188 8.847656 5.21875 6.734375 5.21875 C 4.796875 5.21875 3.269531 4.90625 2.15625 4.28125 C 1.050781 3.65625 0.5 2.8125 0.5 1.75 C 0.5 1.25 0.632812 0.820312 0.90625 0.46875 C 1.1875 0.125 1.617188 -0.175781 2.203125 -0.4375 Z M 2.203125 -0.4375 "/></g></g></g><g fill="#000000" fill-opacity="1"><g transform="translate(329.629997, 277.657497)"><g><path d="M 12.09375 -6.234375 L 5.890625 -6.234375 C 5.609375 -6.234375 5.425781 -6.203125 5.34375 -6.140625 C 5.269531 -6.085938 5.234375 -5.984375 5.234375 -5.828125 C 5.234375 -4.953125 5.554688 -4.191406 6.203125 -3.546875 C 6.859375 -2.898438 7.648438 -2.578125 8.578125 -2.578125 C 9.265625 -2.578125 9.992188 -2.757812 10.765625 -3.125 C 11.535156 -3.488281 11.976562 -3.671875 12.09375 -3.671875 C 12.332031 -3.671875 12.535156 -3.597656 12.703125 -3.453125 C 12.878906 -3.304688 12.96875 -3.132812 12.96875 -2.9375 C 12.96875 -2.613281 12.878906 -2.3125 12.703125 -2.03125 C 12.535156 -1.757812 12.25 -1.460938 11.84375 -1.140625 C 11.226562 -0.648438 10.535156 -0.273438 9.765625 -0.015625 C 8.992188 0.234375 8.1875 0.359375 7.34375 0.359375 C 5.351562 0.359375 3.738281 -0.257812 2.5 -1.5 C 1.269531 -2.738281 0.65625 -4.347656 0.65625 -6.328125 C 0.65625 -8.328125 1.289062 -9.972656 2.5625 -11.265625 C 3.84375 -12.566406 5.46875 -13.21875 7.4375 -13.21875 C 9.15625 -13.21875 10.5625 -12.734375 11.65625 -11.765625 C 12.757812 -10.796875 13.3125 -9.570312 13.3125 -8.09375 C 13.3125 -7.3125 13.226562 -6.804688 13.0625 -6.578125 C 12.894531 -6.347656 12.570312 -6.234375 12.09375 -6.234375 Z M 5.640625 -8.078125 L 8.90625 -8.078125 C 9.082031 -8.078125 9.207031 -8.109375 9.28125 -8.171875 C 9.351562 -8.234375 9.390625 -8.351562 9.390625 -8.53125 C 9.390625 -9.289062 9.1875 -9.910156 8.78125 -10.390625 C 8.382812 -10.867188 7.875 -11.109375 7.25 -11.109375 C 6.675781 -11.109375 6.1875 -10.847656 5.78125 -10.328125 C 5.375 -9.804688 5.171875 -9.171875 5.171875 -8.421875 C 5.171875 -8.296875 5.203125 -8.207031 5.265625 -8.15625 C 5.335938 -8.101562 5.460938 -8.078125 5.640625 -8.078125 Z M 5.640625 -8.078125 "/></g></g></g><g fill="#000000" fill-opacity="1"><g transform="translate(343.393309, 277.657497)"><g><path d="M 0.75 -9.1875 C 0.75 -10.375 1.140625 -11.328125 1.921875 -12.046875 C 2.710938 -12.773438 3.753906 -13.140625 5.046875 -13.140625 C 5.359375 -13.140625 5.707031 -13.109375 6.09375 -13.046875 C 6.488281 -12.992188 6.726562 -12.96875 6.8125 -12.96875 C 6.957031 -12.96875 7.1875 -13.035156 7.5 -13.171875 C 7.820312 -13.316406 8.066406 -13.390625 8.234375 -13.390625 C 8.398438 -13.390625 8.582031 -13.328125 8.78125 -13.203125 C 8.976562 -13.078125 9.15625 -12.910156 9.3125 -12.703125 C 9.664062 -12.222656 9.945312 -11.703125 10.15625 -11.140625 C 10.375 -10.578125 10.484375 -10.078125 10.484375 -9.640625 C 10.484375 -9.304688 10.40625 -9.035156 10.25 -8.828125 C 10.09375 -8.628906 9.878906 -8.53125 9.609375 -8.53125 C 9.410156 -8.53125 9.222656 -8.585938 9.046875 -8.703125 C 8.867188 -8.816406 8.660156 -9.03125 8.421875 -9.34375 C 8.359375 -9.425781 8.265625 -9.554688 8.140625 -9.734375 C 7.453125 -10.679688 6.753906 -11.15625 6.046875 -11.15625 C 5.742188 -11.15625 5.484375 -11.054688 5.265625 -10.859375 C 5.046875 -10.671875 4.9375 -10.441406 4.9375 -10.171875 C 4.9375 -9.617188 5.640625 -9.019531 7.046875 -8.375 C 7.398438 -8.207031 7.675781 -8.070312 7.875 -7.96875 C 8.976562 -7.445312 9.769531 -6.867188 10.25 -6.234375 C 10.738281 -5.609375 10.984375 -4.84375 10.984375 -3.9375 C 10.984375 -2.707031 10.515625 -1.679688 9.578125 -0.859375 C 8.640625 -0.046875 7.4375 0.359375 5.96875 0.359375 C 5.582031 0.359375 5.144531 0.3125 4.65625 0.21875 C 4.175781 0.132812 3.890625 0.09375 3.796875 0.09375 C 3.660156 0.09375 3.460938 0.132812 3.203125 0.21875 C 2.941406 0.3125 2.742188 0.359375 2.609375 0.359375 C 2.421875 0.359375 2.222656 0.289062 2.015625 0.15625 C 1.804688 0.03125 1.632812 -0.140625 1.5 -0.359375 C 1.144531 -0.867188 0.867188 -1.40625 0.671875 -1.96875 C 0.484375 -2.53125 0.390625 -3.023438 0.390625 -3.453125 C 0.390625 -3.835938 0.476562 -4.15625 0.65625 -4.40625 C 0.84375 -4.65625 1.082031 -4.78125 1.375 -4.78125 C 1.789062 -4.78125 2.289062 -4.332031 2.875 -3.4375 C 3.039062 -3.175781 3.171875 -2.976562 3.265625 -2.84375 C 3.523438 -2.445312 3.890625 -2.128906 4.359375 -1.890625 C 4.828125 -1.660156 5.304688 -1.546875 5.796875 -1.546875 C 6.242188 -1.546875 6.601562 -1.648438 6.875 -1.859375 C 7.15625 -2.066406 7.296875 -2.347656 7.296875 -2.703125 C 7.296875 -3.316406 6.425781 -4.054688 4.6875 -4.921875 L 4.546875 -5 C 2.992188 -5.738281 1.972656 -6.398438 1.484375 -6.984375 C 0.992188 -7.566406 0.75 -8.300781 0.75 -9.1875 Z M 0.75 -9.1875 "/></g></g></g><g fill="#000000" fill-opacity="1"><g transform="translate(354.883328, 277.657497)"><g><path d="M 1.453125 -10.703125 C 1.453125 -11.390625 1.679688 -11.96875 2.140625 -12.4375 C 2.597656 -12.90625 3.164062 -13.140625 3.84375 -13.140625 C 4.519531 -13.140625 5.085938 -12.90625 5.546875 -12.4375 C 6.015625 -11.96875 6.25 -11.390625 6.25 -10.703125 C 6.25 -10.035156 6.015625 -9.46875 5.546875 -9 C 5.085938 -8.539062 4.519531 -8.3125 3.84375 -8.3125 C 3.164062 -8.3125 2.597656 -8.539062 2.140625 -9 C 1.679688 -9.457031 1.453125 -10.023438 1.453125 -10.703125 Z M 1.453125 -2.046875 C 1.453125 -2.734375 1.679688 -3.304688 2.140625 -3.765625 C 2.597656 -4.234375 3.164062 -4.46875 3.84375 -4.46875 C 4.519531 -4.46875 5.085938 -4.234375 5.546875 -3.765625 C 6.015625 -3.304688 6.25 -2.734375 6.25 -2.046875 C 6.25 -1.367188 6.015625 -0.796875 5.546875 -0.328125 C 5.085938 0.128906 4.519531 0.359375 3.84375 0.359375 C 3.164062 0.359375 2.597656 0.128906 2.140625 -0.328125 C 1.679688 -0.796875 1.453125 -1.367188 1.453125 -2.046875 Z M 1.453125 -2.046875 "/></g></g></g><g clip-path="url(#549a1f15f9)"><path fill="#000000" d="M 631.921875 563.683594 L 631.816406 563.585938 C 627.726562 560.132812 619.75 551.679688 619.410156 551.320312 L 613.40625 544.523438 L 613.378906 544.492188 L 613.359375 544.460938 C 612.839844 543.683594 612.722656 542.71875 613.039062 541.816406 C 613.246094 541.246094 613.652344 540.730469 614.199219 540.367188 L 614.238281 540.335938 C 614.460938 540.191406 614.699219 540.070312 614.949219 539.988281 C 615.246094 539.890625 615.558594 539.835938 615.871094 539.835938 C 616.566406 539.835938 617.242188 540.082031 617.765625 540.523438 L 622.582031 544.574219 L 622.566406 544.523438 L 625.582031 547.035156 C 626.082031 547.449219 626.671875 547.667969 627.28125 547.667969 C 627.808594 547.667969 628.335938 547.503906 628.800781 547.183594 C 629.808594 546.488281 630.210938 545.289062 629.816406 544.128906 L 617.476562 507.554688 C 617.148438 506.570312 617.222656 505.515625 617.6875 504.585938 C 618.152344 503.65625 618.945312 502.964844 619.929688 502.636719 L 620.039062 502.597656 C 620.4375 502.464844 620.847656 502.402344 621.265625 502.402344 C 622.941406 502.402344 624.425781 503.46875 624.957031 505.058594 L 628.421875 515.355469 L 634.9375 534.859375 C 635.175781 535.582031 635.851562 536.066406 636.609375 536.066406 C 636.800781 536.066406 636.988281 536.039062 637.167969 535.972656 L 637.203125 535.964844 C 637.652344 535.816406 638.011719 535.503906 638.222656 535.078125 C 638.433594 534.65625 638.464844 534.179688 638.320312 533.730469 L 635.953125 526.660156 L 635.972656 526.652344 C 635.679688 525.695312 635.757812 524.671875 636.210938 523.769531 C 636.671875 522.839844 637.46875 522.148438 638.453125 521.820312 L 638.5625 521.78125 C 638.960938 521.648438 639.375 521.582031 639.792969 521.582031 C 641.464844 521.582031 642.949219 522.648438 643.476562 524.234375 L 644.421875 527.0625 L 644.4375 527.058594 L 646.675781 533.757812 C 646.824219 534.203125 647.136719 534.566406 647.5625 534.777344 C 647.808594 534.898438 648.074219 534.964844 648.347656 534.964844 C 648.535156 534.964844 648.726562 534.933594 648.910156 534.871094 L 648.941406 534.859375 C 649.390625 534.710938 649.75 534.394531 649.960938 533.972656 C 650.171875 533.550781 650.203125 533.074219 650.058594 532.625 L 647.707031 525.585938 L 647.695312 525.542969 L 647.683594 525.511719 C 647.328125 523.609375 648.4375 521.714844 650.269531 521.101562 L 650.375 521.066406 C 650.777344 520.933594 651.191406 520.863281 651.609375 520.863281 C 653.214844 520.863281 654.628906 521.832031 655.21875 523.335938 L 655.226562 523.347656 L 658.445312 532.988281 C 658.6875 533.710938 659.355469 534.195312 660.121094 534.195312 C 660.308594 534.195312 660.496094 534.167969 660.675781 534.105469 L 660.714844 534.09375 C 661.15625 533.945312 661.519531 533.628906 661.730469 533.207031 C 661.941406 532.785156 661.976562 532.308594 661.824219 531.863281 L 659.636719 525.304688 L 659.628906 525.285156 C 659.050781 523.273438 660.148438 521.183594 662.125 520.523438 L 662.234375 520.484375 C 662.636719 520.351562 663.050781 520.285156 663.46875 520.285156 C 664.070312 520.285156 664.65625 520.417969 665.203125 520.691406 C 666.132812 521.15625 666.824219 521.953125 667.152344 522.941406 L 675.253906 547.207031 C 676.511719 550.976562 676.371094 554.722656 674.839844 558.339844 L 674.789062 558.453125 L 674.777344 558.488281 L 674.765625 558.519531 C 674.664062 558.769531 674.359375 559.464844 673.796875 560.417969 C 672.929688 561.90625 671.835938 563.351562 670.542969 564.714844 C 670.207031 565.066406 669.769531 565.4375 669.238281 565.828125 L 669.109375 565.929688 C 666.800781 567.90625 664.089844 569.46875 661.046875 570.570312 C 657.671875 571.796875 654.335938 572.414062 651.136719 572.414062 C 648.425781 572.414062 646.34375 571.960938 645.070312 571.582031 L 645.050781 571.578125 L 643.347656 570.921875 C 637.863281 568.828125 634.8125 566.511719 631.921875 563.683594 Z M 651.117188 575.976562 C 654.433594 575.976562 657.875 575.386719 661.339844 574.226562 C 661.636719 574.128906 661.941406 574.023438 662.253906 573.90625 C 665.671875 572.667969 668.734375 570.910156 671.355469 568.675781 L 671.386719 568.652344 C 672.0625 568.15625 672.644531 567.652344 673.109375 567.164062 C 674.59375 565.597656 675.855469 563.9375 676.851562 562.214844 C 677.480469 561.160156 677.914062 560.230469 678.105469 559.714844 L 678.117188 559.695312 C 679.988281 555.265625 680.15625 550.6875 678.617188 546.082031 L 670.515625 521.816406 C 669.886719 519.933594 668.5625 518.402344 666.785156 517.515625 C 665.742188 516.996094 664.628906 516.730469 663.476562 516.730469 C 662.675781 516.730469 661.878906 516.859375 661.113281 517.117188 L 661.003906 517.15625 C 659.714844 517.585938 658.570312 518.355469 657.699219 519.386719 L 657.273438 519.894531 L 656.796875 519.429688 C 655.398438 518.066406 653.558594 517.316406 651.613281 517.316406 C 650.8125 517.316406 650.019531 517.445312 649.253906 517.699219 L 649.144531 517.734375 C 647.839844 518.171875 646.679688 518.960938 645.804688 520.015625 L 645.382812 520.523438 L 644.902344 520.066406 C 643.515625 518.753906 641.699219 518.03125 639.789062 518.03125 C 638.988281 518.03125 638.199219 518.160156 637.441406 518.414062 L 637.332031 518.449219 C 636.332031 518.78125 635.433594 519.316406 634.660156 520.023438 L 633.957031 520.671875 L 631.832031 514.308594 L 631.816406 514.316406 L 628.320312 503.929688 C 627.691406 502.046875 626.367188 500.523438 624.585938 499.636719 C 623.539062 499.113281 622.425781 498.847656 621.269531 498.847656 C 620.472656 498.847656 619.679688 498.976562 618.914062 499.230469 L 618.808594 499.269531 C 616.925781 499.898438 615.402344 501.222656 614.511719 503.003906 C 613.625 504.785156 613.484375 506.800781 614.113281 508.6875 L 625.445312 542.273438 L 618.476562 537.476562 C 617.523438 536.820312 616.417969 536.472656 615.277344 536.472656 C 614.273438 536.472656 613.296875 536.746094 612.457031 537.269531 C 612.386719 537.308594 612.324219 537.347656 612.265625 537.386719 L 612.226562 537.414062 C 611.050781 538.203125 610.160156 539.324219 609.710938 540.582031 C 608.96875 542.671875 609.277344 544.882812 610.558594 546.644531 L 616.765625 553.691406 L 616.808594 553.734375 C 617.191406 554.136719 625.160156 562.59375 629.46875 566.25 L 629.480469 566.261719 L 629.496094 566.273438 C 633.238281 569.925781 636.839844 572.214844 641.921875 574.179688 L 641.960938 574.195312 C 642.566406 574.496094 645.839844 575.976562 651.117188 575.976562 " fill-opacity="1" fill-rule="nonzero"/></g><path fill="#000000" d="M 614.929688 492.792969 C 614.121094 492.792969 613.386719 492.285156 613.101562 491.527344 L 610.390625 484.347656 C 610.203125 483.859375 610.222656 483.328125 610.4375 482.851562 C 610.652344 482.375 611.039062 482.011719 611.527344 481.828125 L 611.5625 481.816406 C 611.789062 481.730469 612.019531 481.6875 612.253906 481.6875 C 613.066406 481.6875 613.804688 482.195312 614.089844 482.953125 L 616.796875 490.132812 C 617.175781 491.140625 616.667969 492.273438 615.660156 492.65625 L 615.625 492.667969 C 615.398438 492.75 615.167969 492.792969 614.929688 492.792969 " fill-opacity="1" fill-rule="nonzero"/><path fill="#000000" d="M 637.191406 505.796875 C 636.375 505.796875 635.640625 505.289062 635.355469 504.53125 L 635.339844 504.496094 C 634.960938 503.484375 635.472656 502.351562 636.476562 501.96875 L 643.664062 499.253906 C 643.890625 499.167969 644.121094 499.128906 644.359375 499.128906 C 645.167969 499.128906 645.902344 499.636719 646.191406 500.394531 L 646.203125 500.433594 C 646.386719 500.921875 646.371094 501.453125 646.15625 501.929688 C 645.941406 502.402344 645.554688 502.765625 645.066406 502.953125 L 637.875 505.671875 C 637.652344 505.753906 637.425781 505.796875 637.191406 505.796875 " fill-opacity="1" fill-rule="nonzero"/><path fill="#000000" d="M 628.730469 494.203125 C 628.441406 494.203125 628.136719 494.136719 627.851562 494.007812 C 627.554688 493.875 627.304688 493.679688 627.128906 493.445312 C 626.683594 492.84375 626.59375 492.089844 626.890625 491.429688 L 630.398438 483.652344 C 630.644531 483.105469 631.125 482.707031 631.710938 482.554688 C 631.859375 482.519531 632.011719 482.5 632.164062 482.5 C 632.453125 482.5 632.753906 482.566406 633.035156 482.695312 C 633.335938 482.832031 633.585938 483.023438 633.761719 483.257812 C 634.210938 483.859375 634.300781 484.617188 634 485.28125 L 630.492188 493.054688 C 630.25 493.601562 629.769531 494 629.183594 494.152344 C 629.035156 494.1875 628.886719 494.203125 628.730469 494.203125 " fill-opacity="1" fill-rule="nonzero"/><path fill="#000000" d="M 599.574219 520.015625 C 598.765625 520.015625 598.027344 519.507812 597.742188 518.75 L 597.726562 518.710938 C 597.347656 517.703125 597.859375 516.570312 598.867188 516.1875 L 606.15625 513.433594 C 606.382812 513.347656 606.613281 513.304688 606.847656 513.304688 C 607.65625 513.304688 608.394531 513.8125 608.679688 514.570312 L 608.695312 514.609375 C 608.878906 515.097656 608.863281 515.628906 608.648438 516.109375 C 608.433594 516.582031 608.042969 516.949219 607.554688 517.132812 L 600.265625 519.890625 C 600.042969 519.972656 599.808594 520.015625 599.574219 520.015625 " fill-opacity="1" fill-rule="nonzero"/><path fill="#000000" d="M 605.5625 502.957031 C 605.285156 502.957031 605.015625 502.898438 604.757812 502.78125 L 596.988281 499.269531 C 596.511719 499.054688 596.144531 498.667969 595.960938 498.175781 C 595.777344 497.6875 595.792969 497.15625 596.007812 496.679688 L 596.015625 496.664062 C 596.175781 496.3125 596.410156 496.023438 596.695312 495.835938 C 597.035156 495.609375 597.421875 495.488281 597.808594 495.488281 C 598.085938 495.488281 598.355469 495.550781 598.613281 495.664062 L 606.386719 499.179688 C 606.863281 499.390625 607.226562 499.78125 607.410156 500.269531 C 607.59375 500.761719 607.578125 501.289062 607.363281 501.769531 L 607.359375 501.777344 C 607.199219 502.136719 606.964844 502.421875 606.675781 502.613281 C 606.335938 502.839844 605.949219 502.957031 605.5625 502.957031 " fill-opacity="1" fill-rule="nonzero"/><g clip-path="url(#b04475d50d)"><path fill="#1d1d1b" d="M 410.449219 549.90625 C 386.050781 549.90625 366.199219 530.042969 366.199219 505.625 C 366.199219 481.210938 386.050781 461.34375 410.449219 461.34375 L 622.785156 461.34375 C 647.183594 461.34375 667.035156 481.210938 667.035156 505.625 C 667.035156 507.78125 666.875 509.902344 666.578125 511.980469 C 667.4375 512.199219 668.273438 512.507812 669.082031 512.914062 C 669.917969 513.332031 670.691406 513.832031 671.394531 514.40625 C 671.910156 511.554688 672.179688 508.621094 672.179688 505.625 C 672.179688 478.371094 650.019531 456.199219 622.785156 456.199219 L 410.449219 456.199219 C 383.214844 456.199219 361.054688 478.371094 361.054688 505.625 C 361.054688 532.878906 383.214844 555.050781 410.449219 555.050781 L 611.109375 555.050781 L 606.574219 549.90625 L 410.449219 549.90625 " fill-opacity="1" fill-rule="nonzero"/></g></svg>