<svg id="Layer_1" viewBox="0 0 512 512" xmlns="http://www.w3.org/2000/svg" data-name="Layer 1"><g fill-rule="evenodd"><path d="m144.9 312.688a3.145 3.145 0 0 0 -4.365-.78l-35.092 24.318a3.144 3.144 0 0 0 -.78 4.365l51.583 74.436a3.145 3.145 0 0 0 4.365.781l35.092-24.319a3.144 3.144 0 0 0 .78-4.364q-25.78-37.2-51.583-74.437zm10.238-1c60.985-32.272 62.856-31.507 95.047-18.205a446.269 446.269 0 0 0 47.079 16.917 23.332 23.332 0 0 1 16.088 17.539l41.741-27.376a35.989 35.989 0 0 1 36.907-1.673 27.647 27.647 0 0 1 8.027 6.538c7.9 9.619 4.7 20.622-5.851 27.54-5.274 3.459-12.206 8.587-20.155 14.467-30.286 22.4-74.791 55.322-97.5 48.287l-67.869-21.022a3.073 3.073 0 0 0 -3.546 1.25l-2.653 4.006 1.429 2.063a12.146 12.146 0 0 1 -3.07 16.867l-35.092 24.314a12.145 12.145 0 0 1 -16.867-3.071l-51.583-74.429a12.144 12.144 0 0 1 3.07-16.866l35.091-24.319a12.145 12.145 0 0 1 16.867 3.07l2.843 4.1zm71.825 27.031 57.121 16.181a23.527 23.527 0 0 0 17.633-1.937 22.966 22.966 0 0 0 11.255-14.009l47.051-30.854a26.956 26.956 0 0 1 27.646-1.316 18.638 18.638 0 0 1 5.42 4.353c4.5 5.48 2 10.465-3.843 14.3-5.231 3.431-12.38 8.72-20.579 14.783-28.8 21.3-71.121 52.608-89.5 46.914l-67.871-21.023a12.065 12.065 0 0 0 -7.635.129c-3.28 1.165-4.975 3.122-6.727 5.753l-36.634-52.864c56.327-29.787 58.134-29.051 86.47-17.34a455.044 455.044 0 0 0 47.923 17.235 14.15 14.15 0 0 1 2.763 26.014 14.607 14.607 0 0 1 -10.944 1.2l-57.112-16.186a4.5 4.5 0 0 0 -2.429 8.663zm-56.211 52.132a4.488 4.488 0 0 1 -7.359 5.141l-.27-.386a4.489 4.489 0 1 1 7.359-5.142zm81.514-232.789a42.428 42.428 0 0 0 -25.2 12.166c-26.972 26.972-3.725 59.621 23.279 86.625 8.584 8.585 17.22 16.334 24.946 23.268 3.538 3.174 8.785 9.367 13.665 9.357 4.961-.013 11-7.073 14.624-10.352 7.63-6.9 15.955-14.434 24.274-22.752 27.182-27.183 49.949-59.191 22.993-86.146a42.466 42.466 0 0 0 -25.216-12.159 42.91 42.91 0 0 0 -27.481 6.05 17.177 17.177 0 0 1 -18.387 0 42.946 42.946 0 0 0 -27.494-6.058zm-31.577 5.792c-32.4 32.4-6.857 69.236 23.279 99.373 8.3 8.3 17.291 16.369 25.333 23.586 2.288 2.053 4.5 4.038 7.829 7.075a17.494 17.494 0 0 0 23.646-.062c3.613-3.33 6.172-5.646 8.823-8.044 7.982-7.221 16.69-15.1 24.626-23.034 30.357-30.358 55.39-66.5 22.993-98.894a51.91 51.91 0 0 0 -63.789-7.377 8.289 8.289 0 0 1 -8.951 0 51.882 51.882 0 0 0 -63.789 7.377zm72.827-60.806a4.508 4.508 0 1 1 -9.016 0v-11.892a4.508 4.508 0 1 1 9.016 0v11.888zm-56.353 12.7a4.488 4.488 0 1 1 -7.782 4.473l-5.944-10.3a4.488 4.488 0 1 1 7.782-4.473zm-42.453 39.141a4.488 4.488 0 1 1 -4.473 7.782l-10.295-5.943a4.488 4.488 0 0 1 4.472-7.783l10.3 5.944zm-17.171 55.119a4.508 4.508 0 1 1 0 9.016h-11.887a4.508 4.508 0 1 1 0-9.016zm12.7 56.353-10.295 5.944a4.488 4.488 0 1 0 4.472 7.782l10.3-5.944a4.488 4.488 0 1 0 -4.473-7.782zm193.075 7.782 10.3 5.944a4.488 4.488 0 1 0 4.473-7.782l-10.295-5.944a4.488 4.488 0 1 0 -4.473 7.782zm17.171-55.119a4.508 4.508 0 1 1 0-9.016h11.885a4.508 4.508 0 0 1 0 9.016zm-12.7-56.353a4.488 4.488 0 1 1 -4.473-7.782l10.3-5.944a4.488 4.488 0 1 1 4.473 7.783l-10.295 5.943zm-39.147-42.456a4.488 4.488 0 1 1 -7.782-4.473l5.944-10.3a4.488 4.488 0 1 1 7.782 4.473z"/><path d="m256 16a240 240 0 1 0 169.705 70.3 239.3 239.3 0 0 0 -169.705-70.3zm163.746 76.254a231.574 231.574 0 1 1 -163.746-67.825 230.909 230.909 0 0 1 163.746 67.825z"/></g></svg>