<svg id="Layer_1" height="512" viewBox="0 0 512 512" width="512" xmlns="http://www.w3.org/2000/svg" data-name="Layer 1"><path d="m256.5 156.408a87.1 87.1 0 0 0 -87 87c0 24.771 7.811 36.6 15.363 48.046 9.127 13.827 18.565 28.126 18.565 70.575a21.9 21.9 0 0 0 15.631 20.956 38.1 38.1 0 0 0 74.874 0 21.9 21.9 0 0 0 15.635-20.958c0-42.449 9.438-56.747 18.565-70.575 7.553-11.442 15.362-23.275 15.362-48.046a87.1 87.1 0 0 0 -86.995-86.998zm37.16 198.947c-.054 2.163-.09 4.372-.09 6.671a5.873 5.873 0 0 1 -5.867 5.868h-62.411a5.874 5.874 0 0 1 -5.867-5.868c0-2.3-.036-4.508-.09-6.671zm-37.16 42.645a22.106 22.106 0 0 1 -20.6-14.106h41.2a22.158 22.158 0 0 1 -20.6 14.106zm58.281-115.362c-7.759 11.756-17.071 25.886-20.156 56.717h-30.167v-59.52l16.7-16.7a8 8 0 0 0 -11.314-11.315l-13.389 13.39-15.52-15.521a8 8 0 0 0 -11.312 11.311l18.835 18.835v59.52h-30.087c-3.086-30.832-12.4-44.962-20.158-56.718-7.1-10.764-12.716-19.265-12.716-39.232a71 71 0 0 1 142 0c-.005 19.967-5.616 28.469-12.721 39.233zm-66.281-155v-21.638a8 8 0 0 1 16 0v21.637a8 8 0 0 1 -16 0zm104.739 26.462-13.139 13.145a8 8 0 1 1 -11.313-11.314l13.144-13.143a8 8 0 0 1 11.308 11.312zm-181.464 14.359-14.356-14.359a8 8 0 0 1 11.314-11.315l14.357 14.357a8 8 0 0 1 -11.315 11.314zm223.4 58.954a8 8 0 0 1 -8 8h-24.184a8 8 0 0 1 0-16h24.184a8 8 0 0 1 8 8zm-238.166 0a8 8 0 0 1 -8 8h-24.184a8 8 0 1 1 0-16h24.184a8 8 0 0 1 8 8zm98.991-227.413c-141.159 0-256 114.841-256 256s114.841 256 256 256 256-114.841 256-256-114.841-256-256-256zm0 496c-132.337 0-240-107.663-240-240s107.663-240 240-240 240 107.663 240 240-107.663 240-240 240z"/></svg>