<svg id="Layer_1" viewBox="0 0 1000 1000" xmlns="http://www.w3.org/2000/svg" data-name="Layer 1"><path d="m216.68 792.33a10 10 0 0 1 -9.68-12.64l44.73-163.43a9.93 9.93 0 0 1 2.57-4.43l292.47-292.44a10 10 0 0 1 14.14 0l118.7 118.7a10 10 0 0 1 0 14.14l-292.44 292.44a9.93 9.93 0 0 1 -4.43 2.57l-163.43 44.76a9.87 9.87 0 0 1 -2.63.33zm53.67-168.23-39.35 143.95 144-39.4 283.39-283.49-104.55-104.56z"/><path d="m273.4 776.8a9.93 9.93 0 0 1 -7.07-2.93l-41.2-41.2a10 10 0 1 1 14.14-14.14l41.2 41.2a10 10 0 0 1 -7.07 17.07z"/><path d="m295 652.13a10 10 0 0 1 -7.08-17.08l246-246a10 10 0 1 1 14.08 14.15l-246 246a10 10 0 0 1 -7 2.93z"/><path d="m325.91 683.09a10 10 0 0 1 -7.07-17.09l246-246a10 10 0 1 1 14.16 14.17l-246 246a10 10 0 0 1 -7.09 2.92z"/><path d="m356.87 714.05a10 10 0 0 1 -7.07-17.05l246-246a10 10 0 0 1 14.14 14.14l-246 246a10 10 0 0 1 -7.07 2.91z"/><path d="m700.92 426.77a10 10 0 0 1 -7.07-2.92l-118.7-118.7a10 10 0 0 1 0-14.14l37.85-37.85a93.93 93.93 0 0 1 132.84 132.84l-37.84 37.85a10 10 0 0 1 -7.08 2.92zm-104.55-128.69 104.55 104.55 30.78-30.77a73.94 73.94 0 0 0 -104.56-104.56z"/><path d="m500 910a410.11 410.11 0 0 1 -159.59-787.78 410.11 410.11 0 0 1 319.18 755.56 407.43 407.43 0 0 1 -159.59 32.22zm0-800c-215 0-390 175-390 390s175 390 390 390 390-175 390-390-174.95-390-390-390z"/></svg>