<svg xmlns="http://www.w3.org/2000/svg" xmlns:xlink="http://www.w3.org/1999/xlink" width="1366" zoomAndPan="magnify" viewBox="0 0 1024.5 576" height="768" preserveAspectRatio="xMidYMid meet" version="1.0"><defs><clipPath id="7acc254d38"><path d="M 0 0.140625 L 1024 0.140625 L 1024 575.859375 L 0 575.859375 Z M 0 0.140625 " clip-rule="nonzero"/></clipPath><clipPath id="41ca5a12a4"><path d="M 71.214844 133.445312 L 356.136719 133.445312 L 356.136719 204.605469 L 71.214844 204.605469 Z M 71.214844 133.445312 " clip-rule="nonzero"/></clipPath><clipPath id="f03fed97b3"><path d="M 324.675781 133.445312 L 84.648438 133.445312 C 77.230469 133.445312 71.214844 139.457031 71.214844 146.875 L 71.214844 179.320312 C 71.214844 182.625 72.433594 185.8125 74.636719 188.277344 L 85.238281 200.128906 C 87.789062 202.976562 91.429688 204.605469 95.25 204.605469 L 342.644531 204.605469 C 346.207031 204.605469 349.625 203.191406 352.140625 200.671875 C 354.660156 198.152344 356.078125 194.738281 356.078125 191.175781 L 356.078125 166.582031 C 356.078125 163.230469 354.824219 160.003906 352.570312 157.53125 L 334.601562 137.828125 C 332.058594 135.035156 328.453125 133.445312 324.675781 133.445312 Z M 324.675781 133.445312 " clip-rule="nonzero"/></clipPath></defs><g clip-path="url(#7acc254d38)"><path fill="#ffffff" d="M 0 0.140625 L 1024 0.140625 L 1024 575.859375 L 0 575.859375 Z M 0 0.140625 " fill-opacity="1" fill-rule="nonzero"/><path fill="#fdfaf0" d="M 0 0.140625 L 1024 0.140625 L 1024 575.859375 L 0 575.859375 Z M 0 0.140625 " fill-opacity="1" fill-rule="nonzero"/></g><g clip-path="url(#41ca5a12a4)"><g clip-path="url(#f03fed97b3)"><path fill="#f26e26" d="M 71.214844 133.445312 L 356.136719 133.445312 L 356.136719 204.605469 L 71.214844 204.605469 Z M 71.214844 133.445312 " fill-opacity="1" fill-rule="nonzero"/></g></g></svg>