<svg id="Calque_1" enable-background="new 0 0 100 100" height="100" viewBox="0 0 100 100" width="100" xmlns="http://www.w3.org/2000/svg"><g><g><path d="m50 5c-24.813 0-45 20.187-45 45s20.187 45 45 45 45-20.188 45-45c0-24.813-20.187-45-45-45zm0 83.334c-21.137 0-38.333-17.196-38.333-38.334 0-21.137 17.196-38.333 38.333-38.333s38.334 17.196 38.334 38.333c0 21.138-17.197 38.334-38.334 38.334zm16.703-41.664h-10.948l5.465-9.465c2.227-3.854-3.547-7.188-5.772-3.333l-5.456 9.451-5.457-9.451c-2.226-3.854-7.999-.521-5.773 3.333l5.465 9.465h-10.857c-4.55 0-4.55 6.667 0 6.667h10.84l-5.429 9.402c-2.275 3.941 3.498 7.274 5.772 3.333l5.438-9.418 5.438 9.418c2.275 3.941 8.048.608 5.772-3.333l-5.429-9.402h10.931c4.452 0 4.452-6.667 0-6.667z"/></g></g></svg>